<svg width="23" height="38" viewBox="0 0 23 38" fill="none" xmlns="http://www.w3.org/2000/svg">
<path d="M17.2251 35.8438C17.1837 35.5463 17.2771 35.0351 17.5097 34.2353C17.0499 34.2353 16.6612 34.0322 16.1903 34.0395C16.0615 34.7917 15.8625 36.0269 15.8625 36.0269L15.8411 37.0033L19.1206 37.028C19.1206 37.028 19.0936 37.042 18.1263 36.4313C18.0549 36.3848 17.2654 36.1297 17.2251 35.8438Z" fill="#F7A491"/>
<path d="M15.8255 37.2531H19.211C19.3362 37.242 19.3665 37.1397 19.3232 37.0767C19.2337 36.9472 18.5735 36.6359 18.1296 36.4292C17.3509 36.5104 15.9823 36.1907 15.8593 36.0103C15.6459 36.6077 15.7557 37.2377 15.8255 37.2531Z" fill="#141126"/>
<path d="M13.14 35.8438C13.0983 35.5463 13.028 35.1744 13.1313 34.1831C12.6715 34.1831 12.232 34.0976 11.7608 34.1047C11.7608 34.8788 11.777 36.0269 11.777 36.0269L11.7557 37.0033L15.0352 37.0279C15.0352 37.0279 15.0081 37.042 14.0412 36.4313C13.9698 36.3848 13.18 36.1297 13.14 35.8438Z" fill="#F7A491"/>
<path d="M11.7399 37.2531H15.1254C15.2506 37.242 15.2812 37.1397 15.2377 37.0767C15.1484 36.9472 14.4882 36.6359 14.044 36.4292C13.2653 36.5104 11.8968 36.1907 11.774 36.0103C11.5603 36.6077 11.6704 37.2377 11.7399 37.2531Z" fill="#141126"/>
<path d="M15.5241 7.52256L16.7577 6.22104C16.7577 6.22104 18.0782 6.94726 19.6175 7.64103C20.0408 6.90453 20.7313 4.4819 20.7683 4.3664C20.8054 4.25091 19.9596 2.79495 20.1489 2.75844C20.3383 2.72193 20.5839 3.53578 20.784 3.45329C20.9842 3.37079 21.4983 1.48316 21.619 1.58702C21.844 1.7796 21.3485 2.76114 21.467 2.83255C21.5854 2.90395 21.887 1.7447 22.1161 1.7942C22.3452 1.8437 21.7288 2.84905 21.7964 2.94615C21.864 3.04325 22.5086 2.09929 22.6416 2.31784C22.7141 2.43657 22.0466 3.13954 22.1843 3.21824C22.3219 3.29695 22.9224 2.85419 22.9943 2.99754C23.0663 3.14089 22.4334 3.29046 22.2578 3.65343C22.0823 4.01641 21.7631 4.15787 21.6571 4.84352C21.5511 5.52917 21.2614 9.19814 20.5135 9.49269C19.8598 9.74991 15.5241 7.52256 15.5241 7.52256Z" fill="#F7A491"/>
<path d="M16.3201 14.542L15.3193 15.1L13.2856 18.2104L16.9224 26.7698C16.9224 26.7698 16.5127 28.057 16.3793 28.7002C16.2398 29.3729 15.8973 35.148 15.8973 35.148L17.4488 35.1751C17.4488 35.1751 18.9223 29.0269 19.172 27.0316C19.4749 24.6082 17.6303 18.8363 17.6303 18.8363C17.2862 17.6589 16.5443 15.2366 16.5443 15.2366C16.5443 15.2366 16.3626 14.6453 16.3201 14.542Z" fill="#403576"/>
<path d="M12.8381 13.3743C12.8381 13.3743 12.9417 14.1045 12.5279 14.9398C12.2758 15.4483 11.8401 15.8472 11.5271 16.4701C10.9367 17.6491 10.6162 19.3239 10.8377 20.4001C10.8377 20.4001 12.0583 25.0612 12.0096 26.7649C11.9918 27.3929 11.7765 28.5248 11.6385 29.29C11.5166 29.9662 11.5593 34.9843 11.5593 34.9843L13.2078 35.0162L14.5345 26.7857L15.0952 19.4697L16.3191 14.5422L12.8381 13.3743Z" fill="#6859B0"/>
<path d="M16.6896 2.50093C16.5297 1.7455 16.365 0.986281 15.6139 0.44317C15.0062 0.00256902 14.3535 -0.123201 13.6614 0.127798C11.7002 0.839144 12.755 2.39545 10.3216 4.05399C9.56423 4.56951 9.27834 4.74911 8.7355 5.43611C7.97601 6.39737 7.56084 7.68726 7.94275 8.74941C8.73226 10.9454 11.179 11.5799 12.4597 11.1142C14.8423 10.2486 16.827 7.22611 16.9587 6.4017C17.0991 5.51942 16.7926 2.98751 16.6896 2.50093Z" fill="#524A74"/>
<path d="M16.8714 8.34C17.4234 8.59505 18.4233 8.97831 18.4233 8.97831L18.9913 7.17912C15.7762 5.35018 16.0286 5.64527 13.6154 5.68124C11.6877 5.70829 10.8798 5.34071 9.21967 9.82219C9.21967 9.82219 10.4798 10.3902 10.9323 10.5725C11.127 10.0186 11.4822 8.9134 11.6872 9.54306C11.9952 10.4898 12.2255 11.46 12.3761 12.4442C12.4726 13.0305 12.6831 13.7808 12.5725 14.3783C12.5725 14.3783 13.8853 14.6488 14.888 14.6926C14.8909 14.6929 14.8938 14.6929 14.8966 14.6926C15.3813 14.6804 15.8776 14.6385 16.3193 14.5422C16.3193 14.5422 16.516 10.3853 16.6212 10.2117C16.7375 10.0196 17.2287 9.40025 16.8105 8.4709C16.7378 8.30673 16.7575 8.28725 16.8714 8.34Z" fill="#E6E6E6"/>
<path d="M13.9182 3.83127C13.9182 3.83127 13.7646 5.07112 13.6748 5.50144C13.5799 5.95178 13.4376 7.37014 14.3713 7.60032C15.305 7.83049 15.0166 6.05862 15.032 5.59881C15.0475 5.13901 15.3123 3.54321 15.3123 3.54321L13.9182 3.83127Z" fill="#F7A491"/>
<path d="M13.8675 4.22684C13.877 4.23252 13.8859 4.23847 13.8946 4.24415C14.4107 4.54005 14.8599 4.49325 15.1972 4.26308C15.2572 3.86657 15.3108 3.54443 15.3108 3.54443L13.9173 3.83113C13.9173 3.83113 13.8978 3.99639 13.8675 4.22684Z" fill="#F47458"/>
<path d="M14.1989 0.602518C13.8372 0.724496 13.5312 0.971827 13.3361 1.2998C13.0204 1.84345 12.863 3.40408 14.0247 4.07026C15.1864 4.73644 16.0108 3.66915 15.9756 2.67083C15.9404 1.67251 15.6627 0.352059 14.1989 0.602518Z" fill="#F7A491"/>
<path d="M16.2325 2.24235C16.2455 2.50201 16.1343 2.71839 15.9845 2.72596C15.8346 2.73353 15.7029 2.52933 15.6899 2.26994C15.6769 2.01056 15.7881 1.79391 15.9379 1.78634C16.0878 1.77876 16.2195 1.98297 16.2325 2.24235Z" fill="#F7A491"/>
<path d="M14.3635 0.561279C14.3635 0.561279 13.7374 2.19386 13.1245 2.36777C12.5116 2.54169 12.5606 3.34472 12.5606 3.34472C12.5606 3.34472 12.4821 1.48873 13.042 1.0338C13.6019 0.57886 14.3635 0.561279 14.3635 0.561279Z" fill="#2A2250"/>
<path d="M13.3875 2.68731C13.4819 2.94264 13.4199 3.20121 13.249 3.26612C13.0781 3.33104 12.8628 3.17578 12.7681 2.92073C12.6734 2.66567 12.7357 2.40683 12.9066 2.34191C13.0775 2.277 13.2928 2.43225 13.3875 2.68731Z" fill="#F7A491"/>
<path d="M10.2037 35.3205C10.2037 35.3205 10.129 35.9642 10.129 36.0732V36.1814L10.1831 36.2925L10.2042 36.3366L9.81934 36.8776C9.81934 36.8776 8.27304 36.9006 8.23869 36.9006C8.20434 36.9006 8.4456 36.5268 8.4456 36.5268C8.4456 36.5268 8.95707 36.1416 9.04903 35.8717C9.14099 35.6018 8.97086 35.0381 8.97086 35.0381L10.2037 35.3205Z" fill="#F7A491"/>
<path d="M17.6568 31.4682C17.6568 31.4682 18.2075 31.81 18.293 31.8779L18.3784 31.9458L18.4325 32.0567L18.4539 32.1008L19.1166 32.1352C19.1166 32.1352 20.096 30.9383 20.1173 30.9113C20.1387 30.8842 19.8355 30.9518 19.8355 30.9518C19.8355 30.9518 19.2175 31.0357 18.9486 30.9397C18.6798 30.8436 18.1372 30.3081 18.1372 30.3081L17.6568 31.4682Z" fill="#F7A491"/>
<path d="M12.6525 25.4282L18.5842 30.4807L17.6703 31.7738C17.6703 31.7738 11.5752 27.9888 11.2555 27.9461C10.9358 27.9033 10.678 28.0497 10.6177 28.2823C10.5574 28.5149 10.4038 35.4998 10.4038 35.4998H8.81986L7.99411 26.7059L12.6525 25.4282Z" fill="#8370DC"/>
<path d="M4.10637 18.222C3.66766 17.9342 2.63635 16.8279 2.28744 16.4512C2.28365 16.4071 2.25039 16.1512 1.96937 15.8258C1.77111 15.5962 1.621 15.0723 1.4909 15.2208C1.3608 15.3693 1.68347 15.7855 1.53579 15.7888C1.38811 15.792 0.654324 14.9671 0.536397 15.1018C0.418471 15.2365 1.16335 15.9692 1.03136 15.9716C0.899368 15.9741 0.294314 15.2319 0.127703 15.4223C-0.038909 15.6127 0.92019 16.2294 0.830934 16.3316C0.741677 16.4339 0.146906 16.0292 0.0127511 16.1823C-0.121404 16.3354 0.851223 16.6962 0.773326 16.6978C0.69543 16.6995 0.134467 16.6841 0.13041 16.7922C0.125812 16.9142 1.54985 17.1044 1.72458 17.3159C2.09675 17.9085 2.75915 18.9906 3.42992 19.4656C4.25081 20.0466 6.14764 21.2778 6.14764 21.2778L7.08997 20.0606C7.08997 20.0606 4.62676 18.563 4.10637 18.222Z" fill="#F7A491"/>
<path d="M1.53588 16.0503C1.50141 16.1219 1.48191 16.1997 1.47855 16.2791C1.48126 16.2918 1.44663 16.5463 1.66382 16.7389C1.57916 16.5823 1.48666 16.4076 1.53588 16.0503Z" fill="#F48C7F"/>
<path d="M12.8024 16.8904C13.1507 16.498 13.8572 15.1594 14.0952 14.7055C14.0871 14.662 14.0525 14.4061 14.2386 14.0191C14.37 13.7453 14.3779 13.2003 14.5423 13.3096C14.7068 13.4189 14.5039 13.9047 14.6472 13.8692C14.7906 13.8338 15.2831 12.8455 15.4316 12.9447C15.5801 13.044 15.053 13.9455 15.1814 13.9139C15.3099 13.8822 15.6991 13.007 15.9098 13.1471C16.1205 13.2872 15.3559 14.1337 15.4689 14.2087C15.582 14.2836 16.0499 13.738 16.2195 13.8508C16.3891 13.9636 15.5447 14.5662 15.6201 14.5473C15.6956 14.5284 16.2333 14.3669 16.2655 14.4702C16.302 14.5868 14.977 15.1426 14.8639 15.3923C14.6597 16.0617 14.3032 17.2796 13.7801 17.9133C13.1396 18.6888 11.6309 20.3747 11.6309 20.3747L10.4032 19.4458C10.4032 19.4458 12.3893 17.3559 12.8024 16.8904Z" fill="#F7A491"/>
<path d="M14.716 14.1223C14.7679 14.1824 14.807 14.2524 14.831 14.3281C14.8592 14.4094 14.8686 14.496 14.8585 14.5814C14.8484 14.6668 14.819 14.7488 14.7725 14.8212C14.8131 14.6473 14.8575 14.4542 14.716 14.1223Z" fill="#F48C7F"/>
<path d="M10.1806 19.663C10.0928 19.5318 9.97209 19.4261 9.83048 19.3566C9.68888 19.287 9.53143 19.256 9.37402 19.2667C8.43223 19.3308 6.52215 19.4831 6.3412 19.663C6.09967 19.9045 5.37534 21.4792 6.06532 23.6865C6.75529 25.8939 7.13423 25.6637 7.69763 25.6637C8.26102 25.6637 10.9163 24.4106 10.9163 24.4106L10.1806 19.663Z" fill="#4E4285"/>
<path d="M11.8075 17.7891L12.9148 19.2337L11.54 21.2787C11.54 21.2787 11.6693 22.7982 11.8678 23.2726C12.0664 23.7471 13.2129 25.6953 13.2129 25.6953C13.2129 25.6953 10.427 27.4025 7.70335 27.1523C7.70335 27.1523 6.93601 23.2034 6.72044 22.8247C6.50488 22.4461 4.42711 20.5657 4.42711 20.5657L5.43597 18.9361L7.17755 19.902C7.17755 19.902 10.3608 19.3881 10.5141 19.2342C10.6675 19.0803 11.8075 17.7891 11.8075 17.7891Z" fill="#E5E5E5"/>
<path d="M8.21512 14.8349C8.21512 14.8349 9.28997 14.2669 9.65782 15.2084C9.65782 15.2084 10.6234 15.1108 10.4568 16.111C10.4568 16.111 11.4281 16.5994 10.813 17.8582C10.813 17.8582 11.0835 19.0424 9.69785 19.117C9.69785 19.117 9.49094 19.5365 8.85938 19.4389C8.22782 19.3412 8.06608 19.1746 8.06608 19.1746C8.06608 19.1746 6.94524 19.5022 6.60552 18.4906C6.60552 18.4906 5.83522 18.3067 6.35264 17.3178C6.35264 17.3178 5.68023 16.036 6.8641 15.6509C6.8641 15.6509 7.00204 14.3413 8.21512 14.8349Z" fill="#524A74"/>
<path d="M7.78078 17.6113C7.86814 17.8547 7.80539 18.1006 7.64067 18.1596C7.47595 18.2185 7.27175 18.069 7.18439 17.8253C7.09703 17.5816 7.15977 17.336 7.32449 17.277C7.48921 17.218 7.69342 17.3676 7.78078 17.6113Z" fill="#F7A491"/>
<path d="M10.6799 17.0131C10.6923 17.2717 10.5603 17.4881 10.3856 17.4965C10.2109 17.5049 10.0591 17.3017 10.0469 17.0432C10.0348 16.7846 10.1665 16.5682 10.3412 16.5598C10.5159 16.5514 10.6677 16.7546 10.6799 17.0131Z" fill="#F7A491"/>
<path d="M9.4506 18.726C9.4506 18.7428 9.59042 19.343 9.66453 19.6602C9.67786 19.7176 9.6709 19.7779 9.64482 19.8308C9.61873 19.8836 9.57513 19.9258 9.52145 19.9502C9.2261 20.0854 8.64485 20.2734 8.2432 19.9096C8.22529 19.893 8.21118 19.8728 8.20184 19.8502C8.1925 19.8277 8.18816 19.8034 8.18911 19.779L8.2386 18.3455L9.4506 18.726Z" fill="#F7A491"/>
<path d="M9.52563 19.0621C9.21297 19.2198 8.81969 19.2244 8.37828 18.9645C8.32378 18.9326 8.27106 18.8977 8.22032 18.8601L8.23818 18.3462L9.45071 18.7249C9.45071 18.7343 9.48344 18.879 9.52563 19.0621Z" fill="#F48C7F"/>
<path d="M8.59089 15.4192C8.24174 15.5305 7.94375 15.7627 7.75052 16.0741C7.43947 16.588 7.26772 18.0777 8.37828 18.7288C9.48885 19.3798 10.2973 18.3715 10.2762 17.4178C10.2551 16.4641 9.83101 15.2442 8.59089 15.4192Z" fill="#F7A491"/>
<path d="M10.403 19.2835C10.9142 19.6703 11.4497 21.6517 11.6523 22.1692L11.8146 23.1191L9.73382 19.4436C9.73382 19.4436 10.2929 19.2002 10.403 19.2835Z" fill="#8370DC"/>
<path d="M7.87683 19.7851C7.87683 19.7851 7.93904 22.2267 7.75512 23.066C7.5712 23.9053 7.09003 24.1985 7.09003 24.1985L6.85337 23.222C6.85337 23.222 7.09003 21.0656 7.17793 19.9017C7.19092 19.7237 7.87683 19.7851 7.87683 19.7851Z" fill="#8370DC"/>
<path d="M10.4855 37.2736C10.7216 37.2436 10.3137 36.4249 10.1825 36.2937L8.44502 36.5274C8.44502 36.5274 7.60844 36.9155 7.41018 37.1138C7.36312 37.1608 7.35609 37.2431 7.56111 37.2736C8.217 37.371 9.96156 37.3399 10.4855 37.2736Z" fill="#141126"/>
<path d="M19.0286 32.9157C18.8244 33.0382 18.4533 32.2395 18.4336 32.0564L19.8365 30.9515C19.8365 30.9515 20.9184 30.6413 21.1375 30.8596C21.3347 31.0581 19.4914 32.6374 19.0286 32.9157Z" fill="#141126"/>
<path d="M14.3549 15.5135C14.3776 15.5168 14.4798 15.5033 14.5637 15.5054C14.6362 15.5069 14.7085 15.5135 14.7801 15.5249C14.8207 15.4929 14.8652 15.4662 14.9126 15.4454C14.9486 15.4289 15.0075 15.4227 15.0478 15.404C15.0881 15.3853 15.1241 15.3499 15.1636 15.3315C15.2658 15.2872 15.36 15.2774 15.3911 15.3315C15.4181 15.3761 14.8471 15.7245 14.8471 15.7245C14.3195 15.7278 13.7671 15.9966 12.5449 15.1992C11.8465 14.8942 8.45639 13.2197 8.38796 12.8545C8.34983 12.6498 8.87049 11.0615 9.29568 9.85767C9.63701 10.0067 10.3213 10.3175 10.7111 10.4819C10.3535 11.2392 9.9302 12.2443 9.97455 12.3674C9.98591 12.3993 10.0286 12.4575 12.3204 13.958C12.3783 13.9954 12.4372 14.0346 12.4973 14.0738C12.6585 14.1793 12.8308 14.2917 13.0144 14.4111L13.669 14.3413C13.669 14.3413 14.7043 14.4127 14.7354 14.5306C14.7487 14.5847 14.6629 14.6118 14.5575 14.6269H14.5545L14.508 14.6331H14.5058C14.3919 14.6467 14.2721 14.6486 14.2432 14.6602C14.188 14.6788 14.1355 14.7044 14.0868 14.7365C14.7322 15.0004 14.6819 14.9063 14.8966 14.8928C14.9507 14.8887 15.0075 14.9042 15.0589 14.9001C15.1457 14.8928 15.215 14.8411 15.2823 14.8371C15.3525 14.8325 15.4219 14.8533 15.4779 14.8958C15.5006 14.9188 15.4581 14.9518 15.3754 14.9891C14.8769 15.2055 14.4641 15.1224 14.3319 15.1543C14.2429 15.1763 14.4052 15.2084 14.6586 15.1814C14.7216 15.1752 14.8044 15.1979 14.8883 15.1782C14.944 15.1657 14.9948 15.1295 15.0505 15.1162C15.1011 15.1038 15.1528 15.1049 15.1952 15.0965C15.251 15.0862 15.3286 15.0437 15.3732 15.0386C15.5385 15.0199 15.6193 15.0489 15.6377 15.0656C15.6761 15.1 14.9242 15.3886 14.9242 15.3886C14.9242 15.3886 14.406 15.463 14.2902 15.463C14.2886 15.4619 14.2194 15.493 14.3549 15.5135Z" fill="#F28E77"/>
</svg>
