<svg width="22" height="31" viewBox="0 0 22 31" fill="none" xmlns="http://www.w3.org/2000/svg">
<path fill-rule="evenodd" clip-rule="evenodd" d="M14.6624 27.1622C14.7893 25.3526 12.8935 25.4681 11.6653 25.3526C13.9432 24.805 14.4762 24.737 16.5971 23.889C17.3953 23.795 18.0315 23.308 20.9817 23.6731C21.2071 23.9469 22.4599 24.2208 21.8196 25.6105C21.1314 27.1034 21.6508 26.3102 21.3482 27.426C21.2441 27.8103 21.1624 27.9189 20.7375 28.107C20.4025 28.253 16.1434 29.6519 13.9003 30.2908C14.0408 29.5976 13.8596 29.9348 13.7433 29.5994C14.0878 28.2243 14.6205 27.7629 14.6624 27.1622Z" fill="black"/>
<path fill-rule="evenodd" clip-rule="evenodd" d="M11.6653 25.3526C12.8934 25.4681 14.7893 25.3526 14.6624 27.1622C14.6204 27.7628 14.0878 28.2242 13.7432 29.598C13.7219 29.531 13.7066 29.4623 13.6976 29.3926C13.6939 29.3666 13.6903 29.3392 13.6866 29.3095C13.5771 28.3643 12.5087 26.521 11.6653 25.3526Z" fill="#191919"/>
<path fill-rule="evenodd" clip-rule="evenodd" d="M16.5972 23.889C14.4763 24.737 13.9432 24.8018 11.6654 25.3526C11.3591 24.9282 11.0821 24.5927 10.8922 24.4216C10.5933 24.1537 10.1342 23.9018 9.6084 23.7151C10.6033 23.4162 11.125 23.1355 12.1665 23.235C12.9478 23.4034 15.4927 23.847 16.1828 23.8981C16.3209 23.9084 16.4597 23.9054 16.5972 23.889Z" fill="#1E2525"/>
<path fill-rule="evenodd" clip-rule="evenodd" d="M12.1664 23.2348C11.1249 23.1353 10.6032 23.4174 9.60829 23.7149C9.3606 23.6273 9.10716 23.5568 8.84977 23.5041C9.55033 23.4612 10.485 23.3416 11.0491 22.9108C11.098 23.1061 11.2983 23.118 11.5206 22.8323C11.5598 22.9236 11.5849 22.9692 11.6246 22.9916C11.6968 23.0335 11.8154 23.0057 12.149 23.0591L12.1664 23.2348Z" fill="black"/>
<path fill-rule="evenodd" clip-rule="evenodd" d="M9.60833 23.715C10.1341 23.9017 10.5932 24.1536 10.8922 24.4215C11.082 24.5927 11.3591 24.9281 11.6653 25.3526C12.5087 26.5209 13.5771 28.3648 13.6848 29.3095C13.6885 29.3392 13.6921 29.3666 13.6958 29.3926C12.3964 28.4063 12.1144 27.672 11.119 26.4292C10.146 25.2147 8.26243 23.2157 6.4583 23.8456L5.94166 24.0806C6.16438 23.8469 6.45282 23.6123 7.22641 23.4617C7.73118 23.3632 8.30122 23.3924 8.84981 23.5042C9.1072 23.5569 9.36064 23.6274 9.60833 23.715Z" fill="#8370DC"/>
<path fill-rule="evenodd" clip-rule="evenodd" d="M6.45831 23.8456C8.26244 23.2158 10.146 25.2148 11.119 26.4293C12.1144 27.672 12.3969 28.4064 13.6958 29.3926C13.7049 29.4623 13.7201 29.5311 13.7415 29.598C12.2084 28.4643 12.0528 27.9482 10.8205 26.4119C9.77082 25.1039 7.97856 23.0803 6.07403 24.1249L5.86728 24.2491L5.66008 24.3732C5.76368 24.2819 5.84675 24.1806 5.94168 24.0807L6.45831 23.8456Z" fill="black"/>
<path fill-rule="evenodd" clip-rule="evenodd" d="M6.07397 24.1249C7.98033 23.0793 9.77442 25.1039 10.8205 26.4119C12.0527 27.9481 12.2084 28.4657 13.7414 29.598C13.8578 29.9335 14.039 29.598 13.8984 30.2894L13.5456 30.388C12.4311 29.6793 12.7643 29.8454 11.7629 28.6113C10.8301 27.4607 9.2733 25.2312 7.90503 24.5612C7.16019 24.1961 6.66409 24.2285 5.8654 24.2491L6.07397 24.1249Z" fill="#2B2B2B"/>
<path fill-rule="evenodd" clip-rule="evenodd" d="M7.90691 24.5613C9.27609 25.2313 10.8319 27.4608 11.7648 28.6114C12.7661 29.8436 12.433 29.6793 13.5475 30.3881C13.0975 30.5109 12.7661 30.5894 12.6201 30.6012L11.6776 30.6364C10.1483 30.3771 9.3555 30.243 8.57735 30.0485C7.7992 29.8541 7.03656 29.5999 5.56789 29.1002C4.56382 28.7592 3.84409 28.6328 3.1239 28.1226C3.26355 28.019 3.26447 27.971 3.1887 27.9455C3.82172 28.0413 4.32513 28.1737 4.38081 27.626C4.40363 27.4037 4.3694 27.2764 4.27629 27.05C4.23065 26.9359 3.58212 25.6224 3.18094 24.847C3.29504 24.8491 3.40382 24.8502 3.50727 24.8502C4.90018 24.8502 5.36342 24.6394 5.65917 24.3742L5.86637 24.2501C6.66597 24.2286 7.16207 24.1967 7.90691 24.5613Z" fill="black"/>
<path fill-rule="evenodd" clip-rule="evenodd" d="M2.93908 24.3859C2.99521 24.485 3.08102 24.6479 3.18325 24.846C3.58351 25.6218 4.23067 26.9349 4.2786 27.049C4.36987 27.2772 4.40593 27.4027 4.38311 27.625C4.32743 28.1726 3.82403 28.0412 3.19101 27.9444C3.17028 27.9379 3.14907 27.933 3.12757 27.9298C3.58396 27.9011 4.10425 27.9549 4.20557 27.7194C4.37535 27.3247 4.13529 27.0704 3.9614 26.7697C2.56483 24.3508 3.24349 25.1267 1.22303 23.5293C1.24403 23.4339 1.2632 23.3403 1.28145 23.2477L1.82548 23.7474C2.12578 23.9428 2.65657 23.9921 2.88157 24.2887C2.90244 24.3201 2.92164 24.3525 2.93908 24.3859Z" fill="black"/>
<path fill-rule="evenodd" clip-rule="evenodd" d="M1.22118 23.5316C3.24118 25.1253 2.56252 24.3504 3.95955 26.772C4.13343 27.0728 4.3735 27.327 4.20372 27.7218C4.1024 27.9573 3.58028 27.9043 3.12571 27.9322C3.53966 27.8222 3.95042 27.8108 3.91163 27.4758C3.90615 27.4265 3.81578 27.2572 3.68708 27.0358C3.37993 26.5073 2.85507 25.6821 2.74371 25.4841C2.64787 25.4699 2.57302 25.4613 2.49589 25.4539L2.29645 25.4357C2.24703 25.2763 2.18238 25.1221 2.10339 24.9752C1.79441 24.4047 1.53929 23.9971 1.24491 23.8379C1.08289 23.7502 0.908551 23.7384 0.706368 23.8164C0.853969 23.6834 1.03008 23.586 1.22118 23.5316Z" fill="#141311"/>
<path fill-rule="evenodd" clip-rule="evenodd" d="M2.74328 25.4803C2.85464 25.6784 3.37949 26.5036 3.68665 27.0321L3.37082 27.0056L2.49546 25.4502C2.57396 25.4575 2.64744 25.4662 2.74328 25.4803Z" fill="#999999"/>
<path fill-rule="evenodd" clip-rule="evenodd" d="M2.49541 25.4503L3.37078 27.0048L3.6866 27.0313C3.81531 27.2526 3.90567 27.4219 3.91115 27.4712C3.94994 27.8085 3.53919 27.8199 3.12524 27.9276C2.83953 27.882 2.11159 27.9404 2.11159 27.4735C2.17427 27.3723 2.22714 27.2653 2.2695 27.154C2.47579 26.6219 2.46894 25.9843 2.29597 25.4284L2.49541 25.4503Z" fill="#333333"/>
<path fill-rule="evenodd" clip-rule="evenodd" d="M2.29597 25.4319C2.46894 25.9878 2.47578 26.6254 2.26949 27.1575C2.05955 26.6824 2.1449 26.5916 2.13258 26.0293C2.11341 25.1247 1.32248 24.9476 1.24352 23.834C1.53789 23.9933 1.79119 24.4009 2.102 24.9714C2.1813 25.1183 2.24626 25.2725 2.29597 25.4319Z" fill="#999999"/>
<path fill-rule="evenodd" clip-rule="evenodd" d="M2.13347 26.0294C2.14488 26.5917 2.05953 26.6825 2.27039 27.1576C2.22803 27.2689 2.17516 27.3758 2.11247 27.4771C0.654294 28.7892 -0.113362 25.0468 0.471736 24.0906C0.535735 23.9869 0.614968 23.8933 0.706778 23.8131C0.908961 23.7351 1.0833 23.747 1.24532 23.8346C1.32337 24.9477 2.1143 25.1248 2.13347 26.0294Z" fill="#141311"/>
<path fill-rule="evenodd" clip-rule="evenodd" d="M2.87976 24.291C2.65476 23.9944 2.12397 23.9451 1.82367 23.7498L1.27965 23.25C1.6726 21.2419 1.4727 19.8115 1.30885 17.4392L0.907228 12.0807C0.697286 10.8124 -0.155715 9.12141 0.542112 6.82666C0.576798 8.3104 0.658493 9.28024 0.92594 10.7539C0.977056 11.0351 1.02635 11.2884 1.07427 11.5166C1.27508 12.4709 1.4549 12.9944 1.65708 13.3212C2.43295 15.4292 3.67343 19.76 3.61547 22.5358C3.6114 22.8935 3.57597 23.2503 3.50959 23.6019C3.43976 23.9487 3.24853 24.0628 2.93909 24.3864C2.92101 24.3536 2.9012 24.3218 2.87976 24.291Z" fill="black"/>
<path fill-rule="evenodd" clip-rule="evenodd" d="M3.50817 23.6013C3.57456 23.2497 3.60999 22.893 3.61405 22.5352C3.95772 22.3946 4.70392 22.0368 4.90474 21.7684C5.28491 21.2596 5.22741 19.5444 5.23289 18.9607C5.3698 20.0428 5.35976 21.1409 5.28857 22.1176C5.18177 23.5835 4.9344 23.9824 3.50863 24.8491C3.40487 24.8491 3.2961 24.848 3.1823 24.8459C3.08007 24.6478 2.99427 24.4849 2.93813 24.3859C3.24711 24.0623 3.43834 23.9468 3.50817 23.6013Z" fill="#4C4C4C"/>
<path fill-rule="evenodd" clip-rule="evenodd" d="M4.90474 21.7685C4.70392 22.0368 3.95772 22.3946 3.61406 22.5352C3.67202 19.7594 2.43336 15.4287 1.65567 13.3206C1.95597 13.8058 2.30512 13.8592 2.84457 14.2448C3.16375 14.4731 3.45348 14.74 3.70716 15.0394C4.60899 16.0996 5.05078 17.5158 5.23289 18.9607C5.22741 19.5445 5.28491 21.2596 4.90474 21.7685Z" fill="#8370DC"/>
<path fill-rule="evenodd" clip-rule="evenodd" d="M2.84457 14.2448C2.30511 13.8592 1.95597 13.8058 1.65566 13.3206C1.45348 12.9939 1.27366 12.4704 1.07285 11.516L1.84096 10.8844C2.20607 10.4691 2.29233 9.92597 2.27271 9.3783L3.70715 15.0376C3.45336 14.7388 3.16364 14.4726 2.84457 14.2448Z" fill="#4C4C4C"/>
<path fill-rule="evenodd" clip-rule="evenodd" d="M1.84093 10.8845L1.07282 11.5162C1.02489 11.288 0.975604 11.0347 0.924488 10.7536C0.657041 9.27986 0.575348 8.31002 0.540662 6.82628C0.820888 5.90163 1.22982 5.29006 1.65837 4.65613C1.97785 4.67347 2.14945 4.70177 2.39955 5.0719C3.10697 6.12161 1.8391 6.37171 2.12891 8.20505C2.18642 8.57016 2.25762 8.97544 2.27268 9.3789C2.2923 9.92748 2.20878 10.4692 1.84093 10.8845Z" fill="#8370DC"/>
<path fill-rule="evenodd" clip-rule="evenodd" d="M2.12901 8.20493C1.8392 6.37159 3.10707 6.12012 2.39965 5.07178C2.14955 4.70073 1.97703 4.67335 1.65847 4.65601C1.91542 4.27629 2.17876 3.88927 2.42567 3.42374C3.81311 0.800846 3.52969 -0.029336 5.60309 0.000786069C8.9804 0.0519022 8.69835 0.41428 9.86216 3.42374C10.078 3.98191 10.2884 4.34018 10.518 4.60215C9.43178 8.03469 9.99223 13.7565 10.5604 17.2666C10.764 18.5231 11.5691 21.716 11.5189 22.8347C11.2966 23.1204 11.0962 23.1085 11.0474 22.9131C10.4833 23.3431 9.54862 23.4608 8.84805 23.5065C8.30038 23.3946 7.72943 23.3654 7.22466 23.464C6.45107 23.6146 6.16263 23.8492 5.93991 24.0829C5.84498 24.1828 5.76191 24.2823 5.65831 24.3754C5.36257 24.6406 4.89933 24.8505 3.50641 24.8515C4.93264 23.9843 5.18001 23.5859 5.28635 22.1199C5.35755 21.1433 5.36713 20.0452 5.23067 18.9631C5.04811 17.5181 4.60678 16.1019 3.70494 15.0417L2.2705 9.38243C2.25543 8.97897 2.18424 8.57187 2.12673 8.20858L2.12901 8.20493ZM2.6703 4.01569C3.05504 4.25621 2.9382 4.1809 3.24627 4.59166C3.44343 3.77745 4.33705 1.42656 4.9048 1.03178C5.43468 0.662102 7.30818 0.789435 7.95945 0.857438C7.01426 0.548003 6.05537 0.309765 5.04446 0.525639C3.86012 0.78122 3.69216 2.52328 2.67121 4.01706L2.6703 4.01569ZM4.0162 4.28952C3.69216 4.52913 3.71133 4.77695 3.57578 5.26529C3.45575 5.69796 2.81041 7.36014 3.35808 7.7887C3.58628 7.96669 4.37584 7.70427 4.6652 7.6317C4.89339 7.53084 5.4292 7.34189 5.55425 7.09589C5.68798 6.83255 5.64553 4.3808 5.63732 4.27629C5.61632 3.9454 5.4397 3.7131 5.10972 3.74459C4.86784 3.76786 4.0801 4.24206 4.01438 4.28952H4.0162ZM6.84265 4.50996C6.8139 5.23289 6.73631 6.83757 6.88829 7.11506C7.05533 7.42267 8.01741 7.60112 8.32822 7.63854C8.97858 7.7175 9.20449 7.35512 9.14014 6.74812C9.12234 6.58427 8.76362 4.55743 8.66869 4.46158C8.46285 4.25484 7.59205 3.53373 7.15894 3.77197C6.91339 3.90478 6.85224 4.26168 6.84265 4.50905V4.50996Z" fill="#1E2525"/>
<path fill-rule="evenodd" clip-rule="evenodd" d="M3.24622 4.59176C2.93816 4.18101 3.05499 4.25631 2.67025 4.01579C3.69212 2.52201 3.86007 0.779957 5.0435 0.524376C6.05442 0.30622 7.0133 0.546739 7.9585 0.856175C7.30722 0.788172 5.43372 0.660838 4.90385 1.03052C4.33701 1.42667 3.4411 3.77756 3.24622 4.59176Z" fill="#666666"/>
<path fill-rule="evenodd" clip-rule="evenodd" d="M4.01608 4.28864C4.07998 4.243 4.86771 3.76698 5.11143 3.7437C5.4414 3.71221 5.61803 3.94451 5.63902 4.2754C5.64541 4.37991 5.68968 6.83121 5.55596 7.095C5.4309 7.341 4.89601 7.52995 4.6669 7.63081C4.37754 7.70338 3.58707 7.9658 3.35979 7.78781C2.81211 7.35926 3.45745 5.69707 3.57749 5.26441C3.7144 4.77606 3.69387 4.52824 4.01791 4.28864H4.01608ZM4.86132 4.27631C4.71528 4.34888 4.03479 4.65695 3.9677 4.75142L3.47982 6.66828C3.4214 7.00646 3.41912 7.18035 3.50264 7.23877C3.75548 7.60388 5.11508 7.17715 5.27025 6.84809C5.34784 6.6806 5.31863 4.29229 5.31863 4.29229C5.27208 4.02758 4.98409 4.20055 4.86132 4.27631Z" fill="#CCCCCC"/>
<path fill-rule="evenodd" clip-rule="evenodd" d="M4.83304 6.82478C4.89374 6.68786 4.86134 4.56608 4.86134 4.27536C4.98411 4.20051 5.27209 4.02754 5.31773 4.28859C5.31773 4.28859 5.34694 6.67919 5.26935 6.8444L4.83304 6.82478Z" fill="#666666"/>
<path fill-rule="evenodd" clip-rule="evenodd" d="M3.73267 7.23421C3.93075 7.17488 4.71255 6.9832 4.83076 6.82894C4.83188 6.8278 4.83267 6.82638 4.83304 6.82483L5.27026 6.84765C5.11509 7.17671 3.75549 7.60161 3.50265 7.23832C3.54966 7.27118 3.62359 7.26708 3.73267 7.23421Z" fill="#999999"/>
<path fill-rule="evenodd" clip-rule="evenodd" d="M8.3245 7.63754C8.01369 7.60012 7.05161 7.42167 6.88457 7.11406C6.73488 6.84022 6.81246 5.23189 6.83893 4.50896C6.84852 4.26159 6.90967 3.90469 7.15293 3.77097C7.5897 3.53273 8.46141 4.25383 8.66634 4.45875C8.76127 4.55368 9.11999 6.58144 9.13779 6.74529C9.20214 7.35229 8.97623 7.71467 8.32587 7.63572L8.3245 7.63754ZM7.13787 6.82607C7.26521 6.97851 7.39528 6.99494 7.7143 7.07891C7.96121 7.14418 8.11638 7.18891 8.21085 7.18389C8.32828 7.21538 8.45015 7.22695 8.57141 7.21811L8.64397 7.28292C8.86167 7.21857 8.95478 7.14235 8.93743 6.87217L8.80052 6.9032C8.77724 6.36785 8.38976 4.71525 8.37151 4.676C8.36176 4.65925 8.34978 4.64389 8.33591 4.63036C8.19123 4.47473 7.72251 4.2018 7.59563 4.1411C7.36424 4.0302 7.30172 4.19861 7.18899 4.40901C7.09223 4.87499 7.14107 6.26425 7.13787 6.82607Z" fill="#CCCCCC"/>
<path fill-rule="evenodd" clip-rule="evenodd" d="M8.32455 6.74712C8.30447 6.53764 8.05071 4.9357 7.97541 4.85354L8.33687 4.62946C8.35075 4.64299 8.36272 4.65834 8.37247 4.67509C8.39255 4.71434 8.77821 6.36695 8.80148 6.9023C8.80477 6.9459 8.80263 6.98975 8.79509 7.03283C8.76588 7.15286 8.67689 7.20261 8.571 7.21539C8.44975 7.22422 8.32787 7.21265 8.21045 7.18116C8.35056 7.17705 8.3565 7.06249 8.32455 6.74712Z" fill="#666666"/>
<path fill-rule="evenodd" clip-rule="evenodd" d="M7.97667 4.85361C7.86349 4.72491 7.34548 4.36984 7.19122 4.40817C7.30395 4.19778 7.36647 4.02937 7.59786 4.14027C7.72474 4.20097 8.19346 4.47389 8.33813 4.62953L7.97667 4.85361Z" fill="#999999"/>
<path fill-rule="evenodd" clip-rule="evenodd" d="M8.79643 7.03376C8.80396 6.99068 8.80611 6.94683 8.80282 6.90323L8.93974 6.87219C8.95708 7.14238 8.86397 7.2186 8.64627 7.28295L8.57371 7.21814C8.67822 7.20353 8.76722 7.15379 8.79643 7.03376Z" fill="#E5E5E5"/>
<path fill-rule="evenodd" clip-rule="evenodd" d="M10.5608 17.2648C9.99262 13.7546 9.43217 8.03282 10.5184 4.60028C10.5467 4.63314 10.5759 4.66463 10.6051 4.6943C9.54901 8.13414 10.1058 13.8016 10.6699 17.2876C10.8721 18.5372 11.6649 21.8561 11.6251 22.9925C11.5854 22.9692 11.5603 22.925 11.5211 22.8332C11.569 21.7142 10.7639 18.5212 10.5608 17.2648Z" fill="black"/>
<path fill-rule="evenodd" clip-rule="evenodd" d="M10.6694 17.2876C10.1044 13.8017 9.5485 8.13418 10.6064 4.69434C10.781 4.86737 10.977 5.01737 11.1897 5.14069C11.6789 6.23877 11.851 6.08908 12.5872 6.56418C14.3671 7.71521 13.9107 9.02871 14.285 10.7443C14.0869 11.6927 13.7797 12.5553 13.7898 13.1801C13.4959 14.5556 13.3416 14.7934 13.7565 16.2347C14.0613 17.2936 14.7518 18.9872 15.2753 19.9703L15.5715 20.4938C15.3388 21.1209 14.8783 21.69 14.1207 22.2582C13.6592 22.6037 12.6994 22.9884 12.1481 23.061C11.8145 23.0076 11.6958 23.0355 11.6237 22.9935C11.6643 21.8561 10.8716 18.5372 10.6694 17.2876Z" fill="#191919"/>
<path fill-rule="evenodd" clip-rule="evenodd" d="M14.2832 10.7442C13.9107 9.02865 14.3676 7.71515 12.5854 6.56412C11.8492 6.08901 11.6772 6.23871 11.1879 5.14062C11.7219 5.46558 12.4001 5.77045 13.3882 6.75626C14.6227 7.98579 14.5547 9.44534 14.2832 10.7442Z" fill="#8370DC"/>
<path fill-rule="evenodd" clip-rule="evenodd" d="M13.8423 13.5465C14.0336 14.1453 15.0363 16.1398 15.5004 17.8234C15.7889 18.869 15.8523 19.7247 15.5698 20.4938L15.2736 19.9703C14.7501 18.9872 14.0596 17.2935 13.7547 16.2347C13.3398 14.7934 13.4941 14.5556 13.788 13.1801C13.788 13.3042 13.8063 13.4277 13.8423 13.5465Z" fill="#8370DC"/>
<path fill-rule="evenodd" clip-rule="evenodd" d="M16.1813 22.0128C17.5094 21.9028 19.3875 22.4605 20.6723 22.8343L20.9817 23.6731C18.0316 23.3107 17.3953 23.7968 16.5971 23.8908C16.4591 23.9073 16.3199 23.9104 16.1813 23.9C15.4926 23.8488 12.9478 23.4052 12.1651 23.2368C13.2253 23.125 13.908 22.8603 14.4667 22.5645C15.0737 22.3144 15.5383 22.0662 16.1813 22.0128Z" fill="#333333"/>
<path fill-rule="evenodd" clip-rule="evenodd" d="M20.6722 22.8333C19.3875 22.4604 17.5094 21.9027 16.1813 22.0118C15.5383 22.0652 15.0737 22.3135 14.468 22.5595C15.4264 22.0529 16.0198 21.455 17.5259 21.3811C18.6472 21.3263 20.073 21.8493 20.5632 22.5335L20.6722 22.8333Z" fill="#8370DC"/>
</svg>
