<svg width="40" height="27" viewBox="0 0 40 27" fill="none" xmlns="http://www.w3.org/2000/svg">
<rect x="32.4" y="24.84" width="1.08" height="1.08" fill="#F7A491"/>
<path d="M2.37354 26.4066H13.3516L13.3516 1.48354H2.37354L2.37354 26.4066Z" fill="#62559D"/>
<path d="M8.90103 26.4066H9.79114L9.79114 2.28882e-05H8.90103L8.90103 26.4066Z" fill="#A491FF"/>
<path d="M8.89628 0.00012207C8.89628 0.0673272 8.90113 26.4067 8.90113 26.4067H2.37366V1.45629L8.89628 0.00012207Z" fill="#8370DC"/>
<path d="M3.26367 3.77396L3.29624 10.6319C3.32375 10.6287 3.35145 10.627 3.37917 10.627C3.55558 10.6273 3.72469 10.6956 3.84959 10.817C3.97449 10.9384 4.04504 11.103 4.04585 11.2748L7.72116 10.8342C7.72047 10.6748 7.77979 10.5208 7.88787 10.4012C7.99596 10.2817 8.14531 10.2048 8.30763 10.1854L8.27455 3.00734C8.22844 3.01689 8.18144 3.02171 8.1343 3.02171C7.9579 3.02128 7.78883 2.95291 7.66397 2.83152C7.53911 2.71013 7.46859 2.54556 7.46779 2.37372L3.79281 3.13373C3.7937 3.28347 3.74155 3.42892 3.64516 3.54556C3.54876 3.66219 3.41402 3.74286 3.26367 3.77396ZM3.52146 3.95125C3.64677 3.89262 3.75705 3.80746 3.84423 3.70197C3.93141 3.59649 3.99328 3.47336 4.02533 3.34158L7.26461 2.67112C7.32203 2.82821 7.42293 2.96678 7.55615 3.07149C7.68937 3.1762 7.84973 3.24297 8.01948 3.26442L8.05052 9.99221C7.91422 10.0447 7.79266 10.128 7.69582 10.2352C7.59897 10.3424 7.5296 10.4704 7.4934 10.6088L4.25683 10.9974C4.20516 10.8447 4.11262 10.7081 3.98876 10.6019C3.8649 10.4956 3.71419 10.4234 3.55215 10.3927L3.52146 3.95125Z" fill="#6353AF"/>
<path d="M3.26367 16.4751L3.27882 24.851H3.28004C3.4618 24.851 3.63613 24.9211 3.76477 25.0459C3.89341 25.1707 3.96584 25.3401 3.96616 25.5167L4.9524 25.5149C4.95245 25.3382 5.02459 25.1688 5.15299 25.0438C5.2814 24.9188 5.45557 24.8484 5.6373 24.8481V16.3899C5.61727 16.3916 5.59724 16.3924 5.57738 16.3924C5.39561 16.3921 5.22138 16.3217 5.09295 16.1967C4.96451 16.0717 4.89236 15.9022 4.89231 15.7255L3.89074 15.8102C3.89085 15.9772 3.82649 16.1382 3.71038 16.2613C3.59427 16.3844 3.43486 16.4607 3.26367 16.4751ZM3.52791 16.6783C3.67152 16.6267 3.80038 16.5425 3.90378 16.4327C4.00718 16.323 4.08213 16.1908 4.1224 16.0472L4.67179 16.0013C4.72191 16.1564 4.81313 16.2959 4.93628 16.4059C5.05944 16.5159 5.21019 16.5924 5.37341 16.6278V24.6282C5.21969 24.672 5.0798 24.7528 4.96662 24.863C4.85345 24.9732 4.77063 25.1094 4.72579 25.2589L4.19225 25.2597C4.14701 25.1102 4.06377 24.9741 3.95019 24.8641C3.83661 24.7541 3.69636 24.6737 3.54237 24.6302L3.52791 16.6783Z" fill="#6353AF"/>
<path d="M5.93408 16.1719V24.8445H5.93521C6.10349 24.8445 6.26487 24.9153 6.38386 25.0413C6.50285 25.1673 6.56969 25.3383 6.56969 25.5165L7.31467 25.5151C7.31595 25.338 7.3832 25.1686 7.50181 25.0437C7.62041 24.9188 7.78078 24.8485 7.94802 24.8482L8.01101 16.1032C7.99248 16.1049 7.97395 16.1057 7.95559 16.1057C7.87195 16.1056 7.78917 16.0879 7.71199 16.0538C7.63482 16.0196 7.56478 15.9696 7.50591 15.9067C7.44703 15.8438 7.40048 15.7691 7.36894 15.6871C7.33739 15.605 7.32146 15.5172 7.32208 15.4286L6.51412 15.5023C6.5141 15.6705 6.45452 15.8327 6.34712 15.9567C6.23973 16.0806 6.09235 16.1575 5.93408 16.1719ZM6.17812 16.3782C6.31198 16.3278 6.43218 16.2435 6.52822 16.1327C6.62427 16.0218 6.69326 15.8877 6.72916 15.7422L7.11574 15.7069C7.16151 15.8639 7.24563 16.0054 7.35959 16.117C7.47354 16.2286 7.6133 16.3063 7.76472 16.3424L7.70496 24.6264C7.5634 24.6705 7.43448 24.7513 7.32989 24.8616C7.22531 24.9718 7.14837 25.108 7.10607 25.2577H6.77845C6.73684 25.1068 6.65995 24.9694 6.5549 24.8583C6.44985 24.7472 6.32003 24.666 6.17747 24.6222L6.17812 16.3782Z" fill="#6353AF"/>
<path d="M7.41755 13.6485C7.58142 13.6485 7.71426 13.4493 7.71426 13.2035C7.71426 12.9577 7.58142 12.7584 7.41755 12.7584C7.25369 12.7584 7.12085 12.9577 7.12085 13.2035C7.12085 13.4493 7.25369 13.6485 7.41755 13.6485Z" fill="#3C3C3C"/>
<path d="M7.12085 13.0551V13.3518H7.68821C7.7058 13.2989 7.71454 13.2447 7.71425 13.1903C7.71438 13.1449 7.70828 13.0996 7.69604 13.0551H7.12085Z" fill="white"/>
<path d="M6.52747 13.2035C6.52747 13.6132 6.72644 13.9453 6.97252 13.9453C7.2186 13.9453 7.41758 13.6132 7.41758 13.2035C7.41758 12.7937 7.2186 12.4618 6.97252 12.4618C6.72644 12.4618 6.52747 12.7939 6.52747 13.2035Z" fill="#FAE0B2"/>
<path d="M6.97252 13.9453C7.21832 13.9453 7.41758 13.6132 7.41758 13.2036C7.41758 12.7939 7.21832 12.4618 6.97252 12.4618C6.72672 12.4618 6.52747 12.7939 6.52747 13.2036C6.52747 13.6132 6.72672 13.9453 6.97252 13.9453Z" fill="#9C9C9C"/>
<path d="M0.179711 27H39.2818C39.3811 27 39.4615 26.867 39.4615 26.7033C39.4615 26.5397 39.3811 26.4066 39.2818 26.4066H0.179711C0.0804316 26.4066 0 26.5397 0 26.7033C0 26.867 0.0804316 27 0.179711 27Z" fill="#8F8F8F"/>
<path d="M34.8172 25.28C34.8172 25.28 34.8198 25.3062 34.8198 25.35C34.8198 25.481 34.7962 25.7699 34.6064 25.9828C34.3533 26.267 34.3518 26.6204 34.6192 26.6807C34.8867 26.7411 35.5243 26.6615 35.5243 26.6615C35.5243 26.6615 35.6685 26.3912 35.57 25.6693C35.4716 24.9474 35.4143 24.1555 35.4143 24.1555L34.6878 24.033L34.8172 25.28Z" fill="#F7A491"/>
<path d="M34.5174 25.5496C34.5174 25.5496 34.2324 25.8866 34.1656 26.0277C34.0989 26.1687 34.1133 26.5179 34.1656 26.5539C34.6265 26.8709 35.5005 26.5857 35.5005 26.5857C35.542 26.4148 35.5722 26.2419 35.5909 26.0679C35.6212 25.7825 35.6041 25.5167 35.5005 25.5167C35.3969 25.5167 35.3787 25.6661 35.142 25.624C34.9054 25.5819 34.7599 25.5073 34.5174 25.5496Z" fill="#494949"/>
<path d="M35.6044 26.4066C35.4229 26.4425 35.1763 26.4855 34.9473 26.5023C34.702 26.5202 34.3734 26.4643 34.1249 26.4082C34.1121 26.498 34.1305 26.5987 34.1666 26.6134C34.6374 26.8039 35.5303 26.6325 35.5303 26.6325C35.5303 26.6325 35.5723 26.5368 35.6044 26.4066Z" fill="white"/>
<path d="M27.2809 13.4243C27.4608 13.4943 27.7003 13.5979 27.7003 13.5979C27.7313 13.5212 27.1359 13.3901 27.0525 13.2034C27.0076 13.1035 27.7357 13.4715 27.7862 13.4275C27.8071 13.4093 26.9628 13.1261 27.0013 13.0579C27.034 13.0004 27.8891 13.3106 27.8938 13.268C27.9003 13.2082 27.1535 13.0538 27.2204 12.9679C27.2546 12.9239 28.161 13.1765 28.2588 13.1911C28.3785 13.1911 27.9455 12.8879 28.093 12.8476C28.2933 12.7925 28.7961 13.3868 28.8355 13.3952C28.95 13.4195 29.9191 13.5418 30.3938 13.2218C30.7771 12.9635 31.1491 12.5661 31.2402 12.224C31.3295 11.8886 31.4528 11.4094 31.3475 11.0399C31.7794 10.9725 32.1978 10.9565 32.6366 11.0106C32.6632 11.5656 32.0183 13.7649 31.7486 13.9458C31.1553 14.344 30.097 14.2466 29.3507 14.1832C28.7492 14.1327 28.1602 14.0102 27.6184 13.7269C27.4974 13.6636 27.3352 13.5922 27.2415 13.4825C27.2362 13.4764 27.233 13.4686 27.2325 13.4604C27.232 13.4521 27.2342 13.444 27.2388 13.4373C27.2433 13.4305 27.25 13.4256 27.2577 13.4232C27.2653 13.4209 27.2735 13.4213 27.2809 13.4243Z" fill="#F7A491"/>
<path d="M31.6599 9.26122C31.3652 9.59976 31.0675 11.6282 31.177 12.1116C31.3663 12.5044 32.2228 12.5721 32.4998 12.7583C33.1389 12.4663 32.7011 11.156 32.7011 11.156L32.934 8.60449C32.934 8.60449 32.2215 8.61633 31.6599 9.26122Z" fill="#D5D5D5"/>
<path d="M33.658 25.7114C33.658 25.7114 33.6942 25.8642 33.7772 26.1257C33.8266 26.2898 33.8373 26.4628 33.8083 26.6316C33.8083 26.6316 31.0358 26.7597 30.9236 26.674C30.8115 26.5883 30.869 26.2762 30.8974 26.2496C30.9257 26.2229 31.2777 26.1291 31.458 26.0204C31.6384 25.9118 32.2548 25.5006 32.463 25.5172C32.6711 25.5339 32.7673 25.6839 33.1628 25.7011C33.5582 25.7182 33.5598 25.6366 33.658 25.7114Z" fill="#494949"/>
<path d="M30.9236 26.6653C31.0358 26.7761 33.808 26.6099 33.808 26.6099C33.8286 26.4541 33.8296 26.2952 33.8108 26.139C32.3637 26.4806 30.8974 26.11 30.8974 26.11C30.869 26.1457 30.8115 26.5531 30.9236 26.6653Z" fill="white"/>
<path d="M35.7227 15.382C36.1808 17.0785 35.6122 24.6905 35.6122 24.6905L34.2411 24.5955C34.2411 24.5955 33.9292 17.0234 33.7028 16.7942C33.6367 16.7263 33.5655 16.7484 33.5109 16.7864C33.4563 16.8257 33.4163 16.8826 33.3974 16.9477C33.2565 17.415 32.4499 20.1346 32.6125 20.7309C32.7905 21.3831 33.585 24.8767 33.585 24.8767L32.4345 24.9231C32.4345 24.9231 30.8572 22.2542 30.8572 20.3909C30.8572 18.5277 31.1137 16.0579 31.8591 15.0529C32.1983 14.5949 33.8683 14.2418 33.8683 14.2418C33.8683 14.2418 35.5799 14.8517 35.7227 15.382Z" fill="#8370DC"/>
<path d="M33.2176 24.8731C33.2176 24.8731 32.5169 21.1285 32.3597 20.4296C32.2457 19.9219 32.6723 17.9748 32.9144 16.9466C32.9311 16.8753 32.9629 16.81 33.0068 16.7563C33.0507 16.7026 33.1054 16.6622 33.166 16.6387C33.2266 16.6152 33.2913 16.6094 33.3544 16.6217C33.4175 16.634 33.4769 16.664 33.5275 16.7092C33.5275 16.7092 32.5028 20.0532 32.6599 20.7088C32.8169 21.3644 33.5178 24.8764 33.5178 24.8764L32.5028 24.9231C32.5028 24.9231 32.5002 24.9182 32.4954 24.9088L33.2176 24.8731Z" fill="#62559D"/>
<path d="M35.4639 15.132C35.6027 15.2465 35.7031 15.3642 35.7327 15.4781C36.1652 17.1454 35.6283 24.6265 35.6283 24.6265L35.3077 24.6035C35.3259 24.3328 35.7907 17.2916 35.4639 15.132Z" fill="#62559D"/>
<path d="M31.7473 15.6353C31.8183 15.5029 31.9051 15.3771 32.0063 15.2598C32.0531 15.2102 32.1086 15.167 32.171 15.132C32.3584 15.2134 32.6176 15.3022 32.9761 15.3959C34.0572 15.6785 35.2226 15.5279 35.7069 15.3845C35.7519 15.427 35.7856 15.4772 35.8057 15.5318C35.8448 15.6533 35.8763 15.8118 35.9012 15.9991C35.6594 16.152 34.2544 16.5213 32.9754 16.1754C32.1646 15.9559 31.8621 15.8229 31.7473 15.6353Z" fill="#62559D"/>
<path d="M35.746 25.4196C35.3757 25.5666 34.4855 25.5302 34.2729 25.4196C34.0768 25.3179 34.0636 24.4265 34.2729 24.378C34.567 24.3101 35.4013 24.3177 35.746 24.378C35.9569 24.4144 35.9486 25.3393 35.746 25.4196Z" fill="#5D70A2"/>
<path d="M33.6691 24.8505C33.2988 24.9605 32.4086 24.9332 32.196 24.8505C31.9999 24.774 31.9867 24.1055 32.196 24.0691C32.4901 24.0182 33.3244 24.0239 33.6691 24.0691C33.88 24.0968 33.8717 24.7902 33.6691 24.8505Z" fill="#5D70A2"/>
<path d="M34.1557 8.37941C34.1557 8.37941 35.3332 8.31905 35.8145 8.8877C36.2959 9.45634 36.2564 15.4313 36.0616 15.5979C35.8668 15.7645 34.1935 16.2685 32.8644 15.876C31.5352 15.4834 31.4506 14.9454 31.4506 14.9454C31.4506 14.9454 31.8042 10.9272 31.8042 9.82896C31.8042 8.73071 32.8794 8.08383 34.1557 8.37941Z" fill="#EAEAEA"/>
<path d="M35.1369 14.3809C35.249 14.0956 35.1288 13.1883 35.0006 12.5318C34.9001 12.5488 34.8035 12.57 34.7123 12.594C34.5582 12.1597 34.4223 11.0327 34.4177 10.3244C34.4093 8.99538 35.1486 8.60889 35.1486 8.60889C35.2951 8.57845 35.5294 8.70394 35.896 9.05098C36.3196 10.1052 36.2309 15.0077 36.0324 15.1626C35.9478 15.2287 35.7822 15.6431 35.3557 15.7254C35.2447 15.3292 35.0326 14.6446 35.1369 14.3809Z" fill="#D5D5D5"/>
<path d="M34.2311 8.39457C34.4685 8.61843 34.4876 8.62271 34.2404 8.91648C33.9931 9.21025 33.1773 9.54415 33.0607 9.48856C32.7722 9.34858 33.0407 8.88111 33.2332 8.54491C33.2932 8.43914 33.9939 8.17054 34.2311 8.39457Z" fill="#D5D5D5"/>
<path d="M32.9648 7.5216C32.9648 7.5216 32.8956 9.11791 32.9648 9.18838C33.0341 9.25886 34.0233 8.92092 34.1098 8.72274C34.1963 8.52456 33.7494 5.63745 33.7494 5.63745L32.9648 7.5216Z" fill="#F7A491"/>
<path opacity="0.6" d="M32.9341 8.60458C33.1745 8.57518 33.3815 8.53366 33.4422 8.48697C33.9972 8.06158 33.5814 7.37108 33.625 7.19159C33.7119 6.83422 33.8887 6.53905 33.7999 6.23096L32.975 7.60292C32.975 7.60292 32.9407 8.15222 32.9341 8.60458Z" fill="#D29E92"/>
<path d="M27.9058 9.35662C27.8451 9.62096 27.9713 9.87747 28.1034 9.7638C28.1345 9.73604 28.1586 9.68953 28.1711 9.63311C28.232 9.3685 28.1056 9.11172 27.9733 9.22593C27.9423 9.25371 27.9183 9.30022 27.9058 9.35662Z" fill="#00424C"/>
<path d="M28.0469 9.43592L28.074 9.49467L28.0905 9.42435C28.112 9.33275 28.2945 8.5237 28.093 8.33906C28.0335 8.28451 27.9774 8.30216 27.9392 8.38681C27.8511 8.58231 27.8785 9.07214 28.0469 9.43592ZM27.9793 8.44498C27.9981 8.40389 28.0209 8.39101 28.0492 8.40649C28.0563 8.41029 28.0631 8.41514 28.0695 8.42096C28.1917 8.53282 28.1147 9.04855 28.0594 9.31408C27.9249 8.97808 27.9194 8.57768 27.9793 8.44498Z" fill="#00424C"/>
<path d="M28.1868 9.46175L28.2542 9.47606C28.3142 9.48834 28.3753 9.49453 28.4366 9.49453C28.737 9.49453 28.9992 9.34736 29.0626 9.17744C29.0964 9.08711 29.0695 9.00121 28.9888 8.94166C28.7195 8.7431 28.2793 9.33491 28.2295 9.4032L28.1868 9.46175ZM28.341 9.3979C28.4669 9.23914 28.7003 8.99148 28.8636 8.99148C28.8922 8.99104 28.9202 8.99988 28.9427 9.01653C28.9903 9.05175 29.0046 9.09298 28.9861 9.14251C28.9365 9.27722 28.6606 9.43426 28.341 9.3979Z" fill="#00424C"/>
<path d="M25.6616 13.6486H30.1186C30.3626 13.6486 30.5604 13.4447 30.5604 13.1932V9.9501C30.5604 9.6986 30.3626 9.49471 30.1186 9.49471H25.6616C25.4176 9.49471 25.2198 9.6986 25.2198 9.9501V13.1932C25.2198 13.4447 25.4176 13.6486 25.6616 13.6486Z" fill="#A491FF"/>
<path d="M25.5792 9.49469H27.2966V13.6485H25.5792C25.3807 13.6485 25.2197 13.3907 25.2197 13.0728V10.0703C25.2197 9.75239 25.3807 9.49469 25.5792 9.49469Z" fill="#8370DC"/>
<path d="M28.7803 9.49469H28.9275C29.7237 10.8203 29.2358 13.1422 29.1159 13.6485H29.0009C29.0832 13.3065 29.6521 10.7818 28.7871 9.50683C28.7845 9.50295 28.7822 9.49889 28.7803 9.49469Z" fill="#00424C"/>
<path d="M26.3716 13.6328C26.3724 13.638 26.3729 13.6433 26.3729 13.6485H26.2519C25.8962 11.2818 26.2889 10.0299 26.554 9.49469H26.7033C26.4622 9.94221 25.9995 11.1755 26.3716 13.6328Z" fill="#00424C"/>
<path d="M34.2445 18.0991H37.8544C37.9227 18.0991 37.978 18.0483 37.978 17.9858V15.8387C37.978 15.7762 37.9227 15.7254 37.8544 15.7254H34.2445C34.1762 15.7254 34.1209 15.7762 34.1209 15.8387V17.9858C34.1209 18.0483 34.1762 18.0991 34.2445 18.0991Z" fill="#594B9E"/>
<path d="M34.4176 17.8022H37.3846V15.7253H34.4176V17.8022Z" fill="white"/>
<path d="M34.181 17.2089H34.3575C34.3907 17.2089 34.4176 17.1845 34.4176 17.1544V16.3733C34.4176 16.3432 34.3907 16.3188 34.3575 16.3188H34.181C34.1478 16.3188 34.1209 16.3432 34.1209 16.3733V17.1544C34.1209 17.1845 34.1478 17.2089 34.181 17.2089Z" fill="#343434"/>
<path d="M35.5312 14.4172C35.3077 15.1079 36.0945 16.6015 35.7749 17.0801C35.4554 17.5586 35.6162 18.0603 36.0034 18.3092C36.3905 18.558 36.872 18.2092 36.8331 18.0197C36.7942 17.8301 36.6899 17.3202 36.6421 17.087C36.5943 16.8537 37.495 14.9853 36.8611 13.8521C36.4848 13.18 37.041 12.0224 36.7473 11.2747C36.4843 11.7728 35.2392 11.4616 35.3107 12.008C35.4243 12.4748 35.6567 14.0289 35.5312 14.4172Z" fill="#F7A491"/>
<path d="M32.492 6.00959C32.492 6.00959 32.3407 6.57561 32.3407 7.03983C32.3407 7.50405 32.3509 8.30771 32.6532 8.30771C32.9555 8.30771 33.389 8.21715 33.4897 7.56056C33.5905 6.90398 33.4897 6.17948 33.1874 6.00959C32.8851 5.8397 32.492 6.00959 32.492 6.00959Z" fill="#F7A491"/>
<path d="M32.6118 6.40332C32.7063 6.36836 32.8042 6.44389 32.7861 6.53643C32.757 6.68478 32.7642 6.8474 32.9195 6.88124C33.2182 6.94651 33.3593 6.88124 33.4082 6.92647C33.4572 6.97169 33.267 7.21242 33.4082 7.25764C33.5495 7.30287 33.6256 6.8713 33.7504 6.8713C33.8751 6.8713 33.9026 7.49356 33.7504 7.63405C33.5981 7.77454 33.7721 7.96523 33.973 7.96523C34.174 7.96523 33.9478 8.19104 34.2183 8.26625C34.4889 8.34147 34.7064 8.34147 34.7932 8.03547C34.88 7.72947 34.7932 7.55867 34.7932 7.55867C34.7932 7.55867 35.0698 7.26999 34.9995 6.9834C34.9606 6.82431 34.7806 6.53835 34.7806 6.53835C34.7806 6.53835 34.6411 6.19884 34.6031 6.00318C34.5651 5.80752 34.0265 5.6117 33.6577 5.57657C33.2888 5.54145 33.4733 5.34082 33.1639 5.34082C32.8544 5.34082 32.8117 5.70648 32.8117 5.70648C32.8117 5.70648 32.3696 5.47008 32.3491 5.48195C32.0918 5.62212 32.3057 5.8683 32.3057 5.8683C32.3057 5.8683 32.0938 5.88835 32.0504 6.1342C32.007 6.38006 32.1861 6.53066 32.4685 6.45031C32.5222 6.43459 32.5697 6.41887 32.6118 6.40332Z" fill="#524A74"/>
<path d="M33.5587 6.70388C33.5587 6.70388 33.6719 6.41549 33.7726 6.57642C33.8733 6.73734 33.8206 7.4177 33.6657 7.4177C33.5107 7.4177 33.5038 6.88623 33.5587 6.70388Z" fill="#F7A491"/>
<path d="M35.0831 8.63539C35.0831 8.63539 34.7077 8.92493 34.7144 10.2048C34.718 10.8872 34.9157 12.0434 35.0377 12.4616C35.5433 12.2997 36.2562 12.2892 36.7726 12.4616C36.8421 11.9032 36.7016 10.7115 36.6139 10.3264C36.3983 9.37955 35.6196 8.41873 35.0831 8.63539Z" fill="#EAEAEA"/>
<path d="M12.3169 24.6903C12.3169 24.6903 12.0737 24.9254 12.0681 25.0116C12.0625 25.0979 12.0465 26.0216 12.1458 26.1079C12.245 26.1942 12.537 26.2553 12.4432 26.3522C12.3732 26.4256 11.8268 26.4099 11.4652 26.3903C11.3602 26.3844 11.2272 25.5512 11.1852 25.4287C11.1245 25.2509 10.9327 24.8034 10.9879 24.6794C11.0148 24.6191 11.1877 24.5417 11.369 24.4259C11.5597 24.3041 11.7422 24.033 11.7422 24.033L12.3169 24.6903Z" fill="#F7A491"/>
<path d="M15.4232 25.2333C15.4232 25.2333 15.2102 25.8659 15.21 25.8675C15.1941 25.9678 15.1318 26.2154 15.1318 26.3064C15.1318 26.6488 16.5995 26.016 16.2706 25.8643C16.2408 25.8504 16.1474 25.74 16.1377 25.6243C16.1225 25.4449 16.2612 25.2198 16.2612 25.2198L15.4232 25.2333Z" fill="#F7A491"/>
<path d="M15.273 14.5268L14.5423 15.4064L13.826 20.0085L11.5714 24.3016C11.5714 24.3016 11.9104 24.8388 12.2744 24.9232L15.4745 20.5841L17.2088 15.152L17.1479 13.9452L15.273 14.5268Z" fill="#184655"/>
<path d="M17.1775 13.6486L17.6989 15.25C17.6989 15.25 18.1575 20.0199 18.0926 20.3494C17.9333 21.1509 16.3239 25.5167 16.3239 25.5167L15.2927 25.3858L16.4237 20.2242L14.5385 15.3752L17.1775 13.6486Z" fill="#355389"/>
<path d="M22.0293 8.44928C21.7912 8.7056 21.843 8.73634 21.8116 8.76838C21.7745 8.80625 21.0839 8.94994 21.0839 8.94994C21.0839 8.94994 19.0515 9.38685 18.9408 9.40659L16.8325 8.93845L16.3186 9.93574C16.3186 9.93574 18.6248 10.3828 18.7492 10.3848C18.8735 10.3867 21.5495 9.46922 21.7879 9.39624C21.7879 9.39624 22.1047 9.4163 22.3041 9.42229C22.5036 9.42828 22.694 9.34365 22.7504 9.33653C22.8931 9.30693 23.0313 9.25956 23.1617 9.19558C23.3487 9.10496 23.1295 9.10318 23.1295 9.10318C23.1295 9.10318 22.7527 9.20723 22.7494 9.17552C22.7469 9.15108 22.9561 9.10658 23.1638 9.00852C23.2174 8.98328 23.2701 8.9582 23.3183 8.93489C23.4448 8.8734 23.443 8.77631 23.3002 8.81903C23.2352 8.83774 23.1717 8.86117 23.1103 8.8891C23.0493 8.91936 22.9835 8.92697 22.9279 8.94428C22.8185 8.97859 22.7391 9.00512 22.7401 8.99978C22.7411 8.99444 22.7147 8.9836 22.7706 8.95528C22.8379 8.92098 22.9969 8.88052 23.0919 8.82211C23.1458 8.78974 23.2624 8.72696 23.2624 8.72696C23.2624 8.72696 23.4572 8.60268 23.4382 8.57695C23.3967 8.52096 23.2606 8.57695 23.1933 8.63246C23.1327 8.64475 23.0118 8.71337 23.0118 8.71337C23.0118 8.71337 22.736 8.79638 22.7234 8.75673C22.7182 8.74055 22.8606 8.65964 23.0027 8.56417C23.153 8.46239 23.2563 8.3818 23.2419 8.34911C23.2192 8.29701 23.0927 8.36934 23.0927 8.36934C23.0927 8.36934 22.9811 8.43407 22.9424 8.45154C22.8971 8.4729 22.7562 8.52647 22.7562 8.52647C22.7562 8.52647 22.2572 8.68958 22.2484 8.6509C22.2396 8.61223 22.2559 8.50527 22.2832 8.48358C22.3106 8.4619 22.3809 8.45122 22.4082 8.42986C22.4356 8.4085 22.49 8.35801 22.4667 8.32144C22.4435 8.28487 22.2358 8.33374 22.2358 8.33374C22.2358 8.33374 22.0979 8.37533 22.0293 8.44928Z" fill="#F8A492"/>
<path d="M17.5055 9.04814C17.5055 9.04814 17.4347 9.5023 17.3891 9.6705C17.3512 9.81028 17.0849 10.3847 17.0849 10.3847C17.0849 10.3847 16.1299 10.0596 15.6791 9.87353C15.132 9.64796 14.4992 9.16185 14.5404 9.09978C14.6556 8.9272 14.8418 8.72551 15.1043 8.65739C16.0124 8.42207 17.5055 9.04814 17.5055 9.04814Z" fill="#EAEAEA"/>
<path d="M17.5056 15.2091C16.6304 15.5823 14.5735 15.3669 14.5735 15.3669C14.5735 15.3669 14.7038 14.3965 14.7499 13.7411C14.7959 13.0857 14.4098 12.0491 14.2468 10.2495C14.2123 9.86801 14.3504 8.83781 14.8457 8.51379C15.0197 8.40035 15.1257 8.38539 15.1257 8.38539C15.1303 8.38539 15.807 8.23616 16.1523 8.35178C16.2504 8.44623 16.5567 8.71899 16.7322 9.03796C16.9635 9.46046 17.1532 9.94766 17.1979 10.108C17.3973 10.8216 17.4821 12.8878 17.4821 13.2774C17.4821 13.667 17.5056 15.2091 17.5056 15.2091Z" fill="#D5D5D5"/>
<path d="M16.9121 9.18576C16.9121 9.18576 16.9105 9.18576 16.9096 9.18675C16.5371 9.29748 15.1318 8.55052 15.1318 8.55052V8.54656L15.3033 7.48108C15.3033 7.48108 16.1804 7.28334 16.1294 7.58654C16.0784 7.88974 16.2483 8.494 16.2483 8.494C16.254 8.49944 16.261 8.5057 16.2702 8.51311C16.3784 8.60556 16.7172 8.873 16.9121 9.18576Z" fill="#F7A491"/>
<path d="M15.9986 7.5765C16.0515 7.29119 15.1464 7.47746 15.1464 7.47746L15.1318 7.56097C15.1548 7.61227 15.188 7.65958 15.23 7.70068C15.4323 7.88928 15.7485 8.00259 16.0219 8.01113C15.9938 7.85823 15.9771 7.69338 15.9986 7.5765Z" fill="#FE875E"/>
<path d="M15.1961 5.69748C15.1727 5.68837 15.0078 6.99997 15.3205 7.36102C15.6333 7.72208 16.2426 7.84004 16.4611 7.55627C16.703 7.24192 16.6908 5.83155 16.2049 5.46074C15.719 5.08992 15.1961 5.69748 15.1961 5.69748Z" fill="#F7A491"/>
<path d="M15.8599 4.75531C15.4515 4.83602 15.1869 5.08125 15.09 5.18537C14.9045 5.20685 14.6524 5.3071 14.3921 5.72909C14.0718 6.24795 14.3084 6.82283 14.6809 7.10486C15.0534 7.38689 15.0493 7.71429 15.0493 7.71429C15.0493 7.71429 15.6807 7.39496 15.6194 6.90307C15.5937 6.69659 15.503 6.64977 15.5703 6.48817C15.6411 6.32028 15.5881 6.05939 15.6012 5.8329L15.6393 5.69003C15.6393 5.69003 15.9037 5.48855 16.1623 5.54473C16.421 5.60091 16.3841 4.65069 15.8599 4.75531Z" fill="#524A74"/>
<path d="M15.7252 6.82445C15.7275 6.98827 15.6996 7.1193 15.6198 7.12096C15.5399 7.12263 15.5174 7.05837 15.4514 6.82728C15.3895 6.61085 15.4646 6.52961 15.5445 6.52761C15.6244 6.52561 15.7229 6.6608 15.7252 6.82445Z" fill="#F7A491"/>
<path d="M11.4089 24.6265C11.4089 24.6265 11.8627 25.9893 12.0596 26.0567C12.1117 26.0746 12.409 26.1543 12.4561 26.2637C12.4574 26.2668 12.4584 26.2701 12.459 26.2734C12.4747 26.3428 12.4146 26.4067 12.342 26.4067H11.4108C11.4108 26.4067 11.2786 25.7912 11.2264 25.5211C11.2264 25.5211 10.9496 24.8603 10.9804 24.8003C11.0112 24.7403 11.4089 24.6265 11.4089 24.6265Z" fill="#494949"/>
<path d="M15.1318 26.4068L15.2974 25.8134C15.2974 25.8134 15.6454 25.9801 15.8201 25.9524C15.9948 25.9246 16.3337 25.8134 16.3337 25.8134C17.0279 26.0723 17.5968 26.1981 17.4932 26.4068H15.1327H15.1318Z" fill="#494949"/>
<path d="M22.0982 10.5836C21.7795 10.7625 21.7983 10.7838 21.7568 10.8059C21.7077 10.8317 20.9494 10.8011 20.9494 10.8011C20.9494 10.8011 18.7164 10.7232 18.5959 10.7159L16.5366 9.79132L15.7252 10.5853C15.7252 10.5853 17.996 11.5373 18.1245 11.5684C18.253 11.5996 21.2889 11.3874 21.5566 11.3765C21.5566 11.3765 21.8803 11.4699 22.0856 11.5217C22.291 11.5736 22.5129 11.5412 22.5734 11.548C22.7298 11.5544 22.8864 11.5435 23.04 11.5155C23.2595 11.4764 23.0324 11.4232 23.0324 11.4232C23.0324 11.4232 22.6119 11.43 22.6175 11.4001C22.6217 11.3771 22.8515 11.3855 23.0948 11.3446C23.1574 11.3341 23.2192 11.3234 23.2757 11.3134C23.4244 11.2866 23.4496 11.1973 23.2895 11.2029C23.2167 11.2047 23.1442 11.2113 23.0725 11.2227C23.0007 11.2359 22.9302 11.2273 22.8681 11.2303C22.7447 11.236 22.6617 11.2415 22.6642 11.2368C22.6668 11.2322 22.6355 11.2166 22.7016 11.2035C22.781 11.1879 22.9576 11.1879 23.0725 11.1568C23.1376 11.1392 23.2762 11.1101 23.2762 11.1101C23.2762 11.1101 23.4405 11.0192 23.4395 11.007C23.4334 10.9418 23.316 10.9728 23.2308 11.007C23.1643 11.0039 23.0195 11.0382 23.0195 11.0382C23.0195 11.0382 22.7097 11.0495 22.7078 11.0102C22.707 10.9946 22.8858 10.9838 23.0701 10.9297C23.2811 10.8674 23.3334 10.7799 23.3273 10.7452C23.3182 10.6921 23.1993 10.7419 23.1993 10.7419C23.1993 10.7419 23.0365 10.8106 22.9912 10.8182C22.9381 10.8272 22.2419 10.8389 22.2436 10.8015C22.2453 10.7642 22.3125 10.715 22.3469 10.7021C22.3812 10.6891 22.4464 10.6717 22.4814 10.6588C22.5164 10.6459 22.5391 10.5809 22.5253 10.5414C22.5115 10.5019 22.36 10.5235 22.36 10.5235C22.36 10.5235 22.1903 10.5319 22.0982 10.5836Z" fill="#F8A492"/>
<path d="M16.4711 11.5715C16.4711 11.5715 16.8702 11.0698 17.0093 10.8668C17.1904 10.5968 17.356 10.3169 17.5055 10.0283C17.5055 10.0283 16.3936 9.3904 15.9791 9.17269C14.4585 8.37415 14.4938 9.56503 14.5645 9.82945C14.7226 10.4205 16.4711 11.5715 16.4711 11.5715Z" fill="#EAEAEA"/>
<path d="M21.9561 8.9012C22.1185 8.83582 22.2441 8.73351 22.2028 8.60449C22.3421 8.70666 22.1676 8.89513 21.9561 8.9012Z" fill="#FE875E"/>
</svg>
