<svg width="26" height="26" viewBox="0 0 26 26" fill="none" xmlns="http://www.w3.org/2000/svg">
<path d="M23.4199 12.9969C23.4199 15.0785 22.8026 17.1133 21.6461 18.8441C20.4896 20.5748 18.8458 21.9237 16.9226 22.7202C14.9994 23.5166 12.8832 23.7249 10.8416 23.3186C8.80007 22.9123 6.92486 21.9097 5.45315 20.4376C3.98144 18.9655 2.97934 17.09 2.57359 15.0483C2.16783 13.0067 2.37664 10.8905 3.17361 8.96754C3.97059 7.04456 5.31991 5.40111 7.05096 4.24505C8.78201 3.08898 10.817 2.47222 12.8986 2.47278C14.2805 2.47278 15.6489 2.74501 16.9256 3.27393C18.2023 3.80285 19.3623 4.5781 20.3393 5.55539C21.3163 6.53268 22.0913 7.69287 22.6198 8.9697C23.1484 10.2465 23.4203 11.615 23.4199 12.9969Z" fill="white"/>
<path d="M12.8983 12.7048C12.9537 12.7048 13.0079 12.7213 13.054 12.7521C13.1001 12.7829 13.136 12.8267 13.1573 12.8779C13.1785 12.9291 13.184 12.9855 13.1732 13.0399C13.1624 13.0943 13.1357 13.1442 13.0965 13.1834C13.0573 13.2226 13.0073 13.2493 12.953 13.2602C12.8986 13.271 12.8422 13.2654 12.791 13.2442C12.7397 13.223 12.696 13.1871 12.6652 13.1409C12.6343 13.0948 12.6179 13.0406 12.6179 12.9852C12.6179 12.9108 12.6474 12.8395 12.7 12.787C12.7526 12.7344 12.8239 12.7048 12.8983 12.7048ZM12.8983 12.203C12.7412 12.2025 12.5875 12.2485 12.4567 12.3354C12.3259 12.4222 12.2237 12.5459 12.1633 12.6908C12.1028 12.8358 12.0867 12.9954 12.117 13.1495C12.1473 13.3036 12.2226 13.4452 12.3334 13.5564C12.4443 13.6677 12.5857 13.7435 12.7396 13.7744C12.8936 13.8052 13.0533 13.7896 13.1984 13.7297C13.3436 13.6697 13.4676 13.568 13.5549 13.4375C13.6423 13.307 13.6888 13.1534 13.6888 12.9964C13.6888 12.7865 13.6056 12.5851 13.4575 12.4364C13.3093 12.2877 13.1082 12.2037 12.8983 12.203Z" fill="#093B59"/>
<g opacity="0.4">
<path opacity="0.4" d="M15.5157 21.009C13.5445 21.0094 11.6231 20.3899 10.0234 19.2383C8.42363 18.0867 7.22653 16.4611 6.60143 14.5917C5.97632 12.7223 5.95487 10.7036 6.54013 8.82136C7.12539 6.93909 8.28772 5.28851 9.86265 4.10315C8.57637 4.54239 7.40066 5.25543 6.41666 6.19309C5.43266 7.13075 4.66377 8.2707 4.16303 9.53432C3.66229 10.7979 3.44163 12.1551 3.51625 13.5123C3.59087 14.8695 3.95901 16.1943 4.59527 17.3954C5.23153 18.5965 6.12078 19.6453 7.20165 20.4694C8.28253 21.2935 9.52931 21.8733 10.856 22.1689C12.1827 22.4645 13.5577 22.4687 14.8862 22.1814C16.2147 21.894 17.465 21.3219 18.551 20.5045C17.5737 20.8379 16.5483 21.0083 15.5157 21.009Z" fill="#D0D0D0"/>
</g>
<path d="M12.9961 0C10.4257 0 7.91305 0.762207 5.77585 2.19023C3.63866 3.61826 1.97291 5.64797 0.98927 8.0227C0.0056275 10.3974 -0.251734 13.0105 0.249723 15.5315C0.75118 18.0525 1.98893 20.3682 3.80647 22.1857C5.624 24.0032 7.93969 25.241 10.4607 25.7424C12.9817 26.2439 15.5948 25.9865 17.9695 25.0029C20.3442 24.0193 22.3739 22.3535 23.8019 20.2163C25.23 18.0791 25.9922 15.5665 25.9922 12.9961C25.9914 9.54953 24.622 6.24436 22.1849 3.80728C19.7478 1.37021 16.4426 0.000743031 12.9961 0ZM12.9961 22.5477C11.1063 22.5477 9.25894 21.9872 7.68767 20.9373C6.1164 19.8873 4.89179 18.3949 4.16873 16.6489C3.44566 14.9029 3.25662 12.9817 3.6255 11.1283C3.99439 9.27484 4.90463 7.57242 6.24111 6.23632C7.57759 4.90023 9.28029 3.99049 11.1338 3.62214C12.9874 3.2538 14.9085 3.44341 16.6543 4.16699C18.4001 4.89057 19.8921 6.11561 20.9416 7.68719C21.9911 9.25877 22.551 11.1063 22.5505 12.9961C22.5505 14.2506 22.3033 15.4929 21.8231 16.652C21.3429 17.811 20.6391 18.8641 19.7519 19.7511C18.8646 20.638 17.8113 21.3415 16.6522 21.8214C15.493 22.3012 14.2507 22.548 12.9961 22.5477Z" fill="#8370DC"/>
<g style="mix-blend-mode:multiply">
<path d="M14.0414 24.7618C11.6345 24.7597 9.27551 24.0893 7.22725 22.8253C5.179 21.5613 3.522 19.7533 2.44096 17.6028C1.35992 15.4523 0.897301 13.0439 1.10467 10.646C1.31204 8.24805 2.18126 5.9548 3.61543 4.02185C2.38886 5.30319 1.43763 6.8221 0.820349 8.48501C0.203067 10.1479 -0.0671999 11.9196 0.0262074 13.6909C0.119615 15.4623 0.574712 17.1957 1.36346 18.7845C2.15222 20.3732 3.25793 21.7837 4.61246 22.9289C5.96699 24.0741 7.54166 24.9299 9.23947 25.4435C10.9373 25.957 12.7223 26.1175 14.4845 25.9151C16.2466 25.7126 17.9487 25.1515 19.4858 24.2663C21.0229 23.3811 22.3625 22.1905 23.4221 20.7679C22.21 22.0337 20.7537 23.0403 19.1413 23.7267C17.5289 24.4132 15.7939 24.7654 14.0414 24.7618Z" fill="#DADADA"/>
</g>
<path d="M12.9967 2.29895C10.8809 2.29895 8.81255 2.92637 7.05329 4.10187C5.29403 5.27736 3.92286 6.94814 3.11316 8.90292C2.30346 10.8577 2.09161 13.0087 2.50439 15.0839C2.91717 17.1591 3.93605 19.0652 5.43217 20.5614C6.9283 22.0575 8.83447 23.0764 10.9097 23.4891C12.9848 23.9019 15.1358 23.6901 17.0906 22.8804C19.0454 22.0707 20.7162 20.6995 21.8917 18.9402C23.0672 17.181 23.6946 15.1127 23.6946 12.9968C23.6949 11.5919 23.4185 10.2006 22.881 8.90249C22.3435 7.6044 21.5555 6.42493 20.5621 5.43146C19.5686 4.438 18.3891 3.65002 17.091 3.11253C15.793 2.57504 14.4017 2.29858 12.9967 2.29895ZM12.9967 22.5932C11.0988 22.5927 9.24374 22.0294 7.66598 20.9746C6.08823 19.9198 4.85868 18.4208 4.13278 16.6673C3.40688 14.9137 3.21724 12.9843 3.58783 11.1229C3.95843 9.2616 4.87261 7.55194 6.21481 6.21014C7.557 4.86834 9.26693 3.95465 11.1284 3.5846C12.9898 3.21454 14.9192 3.40475 16.6725 4.13116C18.4259 4.85757 19.9245 6.08757 20.9788 7.66563C22.0332 9.24369 22.5959 11.099 22.5959 12.9968C22.5959 14.2573 22.3476 15.5054 21.8652 16.6699C21.3827 17.8343 20.6756 18.8924 19.7842 19.7835C18.8928 20.6747 17.8346 21.3815 16.67 21.8636C15.5053 22.3457 14.2572 22.5936 12.9967 22.5932Z" fill="#3C3071"/>
<path d="M12.8981 5.2557C12.8649 5.2557 12.8321 5.24917 12.8015 5.23649C12.7709 5.22381 12.7431 5.20523 12.7197 5.1818C12.6962 5.15837 12.6776 5.13055 12.665 5.09994C12.6523 5.06933 12.6458 5.03652 12.6458 5.00338V3.76983C12.6523 3.70785 12.6816 3.6505 12.7279 3.60881C12.7742 3.56713 12.8344 3.54407 12.8967 3.54407C12.959 3.54407 13.0191 3.56713 13.0654 3.60881C13.1118 3.6505 13.141 3.70785 13.1476 3.76983V5.0146C13.1454 5.0793 13.1181 5.14063 13.0716 5.18562C13.025 5.23061 12.9628 5.25574 12.8981 5.2557Z" fill="#093B59"/>
<path d="M12.8981 22.3156C12.8651 22.316 12.8323 22.3098 12.8017 22.2974C12.7711 22.2851 12.7433 22.2667 12.7198 22.2435C12.6964 22.2203 12.6777 22.1927 12.665 22.1622C12.6523 22.1318 12.6457 22.0991 12.6458 22.0661V20.8213C12.6523 20.7594 12.6816 20.702 12.7279 20.6603C12.7742 20.6186 12.8344 20.5956 12.8967 20.5956C12.959 20.5956 13.0191 20.6186 13.0654 20.6603C13.1118 20.702 13.141 20.7594 13.1476 20.8213V22.0717C13.1461 22.1369 13.1192 22.1989 13.0725 22.2445C13.0259 22.2901 12.9633 22.3156 12.8981 22.3156Z" fill="#093B59"/>
<path d="M22.0521 13.17H20.8073C20.7453 13.1634 20.688 13.1342 20.6463 13.0878C20.6046 13.0415 20.5815 12.9814 20.5815 12.9191C20.5815 12.8567 20.6046 12.7966 20.6463 12.7503C20.688 12.704 20.7453 12.6747 20.8073 12.6681H22.0521C22.0872 12.6644 22.1228 12.6681 22.1565 12.6791C22.1901 12.69 22.2211 12.7078 22.2474 12.7315C22.2737 12.7552 22.2947 12.7841 22.3091 12.8164C22.3235 12.8487 22.3309 12.8837 22.3309 12.9191C22.3309 12.9544 22.3235 12.9894 22.3091 13.0217C22.2947 13.0541 22.2737 13.083 22.2474 13.1066C22.2211 13.1303 22.1901 13.1482 22.1565 13.1591C22.1228 13.17 22.0872 13.1737 22.0521 13.17Z" fill="#093B59"/>
<path d="M4.99484 13.17H3.75007C3.71489 13.1737 3.67933 13.17 3.64568 13.1591C3.61203 13.1482 3.58104 13.1303 3.55475 13.1066C3.52845 13.083 3.50742 13.0541 3.49303 13.0217C3.47863 12.9894 3.47119 12.9544 3.47119 12.9191C3.47119 12.8837 3.47863 12.8487 3.49303 12.8164C3.50742 12.7841 3.52845 12.7552 3.55475 12.7315C3.58104 12.7078 3.61203 12.69 3.64568 12.6791C3.67933 12.6681 3.71489 12.6644 3.75007 12.6681H4.99484C5.05682 12.6747 5.11417 12.704 5.15585 12.7503C5.19754 12.7966 5.2206 12.8567 5.2206 12.9191C5.2206 12.9814 5.19754 13.0415 5.15585 13.0878C5.11417 13.1342 5.05682 13.1634 4.99484 13.17Z" fill="#093B59"/>
<path d="M18.4838 7.57883C18.451 7.5792 18.4184 7.57293 18.388 7.5604C18.3577 7.54788 18.3302 7.52935 18.3072 7.50594C18.2839 7.48276 18.2655 7.45523 18.2529 7.42493C18.2404 7.39462 18.2339 7.36213 18.2339 7.32932C18.2339 7.29651 18.2404 7.26401 18.2529 7.23371C18.2655 7.2034 18.2839 7.17587 18.3072 7.15269L19.1875 6.27238C19.2102 6.2464 19.2381 6.22536 19.2693 6.21057C19.3005 6.19578 19.3344 6.18756 19.3689 6.18642C19.4035 6.18527 19.4379 6.19123 19.47 6.20392C19.5021 6.21661 19.5313 6.23576 19.5557 6.26018C19.5801 6.28461 19.5993 6.31379 19.612 6.34591C19.6247 6.37804 19.6306 6.41243 19.6295 6.44695C19.6283 6.48148 19.6201 6.5154 19.6053 6.54661C19.5905 6.57783 19.5695 6.60568 19.5435 6.62843L18.6632 7.49753C18.6404 7.52255 18.6127 7.54266 18.5818 7.55664C18.551 7.57061 18.5176 7.57817 18.4838 7.57883Z" fill="#093B59"/>
<path d="M6.42665 19.6361C6.36067 19.635 6.29755 19.6089 6.25002 19.5632C6.20294 19.5159 6.17651 19.4519 6.17651 19.3851C6.17651 19.3184 6.20294 19.2544 6.25002 19.2071L7.13034 18.3296C7.17763 18.2825 7.24164 18.2561 7.30837 18.2561C7.37509 18.2561 7.43911 18.2825 7.48639 18.3296C7.50962 18.3528 7.52805 18.3803 7.54062 18.4106C7.55319 18.4409 7.55965 18.4734 7.55965 18.5062C7.55965 18.5391 7.55319 18.5715 7.54062 18.6018C7.52805 18.6322 7.50962 18.6597 7.48639 18.6829L6.60608 19.5632C6.55785 19.6096 6.4936 19.6357 6.42665 19.6361Z" fill="#093B59"/>
<path d="M19.3641 19.6361C19.2981 19.635 19.235 19.6089 19.1875 19.5632L18.3072 18.6829C18.2839 18.6597 18.2655 18.6322 18.2529 18.6018C18.2404 18.5715 18.2339 18.5391 18.2339 18.5062C18.2339 18.4734 18.2404 18.4409 18.2529 18.4106C18.2655 18.3803 18.2839 18.3528 18.3072 18.3296C18.3544 18.2825 18.4185 18.2561 18.4852 18.2561C18.5519 18.2561 18.6159 18.2825 18.6632 18.3296L19.5435 19.2071C19.5906 19.2544 19.617 19.3184 19.617 19.3851C19.617 19.4519 19.5906 19.5159 19.5435 19.5632C19.4953 19.6096 19.431 19.6357 19.3641 19.6361Z" fill="#093B59"/>
<path d="M7.30972 7.57901C7.27646 7.57944 7.24346 7.5732 7.21265 7.56069C7.18183 7.54817 7.15383 7.52962 7.13029 7.50612L6.24998 6.62862C6.2078 6.58044 6.18552 6.51804 6.18764 6.45404C6.18976 6.39005 6.21611 6.32926 6.26139 6.28399C6.30666 6.23871 6.36747 6.21234 6.43146 6.21022C6.49545 6.2081 6.55786 6.23039 6.60603 6.27256L7.47793 7.15288C7.5129 7.18777 7.53673 7.23227 7.54639 7.28072C7.55605 7.32917 7.5511 7.37939 7.53219 7.42503C7.51327 7.47067 7.48123 7.50967 7.44013 7.53708C7.39902 7.5645 7.35071 7.57909 7.3013 7.57901H7.30972Z" fill="#093B59"/>
<path d="M12.898 12.4524C12.865 12.4528 12.8323 12.4466 12.8017 12.4343C12.7711 12.4219 12.7433 12.4036 12.7198 12.3804C12.6963 12.3572 12.6777 12.3296 12.665 12.2991C12.6523 12.2687 12.6457 12.236 12.6458 12.203V6.44908C12.6523 6.38712 12.6816 6.32979 12.7279 6.28812C12.7742 6.24645 12.8343 6.22339 12.8966 6.22339C12.9589 6.22339 13.019 6.24645 13.0653 6.28812C13.1116 6.32979 13.1409 6.38712 13.1474 6.44908V12.203C13.1474 12.2692 13.1211 12.3326 13.0744 12.3794C13.0276 12.4262 12.9642 12.4524 12.898 12.4524Z" fill="#093B59"/>
<path d="M10.6194 15.9564C10.5704 15.9565 10.5224 15.9421 10.4814 15.915C10.4405 15.888 10.4084 15.8494 10.3893 15.8043C10.3701 15.7591 10.3647 15.7093 10.3738 15.661C10.3828 15.6128 10.4058 15.5683 10.44 15.5331L12.2819 13.6126C12.3048 13.5889 12.332 13.5699 12.3622 13.5567C12.3924 13.5435 12.4249 13.5363 12.4578 13.5357C12.4907 13.535 12.5235 13.5409 12.5541 13.5529C12.5848 13.5649 12.6128 13.5828 12.6366 13.6056C12.6603 13.6285 12.6793 13.6557 12.6925 13.6859C12.7057 13.7161 12.7129 13.7486 12.7135 13.7815C12.7142 13.8144 12.7083 13.8472 12.6963 13.8779C12.6843 13.9085 12.6664 13.9365 12.6436 13.9603L10.8017 15.8807C10.7778 15.9048 10.7494 15.9239 10.7182 15.9369C10.6869 15.9499 10.6533 15.9565 10.6194 15.9564Z" fill="#093B59"/>
</svg>
