<svg width="25" height="25" viewBox="0 0 25 25" fill="none" xmlns="http://www.w3.org/2000/svg">
<path fill-rule="evenodd" clip-rule="evenodd" d="M12.4999 2.27272C6.8516 2.27272 2.27272 6.8516 2.27272 12.4999C2.27272 18.1483 6.8516 22.7272 12.4999 22.7272C18.1483 22.7272 22.7272 18.1483 22.7272 12.4999C22.7272 6.8516 18.1483 2.27272 12.4999 2.27272ZM0 12.4999C0 5.59641 5.59641 0 12.4999 0C19.4035 0 24.9999 5.59641 24.9999 12.4999C24.9999 19.4035 19.4035 24.9999 12.4999 24.9999C5.59641 24.9999 0 19.4035 0 12.4999Z" fill="#8370DC"/>
<path fill-rule="evenodd" clip-rule="evenodd" d="M0 12.4999C0 11.8723 0.508765 11.3635 1.13636 11.3635H23.8635C24.4911 11.3635 24.9999 11.8723 24.9999 12.4999C24.9999 13.1275 24.4911 13.6362 23.8635 13.6362H1.13636C0.508765 13.6362 0 13.1275 0 12.4999Z" fill="#8370DC"/>
<path fill-rule="evenodd" clip-rule="evenodd" d="M9.09134 12.5001C9.16922 15.9942 10.3709 19.3582 12.5001 22.1014C14.6294 19.3582 15.8311 15.9942 15.909 12.5001C15.8311 9.00596 14.6294 5.64199 12.5002 2.89876C10.3709 5.64199 9.16922 9.00596 9.09134 12.5001ZM12.5002 1.1365L11.6611 0.370117C8.633 3.68525 6.91212 7.98744 6.81861 12.4764C6.81828 12.4922 6.81828 12.508 6.81861 12.5238C6.91212 17.0127 8.633 21.3149 11.6611 24.6301C11.8764 24.8658 12.1809 25 12.5002 25C12.8194 25 13.1239 24.8658 13.3392 24.6301C16.3673 21.3149 18.0882 17.0127 18.1817 12.5238C18.182 12.508 18.182 12.4922 18.1817 12.4764C18.0882 7.98744 16.3673 3.68525 13.3392 0.370117L12.5002 1.1365Z" fill="#8370DC"/>
</svg>
