<svg width="26" height="25" viewBox="0 0 26 25" fill="none" xmlns="http://www.w3.org/2000/svg">
<path fill-rule="evenodd" clip-rule="evenodd" d="M8.99839 1.62553C9.24946 2.20086 8.98659 2.87079 8.41126 3.12186C6.87979 3.79016 5.53536 4.82345 4.49549 6.13138C3.45562 7.43931 2.75198 8.98206 2.44608 10.6248C2.14018 12.2674 2.24135 13.9601 2.74072 15.5546C3.2401 17.1492 4.12249 18.5971 5.31074 19.7719C6.499 20.9467 7.95694 21.8125 9.5571 22.2936C11.1573 22.7747 12.8509 22.8566 14.49 22.5319C16.1291 22.2073 17.6637 21.4861 18.9597 20.4313C20.2557 19.3766 21.2735 18.0205 21.9243 16.4815C22.1688 15.9033 22.8357 15.6328 23.4138 15.8773C23.992 16.1218 24.2625 16.7886 24.018 17.3668C23.2226 19.2478 21.9786 20.9053 20.3946 22.1944C18.8106 23.4836 16.935 24.365 14.9317 24.7618C12.9283 25.1586 10.8583 25.0586 8.90254 24.4705C6.94679 23.8825 5.16486 22.8243 3.71255 21.3885C2.26024 19.9526 1.18177 18.1829 0.571417 16.234C-0.0389341 14.2851 -0.162578 12.2163 0.211295 10.2086C0.585168 8.20086 1.44517 6.31528 2.71613 4.7167C3.98708 3.11812 5.63028 1.85521 7.50207 1.03839C8.0774 0.787328 8.74733 1.0502 8.99839 1.62553Z" fill="#8370DC"/>
<path fill-rule="evenodd" clip-rule="evenodd" d="M11.6996 0.332903C11.9128 0.119749 12.2019 0 12.5033 0C14.1452 0 15.771 0.32339 17.2878 0.951704C18.8047 1.58002 20.183 2.50095 21.344 3.66193C22.505 4.8229 23.4259 6.20118 24.0542 7.71807C24.6825 9.23495 25.0059 10.8607 25.0059 12.5026C25.0059 13.1303 24.497 13.6392 23.8693 13.6392H12.5033C11.8756 13.6392 11.3667 13.1303 11.3667 12.5026V1.1366C11.3667 0.835155 11.4864 0.546057 11.6996 0.332903ZM13.6399 2.33654V11.366H22.6694C22.5628 10.4129 22.3225 9.47754 21.954 8.58798C21.44 7.34689 20.6865 6.21921 19.7366 5.26932C18.7867 4.31944 17.659 3.56594 16.4179 3.05187C15.5284 2.6834 14.593 2.44311 13.6399 2.33654Z" fill="#8370DC"/>
</svg>
