<svg width="23" height="25" viewBox="0 0 23 25" fill="none" xmlns="http://www.w3.org/2000/svg">
<path fill-rule="evenodd" clip-rule="evenodd" d="M5.73996 2.33022C7.23197 0.838204 9.25557 0 11.3656 0C13.4756 0 15.4992 0.838204 16.9912 2.33022C18.4833 3.82223 19.3215 5.84583 19.3215 7.95586C19.3215 11.7663 20.1364 14.1326 20.8875 15.5095C21.2646 16.2009 21.6318 16.6544 21.8869 16.9237C22.0147 17.0586 22.1152 17.1481 22.1756 17.1985C22.2059 17.2237 22.2262 17.2392 22.2349 17.2457C22.2363 17.2467 22.2374 17.2475 22.2382 17.2481C22.6456 17.528 22.8259 18.0399 22.6823 18.5142C22.5372 18.9935 22.0954 19.3214 21.5946 19.3214H1.13664C0.635799 19.3214 0.193991 18.9935 0.0488555 18.5142C-0.0947392 18.0399 0.0855623 17.528 0.492999 17.2481C0.493796 17.2475 0.494881 17.2467 0.496247 17.2457C0.504997 17.2392 0.525289 17.2237 0.555546 17.1985C0.616029 17.1481 0.716481 17.0586 0.844315 16.9237C1.09939 16.6544 1.46659 16.2009 1.84369 15.5095C2.59476 14.1326 3.40974 11.7663 3.40974 7.95586C3.40974 5.84583 4.24795 3.82223 5.73996 2.33022ZM0.504487 17.2403C0.504577 17.2402 0.504666 17.2402 0.504756 17.2401C0.504751 17.2401 0.504746 17.2401 0.504741 17.2401L0.504487 17.2403ZM3.57946 17.0483H19.1517C19.0653 16.9066 18.9784 16.7566 18.892 16.598C17.9382 14.8495 17.0484 12.1012 17.0484 7.95586C17.0484 6.4487 16.4496 5.00326 15.3839 3.93754C14.3182 2.87182 12.8728 2.2731 11.3656 2.2731C9.85844 2.2731 8.41301 2.87182 7.34728 3.93754C6.28156 5.00327 5.68284 6.4487 5.68284 7.95586C5.68284 12.1012 4.793 14.8495 3.83924 16.598C3.75275 16.7566 3.66593 16.9066 3.57946 17.0483Z" fill="#8370DC"/>
<path fill-rule="evenodd" clip-rule="evenodd" d="M8.82914 21.7479C9.3721 21.4329 10.0676 21.6177 10.3826 22.1607C10.4825 22.3329 10.6259 22.4759 10.7984 22.5753C10.9709 22.6746 11.1666 22.7269 11.3657 22.7269C11.5648 22.7269 11.7604 22.6746 11.9329 22.5753C12.1055 22.4759 12.2489 22.3329 12.3488 22.1607C12.6637 21.6177 13.3592 21.4329 13.9022 21.7479C14.4451 22.0628 14.63 22.7583 14.315 23.3013C14.0153 23.818 13.5851 24.2468 13.0675 24.545C12.5499 24.8431 11.963 25.0001 11.3657 25.0001C10.7683 25.0001 10.1815 24.8431 9.66386 24.545C9.14625 24.2468 8.71604 23.818 8.41632 23.3013C8.10136 22.7583 8.28618 22.0628 8.82914 21.7479Z" fill="#8370DC"/>
</svg>
