<svg width="20" height="18" viewBox="0 0 20 18" fill="none" xmlns="http://www.w3.org/2000/svg">
<path fill-rule="evenodd" clip-rule="evenodd" d="M0.899999 0.89093C1.39706 0.89093 1.8 1.29387 1.8 1.79093V6.29093H6.29999C6.79705 6.29093 7.19999 6.69387 7.19999 7.19092C7.19999 7.68798 6.79705 8.09092 6.29999 8.09092H0.899999C0.402943 8.09092 0 7.68798 0 7.19092V1.79093C0 1.29387 0.402943 0.89093 0.899999 0.89093Z" fill="#8370DC"/>
<path fill-rule="evenodd" clip-rule="evenodd" d="M9.54481 0.0877877C11.477 -0.184065 13.4453 0.179405 15.153 1.12343C16.8607 2.06746 18.2153 3.54091 19.0128 5.32177C19.8102 7.10262 20.0073 9.09441 19.5744 10.997C19.1414 12.8996 18.1018 14.61 16.6123 15.8704C15.1227 17.1308 13.2639 17.873 11.3159 17.9851C9.36782 18.0972 7.43612 17.5732 5.8118 16.492C4.18748 15.4108 2.95854 13.831 2.31014 11.9907C2.14497 11.5218 2.39112 11.0079 2.85993 10.8427C3.32875 10.6776 3.84269 10.9237 4.00786 11.3925C4.52657 12.8648 5.50972 14.1287 6.80918 14.9936C8.10863 15.8586 9.654 16.2778 11.2124 16.1881C12.7708 16.0984 14.2579 15.5047 15.4496 14.4963C16.6412 13.488 17.4729 12.1197 17.8192 10.5976C18.1656 9.07553 18.0079 7.4821 17.3699 6.05741C16.732 4.63273 15.6483 3.45397 14.2821 2.69875C12.916 1.94352 11.3414 1.65275 9.79559 1.87023C8.24981 2.08771 6.81659 2.80167 5.71186 3.90454C5.70543 3.91095 5.69891 3.91726 5.6923 3.92348L1.5163 7.84748C1.15407 8.18785 0.584497 8.17013 0.244125 7.8079C-0.0962474 7.44567 -0.0785275 6.87609 0.283704 6.53572L4.45004 2.6208C5.82961 1.24783 7.6172 0.358992 9.54481 0.0877877Z" fill="#8370DC"/>
<path fill-rule="evenodd" clip-rule="evenodd" d="M10.4001 4.59161C10.8419 4.59161 11.2 4.94978 11.2 5.3916V9.69707L13.9577 11.0759C14.3529 11.2735 14.513 11.754 14.3155 12.1492C14.1179 12.5444 13.6374 12.7046 13.2422 12.507L10.0423 10.907C9.77129 10.7715 9.6001 10.4945 9.6001 10.1915V5.3916C9.6001 4.94978 9.95826 4.59161 10.4001 4.59161Z" fill="#8370DC"/>
</svg>
