<svg width="30" height="28" viewBox="0 0 30 28" fill="none" xmlns="http://www.w3.org/2000/svg">
<path fill-rule="evenodd" clip-rule="evenodd" d="M1.2642 0.105275C0.635708 0.327779 0.190136 0.833336 0.0544939 1.4779C0.00552781 1.71054 -0.00873052 5.36748 0.00490244 14.2011L0.0239761 26.5978L0.155678 26.8879C0.348165 27.3119 0.6419 27.6207 1.04445 27.8222L1.39978 28H8.12246H14.8451L15.1359 27.863C15.5075 27.688 15.9148 27.2729 16.0865 26.8941L16.2209 26.5978V14.0099V1.42194L16.0892 1.13188C15.8967 0.707839 15.603 0.399036 15.2005 0.197566L14.8451 0.0197412L8.21626 0.00527307C1.98012 -0.00830278 1.56825 -0.0023754 1.2642 0.105275ZM14.6797 1.35342C14.9407 1.49097 15.0015 1.70315 15.0015 2.47659V3.17469H8.12246H1.24344L1.24563 2.45766C1.248 1.68836 1.30241 1.49874 1.563 1.35158C1.79382 1.22117 14.4322 1.22296 14.6797 1.35342ZM15.0015 13.6912V22.933H8.12246H1.24344V13.6912V4.44942H8.12246H15.0015V13.6912ZM17.5029 8.91096V9.54833H18.6554C20.0555 9.54833 20.0044 9.52035 20.0044 10.2858V10.8231H18.7537H17.5029V11.4604V12.0978L19.4885 12.0987C21.7145 12.0998 21.9799 12.1343 22.6913 12.5154C23.2029 12.7893 23.8077 13.3905 24.0576 13.8735C24.1598 14.0712 24.491 14.8209 24.7933 15.5395C25.3743 16.9203 25.428 17.1607 25.2252 17.4761C24.9899 17.8421 25.0817 17.8341 21.1332 17.8341H17.5029V18.4714V19.1088H21.1904C25.246 19.1088 25.1719 19.1152 25.7465 18.7123C25.8951 18.6081 26.0271 18.5335 26.0399 18.5465C26.0526 18.5595 26.2477 19.0093 26.4732 19.5462L26.8834 20.5222V22.4319C26.8834 24.5042 26.8668 24.6177 26.5412 24.7689C26.419 24.8257 25.247 24.8451 21.9401 24.8451H17.5029V25.4824V26.1198H20.3093H23.1155L23.1432 26.6567C23.1752 27.2788 23.331 27.5917 23.7368 27.8488C23.9723 27.998 23.9971 28 25.6372 28H27.299L27.5526 27.829C27.6919 27.735 27.8729 27.5486 27.9545 27.4147L28.1029 27.1714L28.1213 23.8253C28.1386 20.6954 28.1218 20.247 27.9722 19.85C27.9388 19.7612 27.987 19.7461 28.3039 19.7461C29.3592 19.7461 30.0837 18.9737 29.9922 17.946C29.9228 17.1661 29.4301 16.4682 28.7045 16.1221C28.3822 15.9684 28.268 15.9518 27.3288 15.9223L26.3045 15.8901L25.7634 14.6154C25.4659 13.9143 25.1178 13.1752 24.9899 12.9731C24.4676 12.1474 23.5704 11.4356 22.6502 11.1166C22.2995 10.995 21.5028 10.8231 21.29 10.8231C21.2708 10.8231 21.2551 10.5557 21.2551 10.2289C21.2551 9.47994 21.1369 9.10581 20.7877 8.74997C20.3769 8.33122 20.1257 8.2736 18.7113 8.2736H17.5029V8.91096ZM28.2354 17.3001C28.6608 17.5059 28.9028 18.1283 28.6486 18.3627C28.5456 18.4578 28.4311 18.4734 27.9508 18.458L27.3762 18.4395L27.1644 17.9428C26.8152 17.1238 26.7875 17.1967 27.4482 17.1967C27.8475 17.1967 28.0863 17.228 28.2354 17.3001ZM22.5621 20.5609C21.8935 20.9169 21.6741 21.8132 22.1034 22.4344C22.3655 22.8137 22.7627 23.0166 23.1625 22.9753C23.5064 22.9398 24.7544 22.438 24.959 22.253C25.03 22.1888 25.143 22.0111 25.2101 21.8582C25.3758 21.4806 25.3188 21.0965 25.051 20.7856C24.7539 20.4408 24.5574 20.3835 23.6719 20.3835C22.9439 20.3835 22.8745 20.3946 22.5621 20.5609ZM15.0015 25.2245C15.0015 25.8771 14.9747 26.3011 14.9267 26.4084C14.7641 26.7722 15.0589 26.7571 8.12246 26.7571C1.18603 26.7571 1.48083 26.7722 1.31817 26.4084C1.2702 26.3011 1.24344 25.8771 1.24344 25.2245V24.2077H8.12246H15.0015V25.2245ZM5.94056 24.934C5.64463 25.1011 5.54601 25.4684 5.71011 25.7919C5.86933 26.1056 5.97376 26.1198 8.12852 26.1198C10.2999 26.1198 10.3997 26.1054 10.5492 25.771C10.6954 25.444 10.59 25.0876 10.3022 24.9359C10.0593 24.8079 6.16675 24.8062 5.94056 24.934ZM26.8834 26.3747V26.7571H25.6327H24.382V26.4385V26.1198L25.4607 26.1134C26.355 26.1082 26.6594 26.0833 26.8678 25.9987C26.8763 25.9952 26.8834 26.1644 26.8834 26.3747Z" fill="white"/>
<path d="M5.79543 17.6433C5.93499 17.9421 5.87639 18.2231 5.66363 18.4717C5.49846 18.6647 5.27272 18.7442 5.01921 18.7543C4.90074 18.759 4.78192 18.7552 4.6631 18.7543H4.28608C4.1687 18.7543 4.07241 18.7175 4.0679 18.5893C4.06304 18.455 4.1595 18.4249 4.27887 18.4261C4.51615 18.4282 4.75379 18.4297 4.99108 18.4261C5.31203 18.4207 5.52912 18.2269 5.52839 17.9533C5.52839 17.671 5.32266 17.4926 4.98747 17.4949C4.7446 17.4965 4.51453 17.4665 4.31853 17.3142C4.18719 17.2128 4.09086 17.0751 4.04234 16.9196C3.99381 16.764 3.99537 16.5978 4.04681 16.4432C4.14724 16.1452 4.45142 15.9205 4.80663 15.8998C5.01524 15.8876 5.22548 15.8958 5.43482 15.897C5.55436 15.897 5.64992 15.9493 5.64776 16.0712C5.64577 16.1832 5.54985 16.2245 5.44113 16.228C5.21105 16.2334 4.9799 16.2263 4.75127 16.2454C4.52264 16.2646 4.38074 16.4209 4.34936 16.644C4.3225 16.8357 4.43952 17.0447 4.62487 17.1212C4.75632 17.1752 4.89894 17.1585 5.03796 17.163C5.39046 17.1738 5.65028 17.3325 5.79543 17.6433ZM11.055 17.3618C11.0516 17.252 11.0067 17.1571 10.87 17.1651C10.7438 17.1724 10.7176 17.2653 10.7171 17.3681C10.7171 17.5569 10.7241 17.7461 10.7146 17.9344C10.6998 18.2243 10.5029 18.4193 10.2355 18.4222C9.96071 18.4261 9.75841 18.2233 9.74723 17.9229C9.74038 17.7411 9.74417 17.5587 9.74723 17.3766C9.74867 17.262 9.71423 17.1661 9.58135 17.1648C9.45207 17.1634 9.4041 17.2548 9.40338 17.37C9.40212 17.5386 9.40861 17.7074 9.40194 17.8752C9.37616 18.5198 10.0714 18.9573 10.6183 18.644C10.6475 18.6266 10.6926 18.5712 10.7369 18.6454C10.7793 18.7165 10.8368 18.7762 10.9387 18.7303C11.0458 18.682 11.0586 18.5909 11.0584 18.4937C11.0584 18.3117 11.0584 18.1296 11.0584 17.9473C11.0568 17.7529 11.0611 17.5573 11.055 17.3618ZM12.3532 18.4156C12.0647 18.3646 11.9246 18.1977 11.9147 17.9104C11.9113 17.816 11.9205 17.721 11.9124 17.6273C11.9039 17.5282 11.9261 17.4794 12.0447 17.4858C12.1529 17.4918 12.2396 17.4412 12.243 17.3231C12.2457 17.2024 12.1579 17.1555 12.0498 17.1599C11.9353 17.1646 11.9077 17.12 11.9129 17.0179C11.921 16.8632 11.9151 16.7078 11.9151 16.5527C11.9151 16.4177 11.912 16.2829 11.9151 16.148C11.9187 16.0261 11.9082 15.8966 11.7486 15.901C11.6001 15.905 11.5759 16.0283 11.5772 16.1534C11.5801 16.4367 11.5752 16.72 11.5797 17.0031C11.5813 17.1024 11.5772 17.1708 11.4403 17.1611C11.3393 17.154 11.26 17.2175 11.26 17.3179C11.2587 17.3402 11.2623 17.3626 11.2707 17.3834C11.279 17.4043 11.2919 17.4232 11.3084 17.4389C11.3249 17.4545 11.3448 17.4666 11.3665 17.4742C11.3883 17.4819 11.4115 17.4849 11.4345 17.4832C11.5858 17.4745 11.5849 17.5543 11.5788 17.6562C11.5743 17.7371 11.577 17.8181 11.5788 17.8991C11.5853 18.3402 11.8285 18.6266 12.2742 18.7323C12.4071 18.7639 12.5258 18.7541 12.5627 18.6198C12.6056 18.4661 12.4825 18.4384 12.3529 18.4156H12.3532ZM9.0123 17.1623C8.89438 17.1684 8.77573 17.1797 8.67152 17.243C8.61201 17.279 8.56171 17.3158 8.50924 17.2243C8.47318 17.1613 8.39817 17.1503 8.32406 17.1749C8.23643 17.204 8.2148 17.2707 8.21462 17.3499C8.21462 17.5451 8.21462 17.7401 8.21462 17.9351C8.21462 18.1303 8.21804 18.3254 8.21317 18.5203C8.20993 18.6458 8.25591 18.7468 8.38951 18.7437C8.50888 18.7412 8.55792 18.6466 8.55179 18.5278C8.54584 18.3935 8.55053 18.2588 8.55053 18.1243C8.55053 17.6714 8.592 17.6191 9.05341 17.4841C9.15167 17.4555 9.21172 17.397 9.19423 17.2925C9.17836 17.1959 9.10479 17.1574 9.0123 17.1623ZM8.006 17.8921C8.0399 18.3224 7.71156 18.6963 7.246 18.7482C7.06119 18.7688 6.89332 18.6973 6.70508 18.606C6.70508 19.0086 6.7031 19.3787 6.70616 19.7487C6.70725 19.8722 6.69733 19.9965 6.53938 19.9999C6.37837 20.0032 6.36791 19.878 6.36809 19.756C6.36989 19.1637 6.36592 18.5703 6.36989 17.9776C6.37314 17.5125 6.70364 17.1763 7.16324 17.16C7.59364 17.1438 7.97318 17.4742 8.006 17.8921ZM7.67568 17.959C7.67982 17.6963 7.46724 17.4912 7.18885 17.4904C6.91045 17.4895 6.70364 17.6883 6.7049 17.9543C6.70649 18.0757 6.75609 18.1919 6.84354 18.279C6.93098 18.3661 7.04964 18.4176 7.17514 18.4229C7.43226 18.431 7.67153 18.2087 7.67568 17.959ZM5.98079 12.9466C6.43426 12.7522 6.72005 12.2947 6.7159 11.8125C6.71013 11.1076 6.68308 10.4014 6.72996 9.69787C6.7763 9.00206 7.43515 8.38743 8.15169 8.34979C8.94793 8.30781 9.6733 8.81286 9.81358 9.52105C9.91455 10.0311 9.83792 10.5489 9.86028 11.0629C9.87543 11.4069 9.82566 11.7522 9.89418 12.0954C9.98704 12.5609 10.3953 12.9594 10.8579 13.0257C11.4349 13.1085 11.9527 12.8655 12.1972 12.3958C12.4351 11.939 12.3469 11.3804 11.9809 11.0273C11.8868 10.9365 11.7784 10.847 11.6596 10.9712C11.5584 11.0768 11.626 11.1745 11.7185 11.2686C12.0034 11.558 12.0471 11.962 11.8408 12.2944C11.6424 12.6144 11.2395 12.7669 10.8572 12.6667C10.475 12.5665 10.2287 12.2386 10.2279 11.8304C10.2268 11.2881 10.2243 10.7456 10.2292 10.2031C10.2314 9.95205 10.2355 9.69892 10.1737 9.45606C9.91906 8.45781 9.01969 7.93621 8.16665 8.00624C7.10645 8.09335 6.35979 8.87349 6.35745 9.84334C6.35745 10.1554 6.35745 10.4672 6.35745 10.7791C6.35745 11.1385 6.36105 11.4979 6.35637 11.8573C6.35483 12.0413 6.29134 12.2198 6.17551 12.3659C6.05967 12.5119 5.89778 12.6176 5.71429 12.6669C5.33817 12.7656 4.95123 12.6233 4.7455 12.3102C4.52787 11.9792 4.57673 11.5644 4.87748 11.2489C4.96349 11.1585 5.01578 11.0688 4.91355 10.9679C4.81131 10.867 4.7089 10.9156 4.62091 10.9987C4.50095 11.1127 4.40564 11.2485 4.34053 11.3984C4.24583 11.6182 4.22165 11.8604 4.27113 12.0936C4.32061 12.3268 4.44146 12.5403 4.61802 12.7064C4.97341 13.0435 5.52695 13.1411 5.98043 12.9466H5.98079ZM7.40936 11.8073C7.40936 11.7395 7.4045 11.6714 7.40936 11.604C7.42126 11.4663 7.38809 11.3393 7.22581 11.3446C7.06822 11.3496 7.04442 11.482 7.0455 11.6153C7.04694 11.8111 7.06498 12.009 7.01233 12.2012C6.68903 13.3792 5.28859 13.7637 4.36487 12.927C4.26715 12.8385 4.17158 12.7759 4.05835 12.885C3.94025 12.9993 4.02373 13.0928 4.11244 13.1782C4.44186 13.4932 4.83728 13.6768 5.2985 13.7167C6.54677 13.8252 7.47049 12.8203 7.409 11.8073H7.40936ZM11.3761 14.0463C11.1727 14.0479 10.9645 14.0717 10.7669 14.0383C9.48849 13.8229 8.77249 12.7912 8.82658 11.7923C8.83302 11.6975 8.83115 11.6024 8.82099 11.508C8.80909 11.4108 8.74165 11.3397 8.64068 11.3444C8.53376 11.3493 8.46037 11.4101 8.46344 11.5301C8.46669 11.6453 8.46344 11.7606 8.46344 11.8759C8.46759 13.2662 9.64644 14.4047 11.0848 14.4135C11.1911 14.4069 11.2939 14.3982 11.3983 14.3874C11.5177 14.3752 11.6259 14.3416 11.6199 14.1979C11.6131 14.0435 11.4951 14.0454 11.3765 14.0463H11.3761ZM7.93153 11.3439C7.82605 11.3472 7.75465 11.4189 7.75249 11.5318C7.75069 11.6334 7.75014 11.735 7.75249 11.8365C7.77881 13.0592 6.71428 14.0898 5.43572 14.0473C5.3306 14.0473 5.22548 14.0496 5.12054 14.0473C5.02732 14.0446 4.97449 14.0878 4.95826 14.1723C4.94185 14.263 4.97629 14.3358 5.06861 14.3656C5.13518 14.3866 5.20426 14.3993 5.27416 14.4034C6.85979 14.4977 8.26059 13.2885 8.11869 11.5228C8.1104 11.4101 8.03773 11.3404 7.93153 11.3439ZM12.5083 12.878C12.4197 12.7965 12.3312 12.8176 12.2495 12.894C12.2245 12.9176 12.2 12.9416 12.174 12.9637C11.7275 13.3573 11.2016 13.4689 10.6345 13.3069C10.0629 13.1432 9.709 12.7536 9.55953 12.1919C9.50093 11.9712 9.5177 11.7486 9.51734 11.5263C9.51734 11.4052 9.44522 11.3458 9.33883 11.344C9.24021 11.3423 9.17007 11.4066 9.16502 11.5106C9.16033 11.605 9.16393 11.7 9.16393 11.7947C9.15095 13.0639 10.2878 13.9522 11.5705 13.6693C11.9322 13.5895 12.2412 13.4048 12.4973 13.1423C12.5813 13.0568 12.6051 12.9672 12.5083 12.878ZM8.19352 8.68115C7.5958 8.71512 7.08355 9.22018 7.05362 9.79387C7.03775 9.92958 7.08751 10.0327 7.21715 10.0447C7.3468 10.0568 7.40107 9.96965 7.41261 9.83812C7.45228 9.37958 7.75862 9.08359 8.22796 9.03673C8.3576 9.02383 8.473 8.99282 8.45911 8.83882C8.44523 8.68481 8.31937 8.67401 8.19352 8.68115ZM8.2981 10.3827C8.00257 10.3872 7.75718 10.1604 7.75195 9.87906C7.74672 9.5977 7.98635 9.36669 8.28403 9.36617C8.58461 9.36617 8.82315 9.59265 8.82081 9.8761C8.8185 10.0095 8.76274 10.1368 8.66525 10.2313C8.56777 10.3258 8.43615 10.3801 8.2981 10.3827ZM8.29413 9.70693C8.18865 9.71861 8.11887 9.76512 8.1214 9.87279C8.12374 9.96338 8.16359 10.0259 8.27177 10.0273C8.37996 10.0287 8.45208 9.98202 8.45984 9.88115C8.46741 9.77749 8.38681 9.73115 8.29413 9.70693Z" fill="white"/>
</svg>
