<svg width="22" height="19" viewBox="0 0 22 19" fill="none" xmlns="http://www.w3.org/2000/svg">
<path fill-rule="evenodd" clip-rule="evenodd" d="M0 9.28575C0 8.49677 0.492487 7.85718 1.1 7.85718H20.9C21.5075 7.85718 22 8.49677 22 9.28575C22 10.0747 21.5075 10.7143 20.9 10.7143H1.1C0.492487 10.7143 0 10.0747 0 9.28575Z" fill="white"/>
<path fill-rule="evenodd" clip-rule="evenodd" d="M0 1.42857C0 0.639593 0.492487 0 1.1 0H20.9C21.5075 0 22 0.639593 22 1.42857C22 2.21755 21.5075 2.85714 20.9 2.85714H1.1C0.492487 2.85714 0 2.21755 0 1.42857Z" fill="white"/>
<path fill-rule="evenodd" clip-rule="evenodd" d="M0 17.1429C0 16.3539 0.492487 15.7144 1.1 15.7144H20.9C21.5075 15.7144 22 16.3539 22 17.1429C22 17.9319 21.5075 18.5715 20.9 18.5715H1.1C0.492487 18.5715 0 17.9319 0 17.1429Z" fill="white"/>
</svg>
