<svg width="17" height="17" viewBox="0 0 17 17" fill="none" xmlns="http://www.w3.org/2000/svg">
<path fill-rule="evenodd" clip-rule="evenodd" d="M8.5 1.54545C4.65911 1.54545 1.54545 4.65911 1.54545 8.5C1.54545 12.3409 4.65911 15.4545 8.5 15.4545C12.3409 15.4545 15.4545 12.3409 15.4545 8.5C15.4545 4.65911 12.3409 1.54545 8.5 1.54545ZM0 8.5C0 3.80558 3.80558 0 8.5 0C13.1944 0 17 3.80558 17 8.5C17 13.1944 13.1944 17 8.5 17C3.80558 17 0 13.1944 0 8.5Z" fill="#8370DC"/>
<path fill-rule="evenodd" clip-rule="evenodd" d="M8.50002 3.09088C8.92679 3.09088 9.27275 3.43684 9.27275 3.86361V8.0224L11.9365 9.35428C12.3182 9.54513 12.4729 10.0093 12.2821 10.391C12.0912 10.7727 11.6271 10.9274 11.2454 10.7366L8.15445 9.19112C7.89266 9.06023 7.72729 8.79266 7.72729 8.49997V3.86361C7.72729 3.43684 8.07326 3.09088 8.50002 3.09088Z" fill="#8370DC"/>
</svg>
