<svg width="16" height="17" viewBox="0 0 16 17" fill="none" xmlns="http://www.w3.org/2000/svg">
<path fill-rule="evenodd" clip-rule="evenodd" d="M1.40049 8.02622C1.40049 4.62623 4.21809 1.86999 7.69378 1.86999C11.1695 1.86999 13.9871 4.62623 13.9871 8.02622C13.9871 11.4262 11.1695 14.1825 7.69378 14.1825C4.21809 14.1825 1.40049 11.4262 1.40049 8.02622ZM7.69378 0.5C3.44462 0.5 0 3.8696 0 8.02622C0 12.1828 3.44462 15.5524 7.69378 15.5524C9.47361 15.5524 11.1123 14.9612 12.4158 13.9686L14.8053 16.3C15.0791 16.5672 15.5224 16.5666 15.7955 16.2987C16.0687 16.0309 16.0681 15.5972 15.7943 15.33L13.4391 13.0321C14.6511 11.702 15.3876 9.94823 15.3876 8.02622C15.3876 3.8696 11.9429 0.5 7.69378 0.5Z" fill="#AAAAAA"/>
</svg>
