<svg width="20" height="20" viewBox="0 0 20 20" fill="none" xmlns="http://www.w3.org/2000/svg">
<path d="M20 9.44446C20.0038 10.911 19.6612 12.3577 19 13.6667C18.216 15.2353 17.0108 16.5546 15.5194 17.477C14.0279 18.3993 12.3091 18.8882 10.5555 18.8889C9.08902 18.8927 7.64234 18.5501 6.33332 17.8889L0 20L2.11111 13.6667C1.44992 12.3577 1.10729 10.911 1.11111 9.44446C1.11179 7.69086 1.60068 5.97208 2.52302 4.48064C3.44536 2.98919 4.76472 1.78399 6.33332 1.00003C7.64234 0.338844 9.08902 -0.00379195 10.5555 3.16534e-05H11.1111C13.427 0.1278 15.6145 1.10532 17.2546 2.74543C18.8947 4.38553 19.8722 6.57297 20 8.88891V9.44446Z" fill="#8370DC"/>
</svg>
