<svg width="152" height="120" viewBox="0 0 152 120" fill="none" xmlns="http://www.w3.org/2000/svg">
<path d="M35.1268 92.5538C43.1686 88.916 48.2367 80.3562 48.1631 71.3335C48.0608 58.145 47.5812 44.9304 48.4125 31.7679C49.2343 18.7489 60.9181 7.24889 73.6251 6.54481C87.7454 5.75923 100.609 15.2089 103.097 28.4594C104.887 38.0036 103.528 47.6913 103.925 57.3072C104.193 63.745 103.311 70.2057 104.526 76.6272C106.173 85.3369 113.412 92.7917 121.617 94.0337C131.849 95.582 141.032 91.0348 145.368 82.2468C149.586 73.7 148.022 63.2496 141.531 56.6423C139.862 54.944 137.94 53.2685 135.833 55.5927C134.039 57.568 135.238 59.3967 136.879 61.1569C141.931 66.5712 142.705 74.1303 139.047 80.3497C135.529 86.3376 128.383 89.1898 121.604 87.3155C114.825 85.4412 110.457 79.3066 110.445 71.6692C110.425 61.522 110.381 51.3714 110.467 41.2209C110.505 36.5238 110.579 31.7875 109.482 27.2435C104.967 8.56578 89.018 -1.19359 73.8905 0.116786C55.089 1.74661 41.848 16.3433 41.8065 34.4897C41.8065 40.3278 41.8065 46.1625 41.8065 51.9973C41.8065 58.7219 41.8704 65.4466 41.7873 72.1712C41.76 75.614 40.6342 78.9542 38.5799 81.687C36.5257 84.4197 33.6547 86.3966 30.4009 87.3188C23.7308 89.167 16.8689 86.5039 13.2205 80.6463C9.36112 74.453 10.2276 66.6918 15.5611 60.7885C17.0863 59.0968 18.0136 57.4181 16.2006 55.5307C14.3876 53.6434 12.5714 54.5528 11.011 56.1077C8.88375 58.2396 7.19356 60.7814 6.03886 63.5853C4.35948 67.6977 3.93072 72.2296 4.80817 76.5934C5.68562 80.9571 7.82881 84.9516 10.9599 88.0587C17.2622 94.3661 27.0786 96.1915 35.1204 92.5538H35.1268ZM60.4609 71.2357C60.4609 69.9677 60.3745 68.6932 60.4609 67.4317C60.6719 64.8566 60.0835 62.4803 57.2058 62.5781C54.4111 62.6726 53.989 65.1499 54.0082 67.6436C54.0338 71.3074 54.3536 75.0104 53.4199 78.6058C47.6867 100.647 22.8515 107.842 6.47056 92.1854C4.7375 90.5295 3.0428 89.3593 1.03475 91.3999C-1.05963 93.5382 0.420828 95.2886 1.99401 96.8858C7.8359 102.779 14.8481 106.215 23.0273 106.961C45.1639 108.992 61.5448 90.1905 60.4545 71.2357H60.4609ZM130.807 113.129C127.2 113.158 123.507 113.605 120.002 112.979C97.3316 108.95 84.6342 89.6462 85.5935 70.9554C85.7076 69.1824 85.6744 67.4029 85.4943 65.6356C85.2833 63.8168 84.0874 62.4868 82.2968 62.5748C80.4007 62.6661 79.0993 63.8037 79.1536 66.0496C79.2112 68.2042 79.1536 70.3621 79.1536 72.52C79.2272 98.532 100.133 119.834 125.639 120C127.526 119.876 129.348 119.713 131.2 119.511C133.317 119.283 135.235 118.654 135.13 115.965C135.008 113.077 132.917 113.112 130.813 113.129H130.807ZM69.7209 62.5651C67.8503 62.627 66.5842 63.97 66.5458 66.0822C66.5138 67.9826 66.5042 69.883 66.5458 71.7833C67.0126 94.6595 48.1344 113.944 25.4607 113.148C23.5965 113.148 21.7323 113.191 19.8714 113.148C18.2183 113.096 17.2814 113.904 16.9936 115.485C16.7026 117.184 17.3134 118.546 18.9505 119.104C20.131 119.497 21.356 119.734 22.5957 119.811C50.7148 121.574 75.5564 98.9492 73.0399 65.9127C72.8929 63.8037 71.6042 62.4999 69.7209 62.5651ZM150.884 91.2695C149.314 89.744 147.744 90.1384 146.295 91.5694C145.851 92.0094 145.416 92.4593 144.956 92.8732C137.039 100.237 127.711 102.326 117.655 99.2947C107.519 96.2307 101.242 88.9421 98.5914 78.433C97.5522 74.303 97.8496 70.1372 97.8432 65.9779C97.8432 63.7124 96.5642 62.6009 94.6777 62.5683C92.9286 62.5357 91.6848 63.7385 91.5952 65.6845C91.5121 67.4513 91.576 69.2278 91.576 71.001C91.3458 94.7475 111.506 111.368 134.254 106.075C140.668 104.582 146.148 101.127 150.689 96.2144C152.179 94.6139 152.601 92.9384 150.884 91.2695ZM74.3669 12.7447C63.7671 13.3803 54.6829 22.83 54.1521 33.564C53.8708 36.1033 54.7533 38.033 57.0523 38.2579C59.3513 38.4828 60.3138 36.853 60.5184 34.392C61.2219 25.8126 66.6545 20.2744 74.9777 19.3976C77.2767 19.1564 79.3231 18.5762 79.0769 15.6946C78.8307 12.8131 76.5988 12.611 74.3669 12.7447ZM76.2215 44.5816C70.9807 44.6663 66.6289 40.4223 66.5362 35.158C66.4435 29.8936 70.693 25.5713 75.9721 25.5616C81.3024 25.5616 85.5327 29.7991 85.4911 35.1026C85.4502 37.5985 84.4614 39.981 82.7325 41.7488C81.0037 43.5167 78.6697 44.5322 76.2215 44.5816ZM76.1511 31.9374C74.2806 32.1558 73.0432 33.0262 73.0879 35.0406C73.1295 36.7356 73.8361 37.9058 75.7546 37.9319C77.6732 37.958 78.9522 37.0844 79.0897 35.1971C79.224 33.2576 77.7947 32.3905 76.1511 31.9374Z" fill="#8370DC"/>
</svg>
