<svg width="33" height="43" viewBox="0 0 33 43" fill="none" xmlns="http://www.w3.org/2000/svg">
<path d="M4.12593 30.2138C3.67045 31.8092 3.61181 32.7367 3.85525 33.5817C4.07922 33.6154 4.28636 33.7611 4.43649 33.9723L5.71378 36.0506C5.82799 36.2766 5.87039 36.5322 5.8008 36.771C5.86633 36.828 5.95722 36.8955 6.02275 36.9526L6.71904 35.2788L14.1747 38.3805L13.4785 40.0542C13.5904 40.0711 13.6771 40.0774 13.7637 40.0836C13.9094 39.8765 14.0952 39.7158 14.3614 39.6481L16.7359 39.089C16.9661 39.036 17.2155 39.0803 17.4226 39.2259C18.1682 38.7924 18.7847 38.0969 19.5952 36.6492C21.7397 32.7816 23.6016 26.0893 24.281 24.5276C27.8639 16.2011 30.0606 11.1355 30.2306 9.15358C30.2663 8.78171 30.1034 8.38671 29.8433 8.01077C29.7567 8.00448 29.6447 7.98764 29.5433 7.94544C28.8839 7.67114 28.7589 7.11343 27.9961 6.94483C27.4826 6.82046 27.4887 6.37677 27.5541 6.07672C27.1546 5.82129 26.7446 5.59122 26.3747 5.40761C26.2565 5.4774 26.1339 5.48593 26.0071 5.43318L21.7974 3.68189C21.6706 3.62914 21.5903 3.53622 21.5564 3.40313C21.2416 3.30189 20.9267 3.20065 20.5759 3.11422C20.4092 3.37208 20.0777 3.73989 19.6275 3.46336C18.9702 3.04117 18.4611 3.33513 17.8271 3.07138C17.6243 2.98698 17.5291 2.85815 17.4593 2.73988C16.8974 2.80358 16.4411 2.97074 16.156 3.29838C14.8596 4.84145 12.8257 9.94501 9.44571 18.3559C8.79161 19.9281 5.35744 25.9663 4.12593 30.2138Z" fill="url(#paint0_linear_1_877)"/>
<path d="M6.71908 35.2788L6.02279 36.9525C7.87869 38.4981 11.074 39.8274 13.4785 40.0542L14.1748 38.3805L6.71908 35.2788Z" fill="url(#paint1_linear_1_877)"/>
<path d="M4.71324 30.1606C3.9372 32.8126 4.34113 33.4864 5.29077 35.2796C6.5429 37.7044 12.6038 40.2259 15.2063 39.4046C17.1223 38.8035 17.8849 38.6151 19.2189 36.1952C21.3 32.4797 23.0818 26.0516 23.7401 24.5405C27.1965 16.5184 29.2833 11.6451 29.483 9.73503C29.6867 7.52915 23.6343 5.13026 23.6343 5.13026C23.6343 5.13026 17.6663 2.52849 16.2453 4.22798C15.0059 5.70552 13.0458 10.6316 9.7924 18.7381C9.18477 20.2702 5.88145 26.0654 4.71324 30.1606Z" fill="url(#paint2_radial_1_877)"/>
<path d="M18.4357 25.9929C19.7775 26.3429 20.8128 26.3571 21.1952 26.3675L21.3259 25.7673C21.3259 25.7673 20.1258 25.8631 18.5093 25.4583C17.1062 25.1126 14.0884 23.8572 12.8288 23.0951C11.3768 22.2234 10.6241 21.3153 10.6241 21.3153L10.2906 21.831C10.557 22.1203 11.3328 22.8298 12.5015 23.5242C13.8119 24.3073 16.9565 25.6155 18.4357 25.9929Z" fill="url(#paint3_linear_1_877)"/>
<path d="M19.5606 31.3693C18.9944 31.3717 17.9844 31.368 16.5391 31.1238C14.4684 30.7383 11.9324 29.6833 10.1993 28.4863C8.99661 27.6587 8.28209 26.945 7.8952 26.5163C7.73453 26.3305 7.61402 26.1911 7.59495 26.0939L7.5844 26.1193C7.5844 26.1193 7.31416 26.4828 7.34804 26.6159C7.35656 26.7385 7.47707 26.8778 7.67791 27.1101C8.07535 27.5135 8.78987 28.2272 9.98197 29.0801C11.7151 30.2771 14.2511 31.3321 16.3219 31.7176C17.7566 31.9872 18.7665 31.9909 19.3433 31.9631C19.6391 31.9672 19.8335 31.929 19.9264 31.8487C20.0193 31.7683 20.112 31.3309 20.112 31.3309L20.1226 31.3056C19.9789 31.3648 19.8205 31.3881 19.5606 31.3693Z" fill="url(#paint4_linear_1_877)"/>
<path d="M18.4357 25.9929C16.9565 25.6155 13.8119 24.3073 12.5016 23.5242C11.3074 22.8192 10.5675 22.0949 10.2906 21.831L7.55904 26.1088C7.60346 26.2165 7.69861 26.3454 7.85929 26.5312C8.25672 26.9345 8.97125 27.6482 10.1633 28.5012C11.8965 29.6981 14.4325 30.7531 16.5032 31.1386C17.938 31.4083 18.9479 31.4119 19.5247 31.3841C19.7697 31.3671 19.9536 31.3543 20.0359 31.2993L21.1445 26.3463C20.8022 26.3824 19.7775 26.3429 18.4357 25.9929Z" fill="url(#paint5_linear_1_877)"/>
<path d="M25.36 19.5027L24.4743 18.6284L22.2675 24.4335L20.4799 31.6624C20.4799 31.6624 21.2839 29.9443 22.2417 27.4274C22.8197 25.8235 23.5748 23.5792 24.1551 22.1845C24.7142 20.8404 25.1342 19.9739 25.36 19.5027Z" fill="url(#paint6_linear_1_877)"/>
<path d="M12.2237 14.0378L13.4682 14.0498L10.9064 19.7072L7.06463 26.0815C7.06463 26.0815 7.7165 24.3001 8.82647 21.8465C9.53128 20.2953 10.5907 18.1777 11.171 16.7829C11.7301 15.4389 12.0846 14.5154 12.2237 14.0378Z" fill="url(#paint7_linear_1_877)"/>
<path d="M25.6069 18.9807L24.7486 17.9692L26.6157 13.1235C26.6157 13.1235 26.9598 12.5824 27.777 11.7622C28.6976 10.8362 29.0884 10.6121 29.0884 10.6121C29.0884 10.6121 26.4722 17.2583 25.6069 18.9807Z" fill="url(#paint8_linear_1_877)"/>
<path d="M12.4094 13.5201L13.7319 13.4158L15.8527 8.67563C15.8527 8.67563 15.9939 8.05016 15.9996 6.89234C16.0073 5.58662 15.8803 5.17681 15.8803 5.17681C15.8803 5.17681 13.0316 11.6668 12.4094 13.5201Z" fill="url(#paint9_linear_1_877)"/>
<path d="M27.9707 6.93424C28.7335 7.10284 28.8839 7.67111 29.5179 7.93485C29.6447 7.9876 29.7313 7.99389 29.8179 8.00018C29.3274 7.32013 28.4438 6.65509 27.5033 6.05558C27.4633 6.36618 27.4721 6.84578 27.9707 6.93424Z" fill="#D60F28"/>
<path d="M19.6021 3.45283C20.0777 3.7399 20.4092 3.37209 20.5506 3.10369C19.4475 2.8233 18.3128 2.61899 17.4086 2.71879C17.4678 2.86243 17.5735 2.9659 17.7764 3.0503C18.4611 3.33515 18.9342 3.05599 19.6021 3.45283Z" fill="#D60F28"/>
<path d="M18.0465 32.7921C18.0465 32.7921 15.9009 34.5174 15.3752 35.2804C14.9847 35.8616 14.3647 37.9241 14.3647 37.9241C14.3647 37.9241 15.2721 36.1002 15.6521 35.5443C16.1673 34.8067 18.0465 32.7921 18.0465 32.7921Z" fill="url(#paint10_linear_1_877)"/>
<path d="M7.92805 28.5826C7.92805 28.5826 8.21692 31.3207 8.04629 32.2314C7.9347 32.9287 6.90893 34.8223 6.90893 34.8223C6.90893 34.8223 7.56282 32.8929 7.68922 32.2316C7.82395 31.3357 7.92805 28.5826 7.92805 28.5826Z" fill="url(#paint11_linear_1_877)"/>
<path d="M7.8952 26.5164C8.29263 26.9197 9.00716 27.6335 10.1993 28.4864C10.6135 28.7777 11.0891 29.0648 11.6005 29.337C13.5459 28.4507 16.2048 26.4928 17.3284 25.6512C15.7393 25.1091 13.5541 24.1406 12.5269 23.5348C11.3328 22.8298 10.5929 22.1055 10.316 21.8415L7.55904 26.1088C7.60346 26.2165 7.69861 26.3454 7.8952 26.5164Z" fill="url(#paint12_linear_1_877)"/>
<path d="M15.6902 24.2259C19.528 25.9415 21.2792 25.4504 21.2792 25.4504C21.2792 25.4504 27.2631 10.9236 27.3491 9.85871C27.41 9.14032 24.8551 8.34521 23.3504 7.60023L22.0571 7.06219C20.4574 6.54544 18.103 5.2685 17.6364 5.81809C16.9417 6.62979 10.8565 21.1143 10.8565 21.1143C10.8565 21.1143 11.768 22.7132 15.6902 24.2259Z" fill="url(#paint13_linear_1_877)"/>
<path d="M14.488 39.3438C14.488 39.3438 17.3169 39.1225 18.6571 36.616C20.029 34.0334 20.5628 32.6787 20.5628 32.6787C20.5628 32.6787 17.0822 38.7571 14.488 39.3438Z" fill="url(#paint14_linear_1_877)"/>
<path d="M5.815 35.7357C5.815 35.7357 3.97777 33.5732 4.81082 30.8557C5.67551 28.0621 6.26002 26.7286 6.26002 26.7286C6.26002 26.7286 4.40239 33.4821 5.815 35.7357Z" fill="url(#paint15_linear_1_877)"/>
<path d="M7.23771 25.7371C7.23771 25.7371 6.68183 25.3571 6.89283 24.8499C7.08902 24.3068 8.15555 23.5308 7.88126 24.1901C7.63232 24.86 7.39819 25.5658 7.23771 25.7371Z" fill="url(#paint16_linear_1_877)"/>
<path d="M5.50614 23.6781C5.36899 24.0078 6.78729 25.1036 6.8654 24.9873C7.19507 25.1245 7.35129 24.892 7.39978 24.7039C6.63271 24.474 6.0324 23.9863 5.68346 23.3949C5.59054 23.4752 5.52298 23.5661 5.50614 23.6781Z" fill="url(#paint17_linear_1_877)"/>
<path d="M7.43993 24.7503C7.46732 24.6129 7.47361 24.5263 7.48416 24.5009C6.7319 24.307 6.16121 23.8911 5.76581 23.3399C5.76581 23.3399 5.70454 23.3441 5.64753 23.4097C6.02183 24.0116 6.6475 24.5099 7.43993 24.7503Z" fill="url(#paint18_linear_1_877)"/>
<path d="M20.6275 31.3075C20.6275 31.3075 21.2889 31.4339 21.4999 30.9267C21.7468 30.4047 21.5453 29.1013 21.2711 29.7606C20.9968 30.4199 20.6612 31.0836 20.6275 31.3075Z" fill="url(#paint19_linear_1_877)"/>
<path d="M23.3086 31.0841C23.1714 31.4138 21.3944 31.1802 21.4218 31.0429C21.0921 30.9057 21.1469 30.631 21.2461 30.4641C21.9499 30.8461 22.719 30.9281 23.3845 30.7587C23.393 30.8812 23.4015 31.0038 23.3086 31.0841Z" fill="url(#paint20_linear_1_877)"/>
<path d="M21.2102 30.479C21.2883 30.3627 21.3453 30.2972 21.3559 30.2718C22.0237 30.6687 22.721 30.7803 23.3907 30.6721C23.3907 30.6721 23.4309 30.7186 23.4246 30.8052C22.7338 30.9641 21.9393 30.8716 21.2102 30.479Z" fill="url(#paint21_linear_1_877)"/>
<path d="M24.1501 24.7706C24.2516 24.8128 24.334 24.7578 24.3656 24.6817L24.9248 23.3377C24.967 23.2362 24.912 23.1538 24.8359 23.1222L24.1501 24.7706Z" fill="#5B5A5A"/>
<path d="M27.0114 18.1074C27.1129 18.1496 27.1952 18.0946 27.2269 18.0185L27.786 16.6744C27.8282 16.573 27.7732 16.4906 27.6972 16.459L27.0114 18.1074Z" fill="#5B5A5A"/>
<path d="M9.34021 18.6095C9.23877 18.5673 9.2197 18.4701 9.25135 18.394L9.8105 17.05C9.8527 16.9485 9.94988 16.9295 10.026 16.9611L9.34021 18.6095Z" fill="#5B5A5A"/>
<path d="M12.0493 11.8829C11.9478 11.8407 11.9287 11.7436 11.9604 11.6675L12.5195 10.3234C12.5617 10.222 12.6589 10.2029 12.735 10.2346L12.0493 11.8829Z" fill="#5B5A5A"/>
<path d="M16.3242 32.6408C16.06 32.5607 15.8699 32.6601 15.591 32.544C15.5656 32.5335 15.5297 32.5483 15.5191 32.5737C15.5086 32.599 15.5234 32.6349 15.5593 32.6201C15.8235 32.7003 16.0136 32.6009 16.2925 32.7169C16.3179 32.7275 16.3538 32.7126 16.3643 32.6873C16.339 32.6767 16.3495 32.6514 16.3242 32.6408Z" fill="#9E9E9E"/>
<path d="M15.6123 32.4934C15.8765 32.5736 16.0666 32.4742 16.3455 32.5902C16.3709 32.6008 16.4068 32.5859 16.4173 32.5606C16.4279 32.5352 16.4131 32.4993 16.3772 32.5141C16.113 32.434 15.9229 32.5334 15.644 32.4173C15.6186 32.4068 15.5827 32.4216 15.5722 32.447C15.5975 32.4575 15.587 32.4829 15.6123 32.4934Z" fill="#9E9E9E"/>
<path d="M15.6756 32.3413C15.9398 32.4215 16.1299 32.3221 16.4088 32.4381C16.4342 32.4487 16.4701 32.4338 16.4806 32.4085C16.4912 32.3831 16.4764 32.3472 16.4405 32.362C16.1763 32.2819 15.9862 32.3813 15.7073 32.2652C15.6819 32.2547 15.646 32.2695 15.6354 32.2949C15.6608 32.3054 15.6503 32.3308 15.6756 32.3413Z" fill="#9E9E9E"/>
<path d="M9.29992 29.7186C9.54296 29.8495 9.60646 30.0544 9.88542 30.1704C9.91078 30.181 9.90023 30.2064 9.88968 30.2317C9.87913 30.2571 9.84322 30.2719 9.85377 30.2465C9.61072 30.1157 9.54722 29.9108 9.26827 29.7947C9.24291 29.7842 9.2281 29.7483 9.23865 29.7229C9.23865 29.7229 9.27456 29.7081 9.29992 29.7186Z" fill="#9E9E9E"/>
<path d="M9.88117 30.1091C9.63812 29.9783 9.57462 29.7734 9.29567 29.6573C9.27031 29.6468 9.2555 29.6109 9.26605 29.5855C9.2766 29.5602 9.31251 29.5453 9.32732 29.5813C9.57036 29.7121 9.63386 29.917 9.91282 30.0331C9.93818 30.0436 9.95298 30.0795 9.94243 30.1049C9.94243 30.1049 9.90653 30.1197 9.88117 30.1091Z" fill="#9E9E9E"/>
<path d="M9.94448 29.957C9.70144 29.8261 9.63794 29.6212 9.35898 29.5052C9.33362 29.4946 9.31881 29.4587 9.32936 29.4334C9.33991 29.408 9.37582 29.3932 9.39063 29.4291C9.63368 29.56 9.69718 29.7649 9.97613 29.8809C10.0015 29.8915 9.99094 29.9168 9.98039 29.9422C10.0058 29.9527 9.96984 29.9676 9.94448 29.957Z" fill="#9E9E9E"/>
<path d="M21.7721 3.67131L25.9818 5.4226C26.1086 5.47534 26.2311 5.46682 26.3494 5.39704C25.0834 4.72164 23.9824 4.29336 23.9824 4.29336C23.9824 4.29336 22.9025 3.81435 21.5564 3.4031C21.5649 3.52564 21.6706 3.62911 21.7721 3.67131Z" fill="url(#paint22_linear_1_877)"/>
<path d="M5.26541 35.2691C4.83816 34.4369 4.51457 33.856 4.38109 33.1758C4.2269 33.2604 4.02848 33.5943 3.86578 33.5564C4.04572 34.1965 4.3693 34.7773 4.79229 35.5482C5.00592 35.9643 5.35263 36.3466 5.80078 36.771C5.83872 36.6083 5.8935 36.3336 5.87646 36.0885C5.6249 35.8351 5.41979 35.5416 5.26541 35.2691Z" fill="url(#paint23_radial_1_877)"/>
<path d="M15.181 39.3941C16.0725 39.1105 16.7125 38.9306 17.2891 38.5457C17.3378 38.7147 17.2408 39.0909 17.3824 39.1795C16.827 39.5137 16.1869 39.6936 15.3419 39.937C14.8962 40.0788 14.3807 40.1024 13.7637 40.0837C13.8524 39.9421 14.0086 39.7096 14.1944 39.5489C14.5515 39.5487 14.9043 39.4873 15.181 39.3941Z" fill="url(#paint24_radial_1_877)"/>
<path d="M24.7485 17.9692L25.6069 18.9808C26.0839 18.0488 27.0967 15.6142 27.8942 13.6256C27.1085 14.0127 26.3018 14.8076 25.5629 15.8686L24.7485 17.9692Z" fill="url(#paint25_linear_1_877)"/>
<path d="M24.2922 21.8548C23.7621 22.1995 23.23 22.6921 22.7274 23.2565L22.278 24.4082L20.4799 31.6624C20.4799 31.6624 21.2839 29.9443 22.2417 27.4274C22.8197 25.8235 23.5748 23.5792 24.1551 22.1845C24.2078 22.0577 24.25 21.9562 24.2922 21.8548Z" fill="url(#paint26_linear_1_877)"/>
<path d="M13.7066 13.4054L12.384 13.5096C12.7194 12.489 13.747 10.0904 14.5699 8.11231C14.8492 8.94249 14.8541 10.0749 14.6224 11.347L13.7066 13.4054Z" fill="url(#paint27_linear_1_877)"/>
<path d="M11.2722 16.4681C11.4015 17.087 11.4378 17.7864 11.3812 18.566L10.8811 19.6966L7.0393 26.071C7.0393 26.071 7.69117 24.2895 8.80114 21.836C9.50595 20.2848 10.5654 18.1671 11.1456 16.7724C11.1878 16.6709 11.23 16.5695 11.2722 16.4681Z" fill="url(#paint28_linear_1_877)"/>
<path d="M10.0162 33.6459L13.4144 35.0596L13.4777 34.9074L10.0795 33.4937L10.0162 33.6459Z" fill="url(#paint29_linear_1_877)"/>
<path d="M10.1745 33.2655L13.5726 34.6792L13.6359 34.527L10.2378 33.1134L10.1745 33.2655Z" fill="url(#paint30_linear_1_877)"/>
<path d="M10.3327 32.8851L13.7308 34.2988L13.7941 34.1467L10.396 32.733L10.3327 32.8851Z" fill="url(#paint31_linear_1_877)"/>
<path d="M10.4804 32.53L13.8785 33.9437L13.9418 33.7916L10.5437 32.3779L10.4804 32.53Z" fill="url(#paint32_linear_1_877)"/>
<path d="M27.2584 10.1483C28.1474 9.29844 28.6307 8.2798 28.6307 8.2798C28.7869 8.0473 27.7914 7.36542 26.3562 6.38165C25.2909 5.58149 22.1717 4.28385 20.8532 4.09232C19.1438 3.7679 17.9943 3.52768 17.9078 3.87845C17.9078 3.87845 17.5323 4.85267 17.5457 6.10766C18.4838 6.14095 20.2565 6.31321 22.7418 7.3471C25.0452 8.24588 26.5333 9.45991 27.2584 10.1483Z" fill="url(#paint33_linear_1_877)"/>
<path d="M17.4442 6.06542C18.3823 6.0987 20.1656 6.24561 22.6509 7.2795C23.1581 7.49049 23.6293 7.7163 24.0393 7.94637C25.5966 8.20749 27.2188 7.45443 27.599 7.25561C27.2714 6.97057 26.7599 6.6983 26.2548 6.33941C25.1895 5.53925 22.0703 4.24161 20.7518 4.05008C19.0423 3.72565 17.7958 3.86157 17.8064 3.83621C17.819 3.66295 17.4309 4.81042 17.4442 6.06542Z" fill="url(#paint34_linear_1_877)"/>
<defs>
<linearGradient id="paint0_linear_1_877" x1="24.7179" y1="24.7343" x2="8.97021" y2="18.183" gradientUnits="userSpaceOnUse">
<stop stop-color="#6A6A6A"/>
<stop offset="1"/>
</linearGradient>
<linearGradient id="paint1_linear_1_877" x1="13.7201" y1="39.4714" x2="6.27038" y2="36.3722" gradientUnits="userSpaceOnUse">
<stop stop-color="#535A57"/>
<stop offset="1" stop-color="#020203"/>
</linearGradient>
<radialGradient id="paint2_radial_1_877" cx="0" cy="0" r="1" gradientUnits="userSpaceOnUse" gradientTransform="translate(16.6828 21.8464) rotate(-157.412) scale(8.42742 32.3512)">
<stop offset="0.2445" stop-opacity="0.68"/>
<stop offset="1" stop-opacity="0.14"/>
</radialGradient>
<linearGradient id="paint3_linear_1_877" x1="21.1444" y1="26.5018" x2="10.2356" y2="21.9636" gradientUnits="userSpaceOnUse">
<stop stop-color="#020203"/>
<stop offset="1" stop-color="#1C1D1D"/>
</linearGradient>
<linearGradient id="paint4_linear_1_877" x1="19.7304" y1="32.33" x2="7.09852" y2="27.075" gradientUnits="userSpaceOnUse">
<stop stop-color="#020203"/>
<stop offset="1" stop-color="#1C1D1D"/>
</linearGradient>
<linearGradient id="paint5_linear_1_877" x1="20.753" y1="29.7172" x2="8.23072" y2="24.5077" gradientUnits="userSpaceOnUse">
<stop stop-color="#373B39"/>
<stop offset="1" stop-color="#1C1D1D"/>
</linearGradient>
<linearGradient id="paint6_linear_1_877" x1="23.1113" y1="25.4121" x2="21.8769" y2="24.8986" gradientUnits="userSpaceOnUse">
<stop stop-color="#373B39"/>
<stop offset="1" stop-color="#1C1D1D"/>
</linearGradient>
<linearGradient id="paint7_linear_1_877" x1="10.8549" y1="20.3174" x2="9.62039" y2="19.8038" gradientUnits="userSpaceOnUse">
<stop stop-color="#373B39"/>
<stop offset="1" stop-color="#1C1D1D"/>
</linearGradient>
<linearGradient id="paint8_linear_1_877" x1="27.4079" y1="14.8365" x2="26.1316" y2="14.3055" gradientUnits="userSpaceOnUse">
<stop stop-color="#373B39"/>
<stop offset="1" stop-color="#1C1D1D"/>
</linearGradient>
<linearGradient id="paint9_linear_1_877" x1="15.3664" y1="9.8381" x2="14.0904" y2="9.30726" gradientUnits="userSpaceOnUse">
<stop stop-color="#373B39"/>
<stop offset="1" stop-color="#1C1D1D"/>
</linearGradient>
<linearGradient id="paint10_linear_1_877" x1="17.517" y1="33.4715" x2="13.4726" y2="38.2451" gradientUnits="userSpaceOnUse">
<stop/>
<stop offset="1" stop-color="#616161"/>
</linearGradient>
<linearGradient id="paint11_linear_1_877" x1="8.1265" y1="29.1823" x2="7.21556" y2="35.3105" gradientUnits="userSpaceOnUse">
<stop/>
<stop offset="1" stop-color="#7A7A7A"/>
</linearGradient>
<linearGradient id="paint12_linear_1_877" x1="13.9951" y1="28.3761" x2="11.5258" y2="24.4239" gradientUnits="userSpaceOnUse">
<stop stop-color="#373B39"/>
<stop offset="1" stop-color="#020203"/>
</linearGradient>
<linearGradient id="paint13_linear_1_877" x1="20.6428" y1="25.3447" x2="15.009" y2="-11.2006" gradientUnits="userSpaceOnUse">
<stop stop-color="#898989"/>
<stop offset="0.416667"/>
</linearGradient>
<linearGradient id="paint14_linear_1_877" x1="17.0266" y1="44.1384" x2="17.6884" y2="33.1205" gradientUnits="userSpaceOnUse">
<stop/>
<stop offset="1" stop-color="#4F4F4F"/>
</linearGradient>
<linearGradient id="paint15_linear_1_877" x1="0.615986" y1="37.3112" x2="7.96408" y2="29.0751" gradientUnits="userSpaceOnUse">
<stop/>
<stop offset="1" stop-color="#737373"/>
</linearGradient>
<linearGradient id="paint16_linear_1_877" x1="7.4745" y1="25.5928" x2="7.21253" y2="22.4251" gradientUnits="userSpaceOnUse">
<stop stop-color="#373B39"/>
<stop offset="1" stop-color="#1C1D1D"/>
</linearGradient>
<linearGradient id="paint17_linear_1_877" x1="7.44426" y1="24.711" x2="5.41717" y2="23.8677" gradientUnits="userSpaceOnUse">
<stop stop-color="#3F3C3C"/>
<stop offset="1" stop-color="#666968"/>
</linearGradient>
<linearGradient id="paint18_linear_1_877" x1="7.56759" y1="24.4473" x2="5.5406" y2="23.604" gradientUnits="userSpaceOnUse">
<stop stop-color="#373B39"/>
<stop offset="1" stop-color="#1C1D1D"/>
</linearGradient>
<linearGradient id="paint19_linear_1_877" x1="20.58" y1="31.045" x2="23.0114" y2="28.9978" gradientUnits="userSpaceOnUse">
<stop stop-color="#373B39"/>
<stop offset="1" stop-color="#1C1D1D"/>
</linearGradient>
<linearGradient id="paint20_linear_1_877" x1="21.2268" y1="30.4447" x2="23.2539" y2="31.288" gradientUnits="userSpaceOnUse">
<stop stop-opacity="0.63"/>
<stop offset="1"/>
</linearGradient>
<linearGradient id="paint21_linear_1_877" x1="21.3269" y1="30.1714" x2="23.3539" y2="31.0147" gradientUnits="userSpaceOnUse">
<stop stop-color="#373B39"/>
<stop offset="1" stop-color="#1C1D1D"/>
</linearGradient>
<linearGradient id="paint22_linear_1_877" x1="26.3271" y1="5.42559" x2="21.5364" y2="3.4326" gradientUnits="userSpaceOnUse">
<stop stop-color="#373B39"/>
<stop offset="1" stop-color="#020203"/>
</linearGradient>
<radialGradient id="paint23_radial_1_877" cx="0" cy="0" r="1" gradientUnits="userSpaceOnUse" gradientTransform="translate(4.93856 34.9178) rotate(-157.412) scale(1.44251)">
<stop stop-color="#444646"/>
<stop offset="1"/>
</radialGradient>
<radialGradient id="paint24_radial_1_877" cx="0" cy="0" r="1" gradientUnits="userSpaceOnUse" gradientTransform="translate(15.6799 39.3864) rotate(22.588) scale(1.44251)">
<stop/>
<stop offset="1" stop-color="#373737"/>
</radialGradient>
<linearGradient id="paint25_linear_1_877" x1="26.7879" y1="16.3268" x2="25.5813" y2="15.8248" gradientUnits="userSpaceOnUse">
<stop stop-color="#373B39"/>
<stop offset="1" stop-color="#020203"/>
</linearGradient>
<linearGradient id="paint26_linear_1_877" x1="22.5239" y1="26.824" x2="21.4355" y2="26.3712" gradientUnits="userSpaceOnUse">
<stop stop-color="#373B39"/>
<stop offset="1" stop-color="#020203"/>
</linearGradient>
<linearGradient id="paint27_linear_1_877" x1="13.4406" y1="10.7841" x2="14.6472" y2="11.2861" gradientUnits="userSpaceOnUse">
<stop stop-color="#373B39"/>
<stop offset="1" stop-color="#020203"/>
</linearGradient>
<linearGradient id="paint28_linear_1_877" x1="9.00342" y1="21.2025" x2="10.0918" y2="21.6553" gradientUnits="userSpaceOnUse">
<stop stop-color="#373B39"/>
<stop offset="1" stop-color="#020203"/>
</linearGradient>
<linearGradient id="paint29_linear_1_877" x1="13.4419" y1="34.9712" x2="10.0529" y2="33.5613" gradientUnits="userSpaceOnUse">
<stop stop-color="#4F4F4D"/>
<stop offset="1"/>
</linearGradient>
<linearGradient id="paint30_linear_1_877" x1="13.5963" y1="34.6" x2="10.2073" y2="33.1901" gradientUnits="userSpaceOnUse">
<stop stop-color="#474848"/>
<stop offset="1" stop-color="#505050"/>
</linearGradient>
<linearGradient id="paint31_linear_1_877" x1="13.7507" y1="34.2287" x2="10.3617" y2="32.8189" gradientUnits="userSpaceOnUse">
<stop/>
<stop offset="1" stop-color="#636363"/>
</linearGradient>
<linearGradient id="paint32_linear_1_877" x1="13.9051" y1="33.8575" x2="10.5162" y2="32.4476" gradientUnits="userSpaceOnUse">
<stop/>
<stop offset="1" stop-opacity="0.83"/>
</linearGradient>
<linearGradient id="paint33_linear_1_877" x1="28.4201" y1="8.78284" x2="17.7093" y2="4.32697" gradientUnits="userSpaceOnUse">
<stop stop-color="#373B39"/>
<stop offset="1" stop-color="#1C1D1D"/>
</linearGradient>
<linearGradient id="paint34_linear_1_877" x1="23.2856" y1="10.752" x2="22.4508" y2="6.25717" gradientUnits="userSpaceOnUse">
<stop stop-color="#5F5F5F"/>
<stop offset="1" stop-color="#020203"/>
</linearGradient>
</defs>
</svg>
