<svg width="40" height="40" viewBox="0 0 40 40" fill="none" xmlns="http://www.w3.org/2000/svg">
<path d="M39.9988 29.9477V35.9693C40.001 36.5283 39.8863 37.0816 39.6619 37.5938C39.4375 38.106 39.1084 38.5658 38.6957 38.9437C38.2829 39.3216 37.7957 39.6093 37.265 39.7884C36.7345 39.9675 36.1722 40.034 35.6144 39.9837C29.4256 39.3126 23.4809 37.202 18.2578 33.8216C13.3984 30.7399 9.27853 26.6281 6.19067 21.7784C2.79172 16.542 0.676483 10.5802 0.0163242 4.3759C-0.0339344 3.82084 0.0321622 3.26142 0.210405 2.73325C0.388647 2.20509 0.675131 1.71974 1.05162 1.30813C1.4281 0.896518 1.88634 0.56765 2.39715 0.342467C2.90797 0.117284 3.46016 0.000719445 4.01859 0.000194603H10.0522C11.0282 -0.0093927 11.9744 0.335555 12.7145 0.970743C13.4545 1.60593 13.9379 2.48802 14.0745 3.45259C14.3292 5.37964 14.8015 7.27175 15.4824 9.09283C15.753 9.81126 15.8115 10.592 15.6511 11.3427C15.4907 12.0933 15.1181 12.7823 14.5773 13.328L12.0231 15.8772C14.8862 20.9023 19.0552 25.063 24.0903 27.9204L26.6445 25.3713C27.1913 24.8316 27.8817 24.4597 28.6338 24.2996C29.3859 24.1395 30.1682 24.198 30.8881 24.468C32.7128 25.1476 34.6086 25.6189 36.5395 25.8731C37.5165 26.0106 38.4087 26.5017 39.0465 27.253C39.6843 28.0043 40.0232 28.9633 39.9988 29.9477Z" fill="white"/>
</svg>
