<svg width="40" height="40" viewBox="0 0 40 40" fill="none" xmlns="http://www.w3.org/2000/svg">
<path fill-rule="evenodd" clip-rule="evenodd" d="M20.8975 4.16863C20.7855 4.294 20.7412 4.52158 20.7412 4.97139V5.5992L20.3871 5.66246C19.6426 5.7953 19.1269 6.03006 18.6749 6.44187C18.1158 6.9513 17.9081 7.48015 17.9081 8.39421C17.9081 9.58495 18.4431 10.2793 19.7496 10.7844C20.0613 10.9049 20.4118 11.0403 20.5288 11.0854C20.7383 11.1661 20.7412 11.191 20.7412 12.9023V14.6374L20.4873 14.5728C20.1277 14.4813 19.7648 14.1988 19.4045 13.7296C19.2334 13.5069 19.0498 13.293 18.9966 13.2543C18.804 13.1146 18.2854 13.1815 18.0993 13.3701C17.7825 13.6912 17.7633 14.0038 18.0352 14.4201C18.4602 15.071 19.252 15.553 20.254 15.7707L20.7412 15.8767V16.4908C20.7412 16.9774 20.7805 17.1447 20.9301 17.2963C21.1571 17.5263 21.3821 17.5392 21.6646 17.3387C21.8466 17.2096 21.8745 17.103 21.8745 16.5377V15.8857L22.4648 15.7696C23.2556 15.6141 23.7535 15.3815 24.2303 14.945C24.752 14.4674 25.0056 13.9416 25.0628 13.219C25.1743 11.812 24.6208 10.9659 23.2388 10.4305C22.8261 10.2706 22.3503 10.11 22.1814 10.0737L21.8745 10.0077V8.43623C21.8745 7.40273 21.9084 6.86469 21.9737 6.86469C22.2868 6.86469 22.9534 7.43058 23.1909 7.89809C23.3442 8.19984 23.6869 8.31727 24.0451 8.19075C24.3817 8.07179 24.5188 7.85541 24.5188 7.44302C24.5188 6.82439 23.4111 5.93866 22.3488 5.70773L21.8745 5.60466V4.95751C21.8745 4.4521 21.8366 4.27563 21.7018 4.15198C21.4737 3.94277 21.0922 3.95071 20.8975 4.16863ZM20.7412 8.26836V9.66085L20.4815 9.59596C19.5249 9.35699 19.0423 8.3655 19.4724 7.52255C19.6191 7.23515 20.497 6.72305 20.664 6.82755C20.7065 6.85416 20.7412 7.50255 20.7412 8.26836ZM22.6992 11.6934C23.3315 11.9918 23.5736 12.3737 23.574 13.0741C23.5745 13.7673 23.3125 14.1882 22.7024 14.4747C21.9103 14.8466 21.9254 14.8731 21.8959 13.0525C21.8662 11.2271 21.8323 11.2845 22.6992 11.6934ZM10.4946 20.7798C9.97146 20.9475 9.72686 21.0827 7.48335 22.4444L5.51099 23.6417L5.18536 23.2444C4.97958 22.9934 4.78135 22.8471 4.64658 22.8471C4.52929 22.8471 3.4609 23.5032 2.26982 24.3066C0.639705 25.4062 0.0844941 25.8302 0.0181976 26.0262C-0.0619815 26.2633 0.0702338 26.4993 1.50439 28.6799C3.18608 31.2367 3.30545 31.3598 3.79002 31.0381C4.21915 30.7532 4.11583 30.4975 2.70519 28.3528C1.97923 27.2489 1.41619 26.3186 1.45396 26.2854C1.81378 25.9693 4.44987 24.2943 4.49775 24.3514C4.65688 24.5411 8.65299 30.6929 8.65299 30.7481C8.65299 30.7826 8.75923 30.9386 8.88909 31.095C9.01894 31.2514 9.12519 31.4188 9.12519 31.4668C9.12519 31.515 8.45589 32.0081 7.63776 32.5629C6.16507 33.5615 6.14893 33.5694 6.00868 33.365C5.49795 32.6207 4.59851 30.3268 3.79002 31.0381C3.50424 31.3277 4.54695 33.3208 5.07732 34.1235C5.60599 34.9237 5.6806 34.9978 5.95939 35C6.25168 35.0023 10.4523 32.1296 10.5543 31.8577C10.6213 31.6791 10.5875 31.5365 10.4022 31.2162C10.2712 30.9897 10.164 30.7634 10.164 30.7135C10.164 30.6634 10.388 30.5037 10.6618 30.3585L11.1596 30.0944L13.6603 30.8218C15.0356 31.2218 16.9046 31.7696 17.8136 32.039C19.3638 32.4984 19.5161 32.526 20.269 32.4841C20.7581 32.4568 21.2571 32.364 21.546 32.247C22.0011 32.0625 30.1591 26.7624 31.0351 26.0822C31.9315 25.3861 32.2464 24.2319 31.7967 23.2905C31.4873 22.6428 30.7638 22.0237 30.155 21.8856C29.3387 21.7005 28.876 21.882 26.8798 23.1698C25.1455 24.2888 23.3544 25.5035 23.3544 25.7775C23.3544 25.9581 23.241 26.4987 23.1682 26.7236C23.2412 26.7236 26.2774 24.9836 27.3049 24.3196C28.5752 23.4988 29.2866 23.0969 29.5277 23.0642C29.9961 23.0005 30.4009 23.2466 30.6685 23.7577C30.9142 24.2272 30.8681 24.5353 30.4901 24.9492C30.2489 25.2134 22.1548 30.5956 21.3959 30.9965C21.2048 31.0975 20.7984 31.2209 20.4929 31.2707C19.8229 31.38 19.7102 31.3543 15.5471 30.1406C10.803 28.7576 11.0817 28.7993 10.0785 29.3222C9.7091 29.5148 9.39188 29.6548 9.37347 29.6333C9.20886 29.4407 6.19756 24.7616 6.19756 24.6983C6.19756 24.5653 10.2239 22.16 10.762 21.9715C11.7044 21.6416 11.4436 21.5828 18.0025 23.6032C22.1726 24.8877 22.1578 24.8803 22.1578 25.6788C22.1578 26.4705 21.76 27.0544 21.216 27.0609C21.0847 27.0625 19.7368 26.7329 18.2207 26.3284C15.5561 25.6176 15.4558 25.5984 15.2222 25.7535C14.9414 25.94 14.8933 26.3818 15.1279 26.6196C15.2908 26.7846 15.3171 26.7928 18.4747 27.6486C21.0468 28.3457 21.5082 28.3861 22.1996 27.9756C23.2334 27.3615 23.6847 25.6406 23.0922 24.5721C22.6446 23.7651 22.7055 23.7894 16.0321 21.7521C12.6514 20.7199 12.3576 20.6463 11.6407 20.6524C11.2181 20.6559 10.7023 20.7132 10.4946 20.7798Z" fill="white"/>
<path d="M6.2512 33.5329L1.43478 26.3073L0.34873 26.8336L5.21236 34.2028L6.2512 33.5329Z" fill="white"/>
<path fill-rule="evenodd" clip-rule="evenodd" d="M21.9166 0.0456543C22.0886 0.0620537 22.669 0.147015 23.2064 0.234535C29.0221 1.1815 33.9671 4.44974 37.0019 9.35246C39.11 12.7581 40.1206 16.4928 39.9885 20.3889C39.7737 26.7133 36.6245 32.3974 31.3358 36.0063C29.3553 37.3577 26.8284 38.4625 24.5259 38.9834C23.4398 39.2291 23.1625 39.2374 22.8599 39.0333C22.2566 38.6262 22.2828 37.7267 22.9072 37.4081C23.0503 37.3351 23.5366 37.1994 23.9881 37.1065C26.4929 36.5913 29.365 35.1924 31.5087 33.4436C34.3217 31.1489 36.4798 27.8229 37.384 24.3889C37.8493 22.6217 37.9387 21.8664 37.9377 19.7089C37.9369 17.5457 37.8822 17.0673 37.4336 15.2945C36.6435 12.1729 34.7481 9.00485 32.3638 6.82061C29.4213 4.12518 25.787 2.4735 21.8934 2.06221C20.6338 1.92917 18.1029 2.00846 16.9139 2.2183C15.1236 2.53422 13.3023 3.13614 11.772 3.91774C11.0279 4.29782 9.4479 5.26525 9.4511 5.33894C9.45227 5.36646 9.78269 5.85694 10.1852 6.42894C10.5877 7.00093 10.9092 7.4779 10.8996 7.48894C10.8775 7.51398 5.79591 7.03469 5.56868 6.98613C5.47668 6.96645 5.38319 6.9015 5.36083 6.8419C5.33848 6.7823 5.59893 5.74694 5.93958 4.54118C6.28032 3.33549 6.61323 2.15661 6.67944 1.92149L6.79982 1.49414L7.54452 2.56149C7.95412 3.14861 8.32237 3.61966 8.36286 3.6083C8.40327 3.59694 8.7082 3.41341 9.04033 3.20037C11.6673 1.5159 14.5522 0.477417 17.6278 0.109257C18.5428 -0.000343323 21.0454 -0.037384 21.9166 0.0456543ZM2.64835 11.8067C2.94992 11.9226 3.19904 12.1825 3.28275 12.4683C3.36639 12.754 3.34904 12.8468 3.07295 13.593C2.84462 14.21 2.71275 14.4525 2.52687 14.5977C2.0402 14.9775 1.27291 14.7573 1.03263 14.1687C0.921862 13.8975 0.923113 13.8341 1.04646 13.4305C1.32724 12.5124 1.59066 12.0273 1.8866 11.8836C2.16418 11.7488 2.42846 11.7221 2.64835 11.8067ZM9.76158 34.4469C10.1559 34.5996 11.2078 35.33 11.3374 35.5409C11.566 35.9137 11.4878 36.3585 11.1355 36.6889C10.7187 37.0798 10.3693 37.0519 9.52708 36.5603C8.80645 36.1396 8.51075 35.8009 8.51122 35.3971C8.51192 34.7724 9.21738 34.2363 9.76158 34.4469ZM16.4032 37.1891C17.2439 37.3718 17.5002 37.613 17.5002 38.2217C17.5002 38.5403 17.4593 38.6569 17.2775 38.8559C16.9682 39.1949 16.7361 39.2312 15.9105 39.0694C14.7838 38.8487 14.4516 38.5893 14.4516 37.9301C14.4516 37.6305 14.4945 37.529 14.7174 37.3009C14.9503 37.0626 15.0301 37.03 15.3623 37.0371C15.5708 37.0416 16.0392 37.11 16.4032 37.1891Z" fill="white"/>
</svg>
