<svg width="40" height="40" viewBox="0 0 40 40" fill="none" xmlns="http://www.w3.org/2000/svg">
<path fill-rule="evenodd" clip-rule="evenodd" d="M17.6218 0.122585C13.0881 0.671448 8.6665 2.85901 5.60821 6.0664C1.96187 9.89039 0 14.7654 0 20.0022C0 23.164 0.650975 25.9875 2.03423 28.8258C4.50195 33.8892 9.00212 37.6515 14.5242 39.2678C17.8594 40.2441 22.1406 40.2441 25.4758 39.2678C29.3362 38.1379 32.7639 35.9322 35.2603 32.9716C38.3447 29.3137 40 24.7843 40 20.0022C40 16.8379 39.3468 14.0069 37.9646 11.1797C35.4796 6.09698 31.0041 2.35463 25.4758 0.736498C23.2186 0.0758299 20.0526 -0.171687 17.6218 0.122585ZM21.5041 1.79251C26.3422 2.20948 30.9015 4.57968 33.9955 8.28617C37.0104 11.8979 38.5731 16.6882 38.223 21.2451C37.8676 25.8708 35.8625 30.1145 32.5514 33.2486C30.0524 35.614 27.0022 37.203 23.6279 37.8974C17.8246 39.0914 11.7895 37.3574 7.44862 33.2486C4.13748 30.1145 2.13236 25.8708 1.77699 21.2451C1.42691 16.6882 2.98959 11.8979 6.00447 8.28617C9.78659 3.75541 15.6717 1.28975 21.5041 1.79251ZM12.7426 15.0444C11.6528 15.3182 10.9041 16.2257 10.8328 17.3595C10.766 18.4203 11.2732 19.2903 12.2339 19.7633C12.7137 19.9996 12.8056 20.017 13.4297 19.9904C14.4525 19.9465 15.1382 19.5254 15.5951 18.6605C15.7807 18.3091 15.8101 18.1546 15.8115 17.5221C15.8133 16.6813 15.6554 16.2572 15.1453 15.7318C14.5784 15.1481 13.5272 14.8473 12.7426 15.0444ZM25.8798 15.1064C25.2787 15.3215 24.9141 15.5926 24.5991 16.0585C24.2194 16.62 24.1195 16.9918 24.1643 17.6755C24.2264 18.6227 24.691 19.3364 25.5285 19.7714C25.8041 19.9146 26.061 19.9686 26.5703 19.9904C27.1944 20.017 27.2863 19.9996 27.7661 19.7633C28.0688 19.6143 28.4059 19.3673 28.5732 19.1717C29.4429 18.1555 29.3668 16.6077 28.4013 15.6762C27.76 15.0575 26.6912 14.816 25.8798 15.1064Z" fill="white"/>
<path d="M14.494 29.9507C15.5691 30.4618 17.0027 30.9145 18.0649 31.0784C19.0903 31.2367 20.8063 31.2391 21.8514 31.0839C23.6353 30.8191 25.6087 30.048 27.2164 28.9877C28.1461 28.3746 28.9205 27.7375 29.0753 27.4585C29.3906 26.8897 28.9775 26.1697 28.3358 26.1697C28.0532 26.1697 27.8675 26.2741 27.2771 26.7657C25.8288 27.9714 23.6746 28.9823 21.84 29.317C21.3848 29.4001 20.673 29.4525 20 29.4525C19.327 29.4525 18.6152 29.4001 18.16 29.317C16.3253 28.9823 14.1711 27.9714 12.7228 26.7657C11.9473 26.1201 11.6736 26.0362 11.2187 26.305C10.9453 26.4665 10.813 26.7275 10.813 27.1052C10.813 27.3356 10.892 27.4597 11.2805 27.8392C11.913 28.4572 13.3799 29.421 14.494 29.9507Z" fill="white"/>
</svg>
