<svg width="17" height="18" viewBox="0 0 17 18" fill="none" xmlns="http://www.w3.org/2000/svg">
<path fill-rule="evenodd" clip-rule="evenodd" d="M7.6795 0.172348C7.97496 -0.0574494 8.38868 -0.0574494 8.68413 0.172348L16.0478 5.89962C16.2471 6.05463 16.3636 6.29297 16.3636 6.54545V15.5455C16.3636 16.1964 16.105 16.8208 15.6447 17.2811C15.1844 17.7414 14.5601 18 13.9091 18H2.45455C1.80356 18 1.17924 17.7414 0.71892 17.2811C0.258603 16.8208 0 16.1964 0 15.5455V6.54545C0 6.29297 0.116569 6.05463 0.315867 5.89962L7.6795 0.172348ZM1.63636 6.94561V15.5455C1.63636 15.7625 1.72256 15.9706 1.876 16.124C2.02944 16.2774 2.23755 16.3636 2.45455 16.3636H13.9091C14.1261 16.3636 14.3342 16.2774 14.4876 16.124C14.6411 15.9706 14.7273 15.7624 14.7273 15.5455V6.94561L8.18182 1.8547L1.63636 6.94561Z" fill="white"/>
<path fill-rule="evenodd" clip-rule="evenodd" d="M4.90906 8.99994C4.90906 8.54808 5.27537 8.18176 5.72724 8.18176H10.6363C11.0882 8.18176 11.4545 8.54808 11.4545 8.99994V17.1818C11.4545 17.6336 11.0882 17.9999 10.6363 17.9999C10.1845 17.9999 9.81815 17.6336 9.81815 17.1818V9.81813H6.54542V17.1818C6.54542 17.6336 6.17911 17.9999 5.72724 17.9999C5.27537 17.9999 4.90906 17.6336 4.90906 17.1818V8.99994Z" fill="white"/>
</svg>
