<svg width="15" height="15" viewBox="0 0 15 15" fill="none" xmlns="http://www.w3.org/2000/svg">
<path fill-rule="evenodd" clip-rule="evenodd" d="M7.5 1.25C10.9518 1.25 13.75 4.04822 13.75 7.5C13.75 10.9518 10.9518 13.75 7.5 13.75C4.04822 13.75 1.25 10.9518 1.25 7.5C1.25 4.04822 4.04822 1.25 7.5 1.25Z" fill="#FFBC41"/>
<path d="M6.79688 8.78809H7.80762V8.50977C7.80762 8.0166 7.98828 7.75293 8.61816 7.38184C9.2627 6.99609 9.64355 6.46387 9.64355 5.71191V5.70703C9.64355 4.65723 8.76953 3.89551 7.48535 3.89551C6.06934 3.89551 5.33691 4.73535 5.27344 5.78516L5.26855 5.84375H6.2793L6.28418 5.7998C6.33789 5.2041 6.75781 4.79395 7.43164 4.79395C8.0957 4.79395 8.53516 5.19434 8.53516 5.75098V5.75586C8.53516 6.25391 8.3252 6.53711 7.73438 6.89355C7.06543 7.29395 6.77734 7.7334 6.79199 8.39746L6.79688 8.78809ZM7.30957 11.0537C7.67578 11.0537 7.9541 10.7754 7.9541 10.4189C7.9541 10.0625 7.67578 9.78906 7.30957 9.78906C6.95312 9.78906 6.66992 10.0625 6.66992 10.4189C6.66992 10.7754 6.95312 11.0537 7.30957 11.0537Z" fill="#090909"/>
</svg>
