<svg width="13" height="13" viewBox="0 0 13 13" fill="none" xmlns="http://www.w3.org/2000/svg">
<path fill-rule="evenodd" clip-rule="evenodd" d="M8.41109 1.08398C9.23176 1.08398 9.982 1.54766 10.349 2.28169L11.5737 4.73109C11.7994 5.18237 11.9168 5.67999 11.9168 6.18454V10.834C11.9168 11.4323 11.4318 11.9173 10.8335 11.9173C10.2352 11.9173 9.75016 11.4323 9.75016 10.834V9.75065H3.25016V10.834C3.25016 11.4323 2.76514 11.9173 2.16683 11.9173C1.56852 11.9173 1.0835 11.4323 1.0835 10.834V6.18454C1.0835 5.67999 1.20097 5.18237 1.42661 4.73109L2.65131 2.28169C3.01833 1.54766 3.76856 1.08398 4.58924 1.08398H8.41109ZM10.2918 7.04232H9.2085C8.90934 7.04232 8.66683 7.28483 8.66683 7.58398C8.66683 7.86177 8.87593 8.09072 9.14533 8.12201L9.2085 8.12565H10.2918C10.591 8.12565 10.8335 7.88314 10.8335 7.58398C10.8335 7.3062 10.6244 7.07725 10.355 7.04596L10.2918 7.04232ZM3.79183 7.04232H2.7085C2.40934 7.04232 2.16683 7.28483 2.16683 7.58398C2.16683 7.86177 2.37593 8.09072 2.64533 8.12201L2.7085 8.12565H3.79183C4.09098 8.12565 4.3335 7.88314 4.3335 7.58398C4.3335 7.3062 4.12439 7.07725 3.855 7.04596L3.79183 7.04232ZM8.53896 2.16732H4.46137C4.08034 2.16732 3.72968 2.36722 3.5346 2.68963L3.4924 2.76617L2.16683 5.41732H10.8335L9.50792 2.76617C9.32441 2.39915 8.94929 2.16732 8.53896 2.16732Z" fill="#8370DC"/>
</svg>
