<svg width="25" height="24" viewBox="0 0 25 24" fill="none" xmlns="http://www.w3.org/2000/svg">
<path d="M9.616 14.187C6.062 14.655 3.5 15.96 3.5 17.5C3.5 19.433 7.529 21 12.5 21C17.471 21 21.5 19.433 21.5 17.5C21.5 15.96 18.938 14.655 15.384 14.187" stroke="#8370DC" stroke-width="1.5" stroke-linecap="round" stroke-linejoin="round"/>
<path fill-rule="evenodd" clip-rule="evenodd" d="M18.5 7.833C18.5 4.612 15.814 2 12.5 2C9.186 2 6.5 4.612 6.5 7.833C6.5 12.208 12.5 17 12.5 17C12.5 17 18.5 12.208 18.5 7.833Z" stroke="#8370DC" stroke-width="1.5" stroke-linecap="round" stroke-linejoin="round"/>
<path d="M13.9142 6.58579C14.6953 7.36684 14.6953 8.63317 13.9142 9.41422C13.1332 10.1953 11.8668 10.1953 11.0858 9.41422C10.3047 8.63317 10.3047 7.36684 11.0858 6.58579C11.8668 5.80474 13.1332 5.80474 13.9142 6.58579Z" stroke="#8370DC" stroke-width="1.5" stroke-linecap="round" stroke-linejoin="round"/>
</svg>
