<svg width="40" height="40" viewBox="0 0 40 40" fill="none" xmlns="http://www.w3.org/2000/svg">
<path fill-rule="evenodd" clip-rule="evenodd" d="M18.8491 7.22504L18.6246 7.41808L18.5822 20.512L24.7923 23.6164C31.5055 26.9722 31.2634 26.873 31.6237 26.415C31.8174 26.1687 31.8286 25.9304 31.6577 25.6865C31.5779 25.5725 29.3986 24.4391 25.7792 22.6293L20.0275 19.7532L19.9846 7.41808L19.7601 7.22504C19.4733 6.97832 19.136 6.97832 18.8491 7.22504Z" fill="white"/>
<path fill-rule="evenodd" clip-rule="evenodd" d="M21.9167 39.1321C22.0886 39.1157 22.669 39.0307 23.2064 38.9432C29.0222 37.9962 33.9671 34.728 37.002 29.8253C39.1101 26.4197 40.1207 22.685 39.9885 18.7888C39.7738 12.4644 36.6246 6.78032 31.3359 3.17144C29.3554 1.82 26.8284 0.715275 24.5259 0.194315C23.4399 -0.0513648 23.1626 -0.0596837 22.8599 0.144476C22.2567 0.551516 22.2829 1.45104 22.9073 1.76968C23.0503 1.84264 23.5367 1.97832 23.9881 2.0712C26.4929 2.58648 29.3651 3.98536 31.5088 5.73416C34.3218 8.02888 36.4799 11.3549 37.3841 14.7888C37.8493 16.5561 37.9387 17.3114 37.9378 19.4688C37.9369 21.632 37.8823 22.1105 37.4336 23.8833C36.6436 27.0049 34.7482 30.1729 32.3638 32.3571C29.4214 35.0526 25.7871 36.7042 21.8935 37.1155C20.6339 37.2486 18.103 37.1693 16.914 36.9594C15.1236 36.6435 13.3024 36.0416 11.7721 35.26C11.028 34.8799 9.44796 33.9125 9.45116 33.8388C9.45234 33.8113 9.78275 33.3208 10.1853 32.7488C10.5878 32.1768 10.9093 31.6998 10.8997 31.6888C10.8776 31.6638 5.79597 32.143 5.56874 32.1916C5.47674 32.2113 5.38325 32.2762 5.36089 32.3358C5.33854 32.3954 5.59899 33.4308 5.93964 34.6366C6.28038 35.8422 6.61329 37.0211 6.6795 37.2562L6.79988 37.6836L7.54458 36.6162C7.95418 36.0291 8.32242 35.5581 8.36292 35.5694C8.40333 35.5808 8.70826 35.7643 9.04039 35.9774C11.6674 37.6618 14.5523 38.7003 17.6279 39.0685C18.5428 39.1781 21.0455 39.2151 21.9167 39.1321ZM2.64841 27.371C2.94998 27.2551 3.1991 26.9953 3.28281 26.7094C3.36645 26.4238 3.3491 26.331 3.07301 25.5847C2.84468 24.9678 2.71281 24.7252 2.52693 24.5801C2.04026 24.2002 1.27297 24.4205 1.03269 25.009C0.921922 25.2802 0.923173 25.3436 1.04652 25.7473C1.3273 26.6654 1.59072 27.1504 1.88666 27.2942C2.16424 27.429 2.42852 27.4557 2.64841 27.371ZM1.69203 20.835L1.98398 20.5614L2.0104 19.7694C2.04159 18.8345 1.93177 18.4758 1.53921 18.2309C1.01471 17.9036 0.326674 18.1223 0.0933446 18.6906C-0.00194153 18.9226 -0.0186667 19.1534 0.0179157 19.7302C0.0437109 20.138 0.103197 20.545 0.150019 20.6345C0.285561 20.8936 0.700395 21.1082 1.06669 21.1085C1.33738 21.1087 1.45487 21.0574 1.69203 20.835ZM2.09162 14.7827C2.47847 14.6979 2.6896 14.4296 2.95709 13.6834C3.27914 12.7847 3.27343 12.4525 2.92981 12.1008C2.6989 11.8645 2.61307 11.8288 2.27594 11.8288C1.63973 11.8288 1.43978 12.0551 1.05168 13.2146C0.875098 13.7421 0.855479 13.8818 0.926846 14.1029C1.091 14.6121 1.57689 14.8957 2.09162 14.7827ZM5.31978 8.9684C5.53677 8.82352 6.22855 7.99752 6.38762 7.69336C6.51668 7.44648 6.50034 6.93616 6.35659 6.72616C6.18306 6.47248 5.83388 6.3088 5.46657 6.3088C5.21112 6.3088 5.08738 6.36656 4.82396 6.6088C4.28648 7.10312 3.82092 7.8052 3.82092 8.1216C3.82092 8.4532 3.99148 8.81392 4.22871 8.98392C4.46251 9.15152 5.05815 9.14304 5.31978 8.9684ZM9.76164 4.7308C10.1559 4.57816 11.2079 3.84776 11.3374 3.6368C11.5661 3.26408 11.4879 2.81928 11.1355 2.48888C10.7187 2.09792 10.3694 2.12584 9.52714 2.61744C8.80651 3.03816 8.51081 3.3768 8.51128 3.78064C8.51198 4.40536 9.21744 4.94144 9.76164 4.7308ZM16.4032 1.98864C17.244 1.80592 17.5002 1.56472 17.5002 0.956C17.5002 0.63744 17.4593 0.52088 17.2776 0.32184C16.9682 -0.0172004 16.7361 -0.0534409 15.9106 0.108319C14.7838 0.329039 14.4517 0.588396 14.4517 1.2476C14.4517 1.5472 14.4946 1.64872 14.7175 1.8768C14.9503 2.11512 15.0302 2.14776 15.3623 2.14064C15.5708 2.13616 16.0393 2.06776 16.4032 1.98864Z" fill="white"/>
</svg>
