<svg width="30" height="28" viewBox="0 0 30 28" fill="none" xmlns="http://www.w3.org/2000/svg">
<path fill-rule="evenodd" clip-rule="evenodd" d="M1.2642 0.105275C0.635708 0.327779 0.190136 0.833336 0.0544939 1.4779C0.00552781 1.71054 -0.00873052 5.36748 0.00490244 14.2011L0.0239761 26.5978L0.155678 26.8879C0.348165 27.3119 0.6419 27.6207 1.04445 27.8222L1.39978 28H8.12246H14.8451L15.1359 27.863C15.5075 27.688 15.9148 27.2729 16.0865 26.8941L16.2209 26.5978V14.0099V1.42194L16.0892 1.13188C15.8967 0.707839 15.603 0.399036 15.2005 0.197566L14.8451 0.0197412L8.21626 0.00527307C1.98012 -0.00830278 1.56825 -0.0023754 1.2642 0.105275ZM14.6797 1.35342C14.9407 1.49097 15.0015 1.70315 15.0015 2.47659V3.17469H8.12246H1.24344L1.24563 2.45766C1.248 1.68836 1.30241 1.49874 1.563 1.35158C1.79382 1.22117 14.4322 1.22296 14.6797 1.35342ZM15.0015 13.6912V22.933H8.12246H1.24344V13.6912V4.44942H8.12246H15.0015V13.6912ZM17.5029 8.91096V9.54833H18.6554C20.0555 9.54833 20.0044 9.52035 20.0044 10.2858V10.8231H18.7537H17.5029V11.4604V12.0978L19.4885 12.0987C21.7145 12.0998 21.9799 12.1343 22.6913 12.5154C23.2029 12.7893 23.8077 13.3905 24.0576 13.8735C24.1598 14.0712 24.491 14.8209 24.7933 15.5395C25.3743 16.9203 25.428 17.1607 25.2252 17.4761C24.9899 17.8421 25.0817 17.8341 21.1332 17.8341H17.5029V18.4714V19.1088H21.1904C25.246 19.1088 25.1719 19.1152 25.7465 18.7123C25.8951 18.6081 26.0271 18.5335 26.0399 18.5465C26.0526 18.5595 26.2477 19.0093 26.4732 19.5462L26.8834 20.5222V22.4319C26.8834 24.5042 26.8668 24.6177 26.5412 24.7689C26.419 24.8257 25.247 24.8451 21.9401 24.8451H17.5029V25.4824V26.1198H20.3093H23.1155L23.1432 26.6567C23.1752 27.2788 23.331 27.5917 23.7368 27.8488C23.9723 27.998 23.9971 28 25.6372 28H27.299L27.5526 27.829C27.6919 27.735 27.8729 27.5486 27.9545 27.4147L28.1029 27.1714L28.1213 23.8253C28.1386 20.6954 28.1218 20.247 27.9722 19.85C27.9388 19.7612 27.987 19.7461 28.3039 19.7461C29.3592 19.7461 30.0837 18.9737 29.9922 17.946C29.9228 17.1661 29.4301 16.4682 28.7045 16.1221C28.3822 15.9684 28.268 15.9518 27.3288 15.9223L26.3045 15.8901L25.7634 14.6154C25.4659 13.9143 25.1178 13.1752 24.9899 12.9731C24.4676 12.1474 23.5704 11.4356 22.6502 11.1166C22.2995 10.995 21.5028 10.8231 21.29 10.8231C21.2708 10.8231 21.2551 10.5557 21.2551 10.2289C21.2551 9.47994 21.1369 9.10581 20.7877 8.74997C20.3769 8.33122 20.1257 8.2736 18.7113 8.2736H17.5029V8.91096ZM28.2354 17.3001C28.6608 17.5059 28.9028 18.1283 28.6486 18.3627C28.5456 18.4578 28.4311 18.4734 27.9508 18.458L27.3762 18.4395L27.1644 17.9428C26.8152 17.1238 26.7875 17.1967 27.4482 17.1967C27.8475 17.1967 28.0863 17.228 28.2354 17.3001ZM22.5621 20.5609C21.8935 20.9169 21.6741 21.8132 22.1034 22.4344C22.3655 22.8137 22.7627 23.0166 23.1625 22.9753C23.5064 22.9398 24.7544 22.438 24.959 22.253C25.03 22.1888 25.143 22.0111 25.2101 21.8582C25.3758 21.4806 25.3188 21.0965 25.051 20.7856C24.7539 20.4408 24.5574 20.3835 23.6719 20.3835C22.9439 20.3835 22.8745 20.3946 22.5621 20.5609ZM15.0015 25.2245C15.0015 25.8771 14.9747 26.3011 14.9267 26.4084C14.7641 26.7722 15.0589 26.7571 8.12246 26.7571C1.18603 26.7571 1.48083 26.7722 1.31817 26.4084C1.2702 26.3011 1.24344 25.8771 1.24344 25.2245V24.2077H8.12246H15.0015V25.2245ZM5.94056 24.934C5.64463 25.1011 5.54601 25.4684 5.71011 25.7919C5.86933 26.1056 5.97376 26.1198 8.12852 26.1198C10.2999 26.1198 10.3997 26.1054 10.5492 25.771C10.6954 25.444 10.59 25.0876 10.3022 24.9359C10.0593 24.8079 6.16675 24.8062 5.94056 24.934ZM26.8834 26.3747V26.7571H25.6327H24.382V26.4385V26.1198L25.4607 26.1134C26.355 26.1082 26.6594 26.0833 26.8678 25.9987C26.8763 25.9952 26.8834 26.1644 26.8834 26.3747Z" fill="#8370DC"/>
</svg>
