<svg width="20" height="18" viewBox="0 0 20 18" fill="none" xmlns="http://www.w3.org/2000/svg">
<path fill-rule="evenodd" clip-rule="evenodd" d="M2.69998 5.40032C2.20292 5.40032 1.79998 5.80326 1.79998 6.30032V15.3002C1.79998 15.7973 2.20292 16.2002 2.69998 16.2002H17.0998C17.5969 16.2002 17.9998 15.7973 17.9998 15.3002V6.30032C17.9998 5.80326 17.5969 5.40032 17.0998 5.40032H2.69998ZM0 6.30032C0 4.80916 1.20882 3.60034 2.69998 3.60034H17.0998C18.591 3.60034 19.7998 4.80916 19.7998 6.30032V15.3002C19.7998 16.7914 18.591 18.0002 17.0998 18.0002H2.69998C1.20882 18.0002 0 16.7914 0 15.3002V6.30032Z" fill="white"/>
<path fill-rule="evenodd" clip-rule="evenodd" d="M6.19083 0.790804C6.69717 0.284461 7.38392 0 8.1 0H11.7C12.416 0 13.1028 0.284461 13.6091 0.790804C14.1155 1.29715 14.3999 1.9839 14.3999 2.69998V17.0998C14.3999 17.5969 13.997 17.9998 13.4999 17.9998C13.0029 17.9998 12.6 17.5969 12.6 17.0998V2.69998C12.6 2.46128 12.5051 2.23237 12.3364 2.06358C12.1676 1.8948 11.9387 1.79998 11.7 1.79998H8.1C7.86131 1.79998 7.63239 1.8948 7.46361 2.06358C7.29483 2.23237 7.20001 2.46128 7.20001 2.69998V17.0998C7.20001 17.5969 6.79707 17.9998 6.30002 17.9998C5.80296 17.9998 5.40002 17.5969 5.40002 17.0998V2.69998C5.40002 1.9839 5.68449 1.29715 6.19083 0.790804Z" fill="white"/>
</svg>
