<svg width="26" height="20" viewBox="0 0 26 20" fill="none" xmlns="http://www.w3.org/2000/svg">
<path fill-rule="evenodd" clip-rule="evenodd" d="M3.25 2.16667C2.65169 2.16667 2.16667 2.65169 2.16667 3.25V16.25C2.16667 16.8483 2.65169 17.3333 3.25 17.3333H22.75C23.3483 17.3333 23.8333 16.8483 23.8333 16.25V3.25C23.8333 2.65169 23.3483 2.16667 22.75 2.16667H3.25ZM0 3.25C0 1.45507 1.45507 0 3.25 0H22.75C24.5449 0 26 1.45507 26 3.25V16.25C26 18.0449 24.5449 19.5 22.75 19.5H3.25C1.45507 19.5 0 18.0449 0 16.25V3.25Z" fill="#8370DC"/>
<path fill-rule="evenodd" clip-rule="evenodd" d="M0 7.58321C0 6.9849 0.485025 6.49988 1.08333 6.49988H24.9167C25.515 6.49988 26 6.9849 26 7.58321C26 8.18152 25.515 8.66654 24.9167 8.66654H1.08333C0.485025 8.66654 0 8.18152 0 7.58321Z" fill="#8370DC"/>
</svg>
