<svg width="38" height="16" viewBox="0 0 38 16" fill="none" xmlns="http://www.w3.org/2000/svg">
<g clip-path="url(#clip0_1_11197)">
<path d="M31.0326 16.0023C30.8924 15.9744 30.8789 15.8793 30.8811 15.7516C30.8811 15.4151 30.8811 15.0785 30.8811 14.7419C30.8811 14.5283 30.8811 14.5261 31.1072 14.5469C31.3389 14.5751 31.5733 14.5696 31.8035 14.5307C31.9952 14.4978 32.1768 14.4194 32.3338 14.3017C32.4908 14.1841 32.6189 14.0304 32.7078 13.8529C32.8591 13.5315 32.9816 13.1966 33.074 12.8525C33.0989 12.7805 33.0604 12.7271 33.0401 12.6691C32.059 9.88364 31.0793 7.0982 30.1012 4.31277L30.0447 4.15959H30.9919C31.2564 4.15959 31.5209 4.15959 31.7854 4.15959C31.9052 4.15959 31.9459 4.19903 31.9798 4.31045C32.5721 6.2881 33.1674 8.26578 33.7658 10.2434C33.8607 10.5522 33.9534 10.8609 34.0506 11.1719C34.1207 11.1348 34.1162 11.0697 34.132 11.0187C34.8027 8.79497 35.4734 6.56972 36.144 4.34292C36.187 4.20132 36.2367 4.14798 36.3882 4.15262C36.881 4.15262 37.3716 4.15262 37.8644 4.15262C38 4.15262 38.0317 4.17118 37.982 4.31509C37.3399 6.1442 36.7009 7.9756 36.0649 9.80934C35.6376 11.0349 35.2126 12.2629 34.7786 13.4861C34.6188 13.9562 34.4007 14.4032 34.1297 14.8162C33.9121 15.1494 33.6232 15.4272 33.2851 15.6283C32.947 15.8295 32.5686 15.9486 32.1788 15.9768C32.1448 15.9768 32.1019 15.9559 32.0838 16.0092L31.0326 16.0023Z" fill="#8370DC"/>
<path d="M7.32924 12.8525C7.06403 12.8494 6.80289 12.7851 6.56512 12.6644C6.1451 12.4466 5.6791 12.339 5.20871 12.351C4.85072 12.3835 4.50106 12.4801 4.17558 12.6365C3.97869 12.7286 3.77246 12.7979 3.56068 12.8432C3.36389 12.8842 3.16072 12.8805 2.96545 12.8324C2.77019 12.7843 2.58756 12.6929 2.43033 12.5646C2.22638 12.409 2.04186 12.2281 1.88097 12.0261C0.637591 10.4663 -0.0677516 8.6998 0.00911202 6.66412C0.0543259 5.49191 0.461269 4.46599 1.41302 3.75338C1.78536 3.44871 2.23011 3.25152 2.70141 3.18215C3.17271 3.11279 3.6535 3.17372 4.0942 3.35874C4.32027 3.44462 4.54633 3.52821 4.75883 3.61874C5.02575 3.72899 5.32386 3.72899 5.59078 3.61874C6.01407 3.42306 6.45567 3.27219 6.90875 3.16844C8.07301 2.98274 9.05867 3.31235 9.81374 4.27101C9.88382 4.36153 9.87478 4.40096 9.78435 4.46827C9.4605 4.68531 9.18469 4.96981 8.97478 5.3033C8.76487 5.6368 8.62556 6.01185 8.56586 6.40417C8.47064 6.99241 8.56179 7.59648 8.8259 8.12756C9.09001 8.65863 9.51314 9.08867 10.033 9.3544C10.18 9.43564 10.2094 9.49833 10.1528 9.65617C9.81422 10.5981 9.30317 11.4648 8.64724 12.2095C8.49014 12.4131 8.2896 12.5769 8.06109 12.6884C7.83259 12.7999 7.5822 12.856 7.32924 12.8525Z" fill="#8370DC"/>
<path d="M13.5505 6.82901C13.5505 4.9086 13.5505 2.98896 13.5505 1.07011C13.5505 0.942441 13.5709 0.898343 13.7088 0.900664C15.1104 0.900664 16.512 0.900664 17.9137 0.900664C18.437 0.879061 18.9589 0.971248 19.4452 1.17126C19.9314 1.37128 20.371 1.6746 20.735 2.06126C21.2944 2.67767 21.6312 3.47235 21.689 4.31281C21.807 5.26866 21.5916 6.23653 21.0809 7.04486C20.7825 7.50965 20.3842 7.89785 19.9166 8.17956C19.449 8.46128 18.9246 8.62898 18.3839 8.6697C17.4344 8.76719 16.4804 8.69288 15.5286 8.70217C15.384 8.70217 15.35 8.74164 15.3523 8.88788C15.3523 10.1297 15.3523 11.3716 15.3523 12.6018C15.3523 12.7341 15.3139 12.7619 15.1918 12.7596C14.7012 12.7596 14.2084 12.7596 13.7178 12.7596C13.5822 12.7596 13.5415 12.7341 13.5415 12.5855C13.5528 10.6798 13.5505 8.75328 13.5505 6.82901ZM15.3591 4.79331C15.3591 5.5361 15.3591 6.27884 15.3591 7.02163C15.3591 7.14929 15.393 7.17254 15.5083 7.17021C15.8632 7.17021 16.2159 7.17021 16.5708 7.17021C17.0566 7.19194 17.5432 7.17637 18.0267 7.12375C18.7682 6.9984 19.3582 6.64559 19.677 5.91674C19.8588 5.46311 19.9249 4.96942 19.8692 4.48225C19.8511 4.0633 19.7076 3.66027 19.4585 3.328C19.2093 2.99573 18.8664 2.75036 18.4766 2.6253C18.227 2.53596 17.9654 2.48737 17.7012 2.48136C16.9597 2.48136 16.2204 2.4814 15.4812 2.46747C15.3794 2.46747 15.3591 2.49766 15.3591 2.59515C15.3546 3.31936 15.3523 4.05517 15.3523 4.79331H15.3591Z" fill="#8370DC"/>
<path d="M27.6844 11.3622C27.445 11.7444 27.1328 12.0729 26.7666 12.3279C25.6182 13.1125 23.8887 13.0242 22.9234 12.1352C21.9581 11.2462 21.8903 9.51224 22.8533 8.63251C23.3074 8.24709 23.8539 7.99381 24.4358 7.89903C25.141 7.7885 25.8523 7.72414 26.5654 7.70635C26.8819 7.68082 27.1984 7.66462 27.5149 7.64373C27.5669 7.64373 27.6211 7.64371 27.6189 7.56479C27.629 7.27758 27.6222 6.99001 27.5985 6.70364C27.5769 6.46657 27.489 6.24095 27.3455 6.05398C27.2019 5.86701 27.0087 5.72665 26.7892 5.64981C26.238 5.42578 25.6245 5.42578 25.0733 5.64981C24.8682 5.72477 24.6839 5.85002 24.5366 6.01465C24.3892 6.17928 24.2833 6.37833 24.2278 6.59455C24.2052 6.68508 24.1645 6.69899 24.0877 6.69899C23.6355 6.69899 23.1676 6.69899 22.7064 6.69899C22.5888 6.69899 22.582 6.65254 22.5911 6.55737C22.6249 6.19448 22.7365 5.84376 22.9179 5.53035C23.0992 5.21693 23.3458 4.94857 23.64 4.74451C24.2571 4.29792 24.9921 4.05502 25.747 4.04815C26.5848 3.97907 27.4232 4.17427 28.1501 4.60759C28.519 4.8262 28.8243 5.14198 29.0346 5.5223C29.2448 5.90262 29.3523 6.3337 29.346 6.77096C29.3618 8.72773 29.346 10.6845 29.346 12.6435C29.346 12.741 29.3257 12.7712 29.2262 12.7712C28.7492 12.7712 28.2745 12.7712 27.7975 12.7712C27.6912 12.7712 27.6776 12.7317 27.6776 12.6389C27.6867 12.2188 27.6844 11.794 27.6844 11.3622ZM27.6144 9.37069C27.6144 9.24535 27.6144 9.11998 27.6144 8.99695C27.6144 8.87393 27.5917 8.87858 27.4991 8.88554C26.8593 8.92964 26.2217 8.96679 25.5842 9.01322C25.2027 9.02352 24.8279 9.11853 24.4855 9.29175C24.3102 9.37726 24.1626 9.51308 24.0607 9.68277C23.9589 9.85246 23.907 10.0488 23.9113 10.2481C23.9047 10.4497 23.955 10.6489 24.0561 10.8219C24.1571 10.9948 24.3047 11.1341 24.481 11.223C24.787 11.3864 25.1287 11.4664 25.4735 11.4551C26.5812 11.4644 27.698 10.7448 27.6144 9.37069Z" fill="#8370DC"/>
<path d="M7.60718 0.255298C7.59619 0.849112 7.40362 1.42434 7.05675 1.89963C6.70988 2.37492 6.22626 2.72618 5.67428 2.90376C5.52596 2.94035 5.37454 2.96212 5.22214 2.96876C5.10232 2.98037 5.05485 2.93628 5.05259 2.81094C5.04881 2.37048 5.15546 1.93644 5.3623 1.55054C5.55655 1.15442 5.83813 0.81025 6.18467 0.545505C6.53121 0.280759 6.93314 0.102725 7.35848 0.0255024C7.60716 -0.0255639 7.60944 -0.0162814 7.60718 0.255298Z" fill="#8370DC"/>
</g>
<defs>
<clipPath id="clip0_1_11197">
<rect width="38" height="16" fill="white"/>
</clipPath>
</defs>
</svg>
