<svg width="16" height="22" viewBox="0 0 16 22" fill="none" xmlns="http://www.w3.org/2000/svg">
<path d="M2.88651 14.0585C1.96881 14.0585 1.14404 14.0585 0.293136 14.0585C0.0549981 14.0585 -0.0147008 13.9937 0.00272393 13.7641C0.0201487 13.2518 0.0259569 12.7396 0.00272393 12.2303C0.00272393 11.9359 0.0579043 11.824 0.38607 11.8299C1.68712 11.8505 2.99978 11.8299 4.29792 11.8299C4.4502 11.8554 4.60642 11.8229 4.73644 11.7386C5.50893 11.1086 6.28723 10.4874 7.07425 9.85443C6.94356 9.73961 6.81579 9.79555 6.69963 9.79555C4.59704 9.79555 2.49155 9.79555 0.388968 9.79555C0.0724189 9.79555 -0.0176049 9.719 0.00272393 9.40105C0.0317662 8.91868 0.0317662 8.43496 0.00272393 7.95259C-0.0147008 7.64052 0.0608085 7.5522 0.38607 7.5522C3.23211 7.56986 6.07814 7.5522 8.92708 7.56986C9.07102 7.57961 9.21511 7.55298 9.34639 7.49234C9.47767 7.43171 9.59206 7.33898 9.67926 7.22247C9.9353 6.94036 10.1328 6.60898 10.2601 6.24799C10.5505 5.28235 10.1178 4.38442 9.15361 3.9752C7.78287 3.38639 6.17108 3.78384 5.00653 4.97912C4.70253 5.29342 4.43013 5.6376 4.19337 6.00658C3.32213 5.41777 2.49446 4.82897 1.64355 4.24016C1.45188 4.11062 1.45188 4.03114 1.57385 3.85449C2.20139 2.89285 3.0361 2.0882 4.01507 1.50121C4.99403 0.914229 6.09169 0.560232 7.22527 0.465916C8.62914 0.304014 10.0503 0.519257 11.3462 1.09005C13.0887 1.86727 14.0906 3.35695 14.0383 5.12337C14.0154 5.8636 13.8075 6.58583 13.4343 7.22247C13.3733 7.32845 13.2687 7.41383 13.2687 7.57869C14.0819 7.57869 14.8921 7.57869 15.7024 7.57869C15.9115 7.57869 15.9928 7.62285 15.9928 7.85543C15.9754 8.40891 15.9725 8.96533 15.9928 9.51881C15.9928 9.77789 15.9028 9.81322 15.6792 9.81322C14.291 9.81322 12.9028 9.81322 11.5147 9.81322C11.3537 9.79125 11.1904 9.83002 11.0558 9.92214C10.3211 10.5345 9.5776 11.138 8.83415 11.7504C8.9416 11.8858 9.0752 11.8181 9.18846 11.8181C11.3346 11.8181 13.4807 11.8181 15.624 11.8181C15.9144 11.8181 16.0131 11.874 15.9986 12.1832C15.9696 12.695 15.9696 13.2081 15.9986 13.7199C16.0131 14.0143 15.8999 14.0585 15.6414 14.0585C12.8505 14.0585 10.0597 14.0585 7.27173 14.0585C6.8624 14.0503 6.46535 14.2003 6.16115 14.4781C5.85695 14.7558 5.6684 15.1405 5.63381 15.5541C5.47989 16.823 6.24949 17.6502 7.6667 17.8121C9.52824 18.0182 10.9774 17.3205 12.0693 15.819C12.2436 15.5776 12.3423 15.6012 12.5485 15.7454C13.323 16.297 14.1109 16.8367 14.9125 17.3647C15.1013 17.4912 15.139 17.5648 14.988 17.7768C13.6637 19.6168 11.8457 20.6384 9.67926 21.0476C7.98072 21.3869 6.2209 21.2034 4.62608 20.5207C2.88361 19.7817 1.88749 18.295 1.93977 16.5344C1.97287 15.6249 2.30627 14.753 2.88651 14.0585Z" fill="#8370DC"/>
</svg>
