<svg width="44" height="39" viewBox="0 0 44 39" fill="none" xmlns="http://www.w3.org/2000/svg">
<path fill-rule="evenodd" clip-rule="evenodd" d="M12.2844 6.56268C13.5837 3.24429 14.8101 0.410273 15.0094 0.264624C15.209 0.119187 15.4929 0 15.6406 0C16.0207 0 16.5905 0.602495 16.5905 1.00451C16.5905 1.19123 15.6 3.85356 14.3894 6.92087C13.1788 9.98818 12.2365 12.5447 12.295 12.602C12.3538 12.6592 17.0418 12.6814 22.7129 12.6511L33.0239 12.5961L31.1709 6.72208C29.3687 1.00917 29.3285 0.836422 29.7109 0.424032C30.1954 -0.0984421 30.7328 -0.118128 31.1638 0.370474C31.3435 0.574128 31.9506 2.21755 32.5132 4.02229C33.0755 5.82702 33.9237 8.51814 34.398 10.0028L35.2606 12.702L38.5586 12.7028C41.447 12.7034 41.943 12.7549 42.5509 13.1169C43.4227 13.6358 43.917 14.5509 43.917 15.6467C43.917 17.201 40.288 34.9577 39.7679 35.948C39.4489 36.5556 38.9579 37.0499 38.2958 37.4299L37.3022 38H22.5546H13.3337C14.1309 37.4125 14.8277 36.6967 15.3937 35.883H22.5546C37.0847 35.883 37.1847 35.8801 37.6334 35.4423C38.0045 35.0798 38.4339 33.2554 40.0475 25.184L42.0102 15.3666L41.5329 14.9894C41.0828 14.6337 40.0002 14.6134 22.5878 14.6354C12.4306 14.6483 3.94937 14.7019 3.74073 14.7544C3.5321 14.8069 3.30936 15.0573 3.24603 15.3107C3.19472 15.5161 3.71827 18.5243 4.48057 22.4641C3.79069 22.7575 3.14496 23.1346 2.5561 23.5825L0.916992 15.2885L1.32559 14.4853C2.09832 12.9668 2.51538 12.8211 6.43933 12.702L9.92173 12.5961L12.2844 6.56268ZM16.5905 25.2981C16.5905 25.0535 16.7076 24.7392 16.8507 24.5995C17.0394 24.4153 18.6098 24.3454 22.5546 24.3454C28.2713 24.3454 28.5187 24.385 28.5187 25.2981C28.5187 26.2111 28.2713 26.2507 22.5546 26.2507C16.8379 26.2507 16.5905 26.2111 16.5905 25.2981Z" fill="white"/>
<circle cx="8" cy="30.75" r="7.5" stroke="white"/>
<path d="M11 27.75L8 30.75M8 30.75L5 33.75M8 30.75L11 33.75M8 30.75L5 27.75" stroke="white" stroke-linecap="round"/>
</svg>
