<svg width="24" height="20" viewBox="0 0 24 20" fill="none" xmlns="http://www.w3.org/2000/svg">
<path fill-rule="evenodd" clip-rule="evenodd" d="M3.2727 2.4318C2.6752 2.4318 2.1818 2.9252 2.1818 3.5227V16.6135C2.1818 17.211 2.6752 17.7044 3.2727 17.7044H20.7271C21.3246 17.7044 21.818 17.211 21.818 16.6135V3.5227C21.818 2.9252 21.3246 2.4318 20.7271 2.4318H3.2727ZM0 3.5227C0 1.72022 1.47022 0.25 3.2727 0.25H20.7271C22.5296 0.25 23.9998 1.72022 23.9998 3.5227V16.6135C23.9998 18.416 22.5296 19.8862 20.7271 19.8862H3.2727C1.47022 19.8862 0 18.416 0 16.6135V3.5227Z" fill="#8370DC"/>
<path fill-rule="evenodd" clip-rule="evenodd" d="M0.197294 2.89723C0.542798 2.40365 1.22301 2.28361 1.71658 2.62912L12 9.82751L22.2834 2.62912C22.777 2.28361 23.4572 2.40365 23.8027 2.89723C24.1482 3.3908 24.0282 4.07101 23.5346 4.41652L12.6256 12.0528C12.25 12.3158 11.75 12.3158 11.3744 12.0528L0.465404 4.41652C-0.0281734 4.07101 -0.14821 3.3908 0.197294 2.89723Z" fill="#8370DC"/>
</svg>
