<svg width="34" height="27" viewBox="0 0 34 27" fill="none" xmlns="http://www.w3.org/2000/svg">
<path d="M2.36064 20.2053L2.4294 20.1327C5.81859 23.3419 10.9501 21.8696 12.1365 17.3508C12.2916 16.7589 12.2782 16.1549 12.2645 15.536C12.2613 15.3892 12.258 15.2416 12.257 15.0931M2.36064 20.2053L13.0293 14.0371L13.026 13.9372C12.8642 13.9426 12.73 13.9825 12.6212 14.0535C12.5124 14.1244 12.4352 14.2223 12.3813 14.3337C12.2753 14.5524 12.2549 14.8315 12.257 15.0931M2.36064 20.2053L2.42939 20.1327C2.24787 19.9609 2.0514 19.7964 1.83702 19.7382C1.72657 19.7082 1.61124 19.7061 1.49259 19.7441C1.37504 19.7818 1.26033 19.8567 1.14664 19.9712L1.14648 19.9713M2.36064 20.2053L1.14648 19.9713M12.257 15.0931L12.3569 15.0924L12.257 15.0932C12.257 15.0932 12.257 15.0931 12.257 15.0931ZM1.14648 19.9713C1.0276 20.0916 0.953448 20.2125 0.920253 20.3353C0.886783 20.4591 0.897032 20.5773 0.93457 20.6876C1.00726 20.9012 1.1852 21.0909 1.34839 21.2551L1.34861 21.2553M1.14648 19.9713L1.34861 21.2553M1.34861 21.2553C2.59282 22.4988 4.08887 23.2255 5.83318 23.3832C10.5515 23.8121 14.0446 19.8431 13.8138 15.8379M1.34861 21.2553L13.8138 15.8379M28.5054 24.4685H28.5055L28.5258 24.4683C28.7348 24.4666 28.9705 24.4647 29.1568 24.5452C29.2572 24.5886 29.3457 24.6564 29.4098 24.7601C29.4731 24.8625 29.5083 24.9929 29.5152 25.155L29.5152 25.1553C29.5275 25.4643 29.4203 25.6716 29.2351 25.8026C29.0591 25.9271 28.8246 25.9735 28.5997 25.9976C28.2091 26.0398 27.8244 26.0739 27.4262 26.0998L27.419 26.1003V26.1C21.9999 26.065 17.5602 21.5819 17.5446 16.1086V16.1083C17.5446 15.9565 17.5459 15.8057 17.5473 15.6554C17.55 15.3569 17.5526 15.0605 17.5446 14.763L17.5446 14.7628C17.5384 14.5085 17.6098 14.304 17.7496 14.1603C17.8885 14.0175 18.0832 13.9469 18.3007 13.9365L28.5054 24.4685ZM28.5054 24.4685C28.294 24.4702 28.0755 24.4788 27.8588 24.4874C27.6901 24.4941 27.5225 24.5008 27.3602 24.5041C26.9815 24.5117 26.6107 24.5023 26.2517 24.4388L26.2516 24.4387M28.5054 24.4685L26.2516 24.4387M26.2516 24.4387C21.5366 23.6086 18.8996 19.6337 19.0986 15.7881C19.1229 15.4134 19.1158 15.0373 19.0774 14.6639L19.0772 14.6625M26.2516 24.4387L19.0772 14.6625M19.0772 14.6625C19.0529 14.4547 18.971 14.2683 18.8366 14.1352M19.0772 14.6625L18.8366 14.1352M14.8934 14.7654L14.8934 14.7653C14.8978 14.5255 14.9729 14.3205 15.1092 14.1728C15.246 14.0245 15.4371 13.9417 15.6576 13.9344C15.6577 13.9344 15.6577 13.9344 15.6578 13.9344L14.8934 14.7654ZM14.8934 14.7654C14.8866 15.1621 14.8846 15.5594 14.8934 15.9571M14.8934 14.7654L16.4587 14.7245C16.9924 21.6682 11.7179 26.4315 5.74526 26.0604C5.47603 26.0439 5.20999 25.9928 4.95362 25.9082L4.95298 25.908C4.75981 25.8428 4.61944 25.7273 4.53844 25.5716C4.45829 25.4176 4.44165 25.2347 4.47491 25.0424L4.47509 25.0414C4.50822 24.8611 4.58117 24.7122 4.70509 24.611C4.8291 24.5097 4.99115 24.4667 5.18133 24.4726M5.18133 24.4726C5.18146 24.4726 5.18159 24.4726 5.18171 24.4726L5.17859 24.5725L5.18085 24.4726C5.18101 24.4726 5.18117 24.4726 5.18133 24.4726ZM5.18133 24.4726C5.44058 24.4784 5.69889 24.4765 5.95903 24.4745C6.09007 24.4735 6.22158 24.4725 6.35391 24.4725H6.35739L6.35739 24.4726C11.0663 24.6363 14.9903 20.6671 14.8934 15.9571M14.8934 15.9571L14.9934 15.9549L14.8934 15.9569C14.8934 15.957 14.8934 15.957 14.8934 15.9571ZM32.7975 19.9424L32.7975 19.9424C32.994 20.1317 33.0798 20.3342 33.0601 20.5443C33.0409 20.7485 32.9235 20.9392 32.7601 21.1131C31.7935 22.149 30.6241 22.8803 29.2535 23.1964C24.4059 24.314 20.1081 20.8016 20.1568 15.7915C20.1568 15.6821 20.1556 15.5715 20.1543 15.4604C20.1515 15.2014 20.1486 14.9391 20.1609 14.6795C20.1713 14.4563 20.2492 14.267 20.3837 14.134C20.5186 14.0006 20.7029 13.9312 20.9108 13.9351M32.7975 19.9424L20.9108 13.9351M32.7975 19.9424C32.6163 19.768 32.423 19.6932 32.225 19.7154C32.0319 19.7369 31.8536 19.8486 31.6933 20.0055L31.6932 20.0056M32.7975 19.9424L31.6932 20.0056M20.9108 13.9351C21.1279 13.9388 21.3218 14.0045 21.4616 14.1454C21.6016 14.2865 21.6746 14.4904 21.6747 14.7452L20.9108 13.9351ZM31.6932 20.0056C31.67 20.0284 31.6471 20.051 31.6245 20.0734C31.5543 20.143 31.4865 20.2103 31.415 20.2739L31.415 20.2739M31.6932 20.0056L31.415 20.2739M31.415 20.2739L31.4138 20.275M31.415 20.2739L31.4138 20.275M31.4138 20.275C29.775 21.7851 27.8504 22.2121 25.7694 21.5906M31.4138 20.275L25.7694 21.5906M13.8138 15.8379C13.8138 15.7458 13.8117 15.6561 13.8097 15.5677C13.8057 15.3945 13.8018 15.2265 13.8135 15.0559L13.8138 15.8379ZM18.8366 14.1352C18.7009 14.0009 18.5165 13.9261 18.3008 13.9365L18.8366 14.1352ZM25.7694 21.5906C23.6755 20.9635 22.3787 19.475 21.8289 17.3155C21.6544 16.6284 21.6626 15.9384 21.671 15.2331L25.7694 21.5906ZM16.4875 2.46335L16.4875 2.46335L3.30466 19.3456C4.62993 20.6596 6.69549 21.0399 8.38653 20.282C10.0776 19.5242 11.1433 17.7409 11.1278 15.8611L11.2278 15.8604C11.2278 15.8603 11.2278 15.8603 11.2278 15.8603C11.223 15.245 11.2142 14.6299 11.2055 14.0151C11.175 11.8808 11.1446 9.74994 11.2801 7.62468C11.4496 4.9634 13.8656 2.60728 16.4875 2.46335ZM1.91307 16.9768C2.10152 17.9054 2.56182 18.7554 3.23446 19.4168L29.5632 12.5818L29.4895 12.5142C29.4895 12.5143 29.4895 12.5143 29.4895 12.5143C29.3861 12.627 29.3215 12.7426 29.2927 12.8615C29.2639 12.9807 29.2728 13.0968 29.3067 13.2075C29.3731 13.4241 29.5373 13.6256 29.7103 13.8095L29.7103 13.8096C30.7422 14.9052 30.8994 16.4312 30.153 17.6885L30.153 17.6885C29.4369 18.8962 27.9808 19.4732 26.5975 19.0943C25.2201 18.717 24.3271 17.482 24.3245 15.9309C24.3238 15.586 24.323 15.2412 24.3222 14.8963C24.3181 13.1269 24.314 11.3577 24.3292 9.58855V9.58851C24.3295 9.55864 24.3297 9.52875 24.33 9.49884C24.338 8.55177 24.3462 7.58365 24.1193 6.65207L24.1193 6.65203C23.1579 2.71187 19.7584 0.647578 16.5293 0.924697L16.5378 1.02433L16.5293 0.924697C12.5254 1.26856 9.70001 4.35141 9.69114 8.18513V8.18536V8.19249V8.19961V8.20674V8.21387V8.22099V8.22812V8.23525V8.24237V8.2495V8.25663V8.26375V8.27088V8.278V8.28513V8.29226V8.29938V8.30651V8.31364V8.32076V8.32789V8.33501V8.34214V8.34927V8.35639V8.36352V8.37065V8.37777V8.3849V8.39202V8.39915V8.40628V8.4134V8.42053V8.42765V8.43478V8.44191V8.44903V8.45616V8.46328V8.47041V8.47753V8.48466V8.49179V8.49891V8.50604V8.51316V8.52029V8.52742V8.53454V8.54167V8.54879V8.55592V8.56304V8.57017V8.5773V8.58442V8.59155V8.59867V8.6058V8.61292V8.62005V8.62718V8.6343V8.64143V8.64855V8.65568V8.6628V8.66993V8.67705V8.68418V8.69131V8.69843V8.70556V8.71268V8.71981V8.72693V8.73406V8.74118V8.74831V8.75543V8.76256V8.76968V8.77681V8.78394V8.79106V8.79819V8.80531V8.81244V8.81956V8.82669V8.83381V8.84094V8.84806V8.85519V8.86231V8.86944V8.87656V8.88369V8.89081V8.89794V8.90506V8.91219V8.91931V8.92644V8.93356V8.94069V8.94781V8.95494V8.96206V8.96919V8.97631V8.98344V8.99056V8.99769V9.00481V9.01194V9.01906V9.02619V9.03331V9.04044V9.04756V9.05469V9.06181V9.06894V9.07606V9.08319V9.09031V9.09744V9.10456V9.11168V9.11881V9.12593V9.13306V9.14018V9.14731V9.15443V9.16156V9.16868V9.17581V9.18293V9.19006V9.19718V9.20431V9.21143V9.21855V9.22568V9.2328V9.23993V9.24705V9.25418V9.2613V9.26843V9.27555V9.28268V9.2898V9.29692V9.30405V9.31117V9.3183V9.32542V9.33255V9.33967V9.3468V9.35392V9.36104V9.36817V9.37529V9.38242V9.38954V9.39667V9.40379V9.41091V9.41804V9.42516V9.43229V9.43941V9.44654V9.45366V9.46078V9.46791V9.47503V9.48216V9.48928V9.4964V9.50353V9.51065V9.51778V9.5249V9.53203V9.53915V9.54627V9.5534V9.56052V9.56765V9.57477V9.58189V9.58902V9.59614V9.60327V9.61039V9.61751V9.62464V9.63176V9.63889V9.64601V9.65313V9.66026V9.66738V9.67451V9.68163V9.68875V9.69588V9.703V9.71012V9.71725V9.72437V9.7315V9.73862V9.74574V9.75287V9.75999V9.76711V9.77424V9.78136V9.78849V9.79561V9.80273V9.80986V9.81698V9.82411V9.83123V9.83835V9.84548V9.8526V9.85972V9.86685V9.87397V9.88109V9.88822V9.89534V9.90247V9.90959V9.91671V9.92384V9.93096V9.93808V9.94521V9.95233V9.95945V9.96658V9.9737V9.98082V9.98795V9.99507V10.0022V10.0093V10.0164V10.0236V10.0307V10.0378V10.0449V10.0521V10.0592V10.0663V10.0734V10.0806V10.0877V10.0948V10.1019V10.109V10.1162V10.1233V10.1304V10.1375V10.1447V10.1518V10.1589V10.166V10.1732V10.1803V10.1874V10.1945V10.2017V10.2088V10.2159V10.223V10.2301V10.2373V10.2444V10.2515V10.2586V10.2658V10.2729V10.28V10.2871V10.2943V10.3014V10.3085V10.3156V10.3227V10.3299V10.337V10.3441V10.3512V10.3584V10.3655V10.3726V10.3797V10.3869V10.394V10.4011V10.4082V10.4153V10.4225V10.4296V10.4367V10.4438V10.451V10.4581V10.4652V10.4723V10.4795V10.4866V10.4937V10.5008V10.5079V10.5151V10.5222V10.5293V10.5364V10.5436V10.5507V10.5578V10.5649V10.5721V10.5792V10.5863V10.5934V10.6005V10.6077V10.6148V10.6219V10.629V10.6362V10.6433V10.6504V10.6575V10.6647V10.6718V10.6789V10.686V10.6931V10.7003V10.7074V10.7145V10.7216V10.7288V10.7359V10.743V10.7501V10.7572V10.7644V10.7715V10.7786V10.7857V10.7929V10.8V10.8071V10.8142V10.8214V10.8285V10.8356V10.8427V10.8498V10.857V10.8641V10.8712V10.8783V10.8855V10.8926V10.8997V10.9068V10.914V10.9211V10.9282V10.9353V10.9424V10.9496V10.9567V10.9638V10.9709V10.9781V10.9852V10.9923V10.9994V11.0065V11.0137V11.0208V11.0279V11.035V11.0422V11.0493V11.0564V11.0635V11.0707V11.0778V11.0849V11.092V11.0991V11.1063V11.1134V11.1205V11.1276V11.1348V11.1419V11.149V11.1561V11.1632V11.1704V11.1775V11.1846V11.1917V11.1989V11.206V11.2131V11.2202V11.2274V11.2345V11.2416V11.2487V11.2558V11.263V11.2701V11.2772V11.2843V11.2915V11.2986V11.3057V11.3128V11.3199V11.3271V11.3342V11.3413V11.3484V11.3556V11.3627V11.3698V11.3769V11.384V11.3912V11.3983V11.4054V11.4125V11.4197V11.4268V11.4339V11.441V11.4482V11.4553V11.4624V11.4695V11.4766V11.4838V11.4909V11.498V11.5051V11.5123V11.5194V11.5265V11.5336V11.5407V11.5479V11.555V11.5621V11.5692V11.5764V11.5835V11.5906V11.5977V11.6048V11.612V11.6191V11.6262V11.6333V11.6405V11.6476V11.6547V11.6618V11.6689V11.6761V11.6832V11.6903V11.6974V11.7046V11.7117V11.7188V11.7259V11.7331V11.7402V11.7473V11.7544V11.7615V11.7687V11.7758V11.7829V11.79V11.7972V11.8043V11.8114V11.8185V11.8256V11.8328C9.69114 12.2579 9.69238 12.6828 9.69361 13.1074C9.69645 14.0835 9.69929 15.0588 9.68711 16.0344L9.68711 16.0349C9.68155 16.7307 9.45188 17.4056 9.033 17.9577C8.61414 18.5097 8.02891 18.9089 7.36583 19.0951C6.00533 19.4684 4.60803 18.9305 3.8647 17.7481L3.86469 17.7481C3.07948 16.4997 3.25168 14.9318 4.34611 13.7317L4.34618 13.7316C4.50783 13.5539 4.65281 13.3619 4.70019 13.1541C4.75021 12.9347 4.68824 12.7156 4.47849 12.4993C4.26768 12.2819 4.04322 12.2154 3.82057 12.2622C3.6079 12.3069 3.41345 12.4518 3.24517 12.6179L3.24496 12.6181C2.78822 13.0716 2.42539 13.6123 2.17752 14.2086L2.17741 14.2088C1.81669 15.084 1.72461 16.0483 1.91307 16.9768ZM16.6321 3.55531L16.6321 3.55531C14.352 3.69077 12.4032 5.69976 12.2875 7.98446C12.2571 8.25995 12.2886 8.5154 12.402 8.71219C12.5187 8.9147 12.7159 9.04361 12.9874 9.06993C13.2574 9.09609 13.4636 9.01349 13.6042 8.84063C13.7393 8.67457 13.8034 8.43764 13.8256 8.17335L13.8256 8.17324C13.8979 7.29931 14.2125 6.58697 14.7168 6.07123C15.2211 5.55548 15.9215 5.22989 16.7768 5.14062C17.0187 5.11548 17.2705 5.0714 17.455 4.944C17.5498 4.87855 17.627 4.79112 17.6757 4.67522C17.7241 4.56024 17.742 4.42311 17.7281 4.26112C17.714 4.0983 17.671 3.96598 17.601 3.86105C17.5307 3.75552 17.4369 3.68339 17.3308 3.63567C17.1239 3.54258 16.867 3.54138 16.6321 3.55531ZM17.0296 10.3878L17.03 10.3878C17.571 10.377 18.0866 10.1547 18.4683 9.76792C18.85 9.38121 19.0682 8.86025 19.0772 8.31469L19.0772 8.31382C19.0864 7.15198 18.1505 6.22533 16.9756 6.22533L16.9754 6.22533C15.8106 6.22746 14.8709 7.17264 14.8914 8.32635C14.9118 9.47844 15.8726 10.4064 17.0296 10.3878ZM16.5781 8.66745C16.51 8.5862 16.4732 8.46319 16.469 8.29787C16.4648 8.1108 16.5199 7.99057 16.6076 7.91033C16.6957 7.8297 16.8289 7.77816 17.0056 7.75531C17.1641 7.80039 17.3003 7.86232 17.394 7.95006C17.4869 8.03695 17.5433 8.15368 17.5314 8.32539C17.5186 8.499 17.4547 8.61444 17.3597 8.68804C17.2621 8.76362 17.1189 8.80502 16.9312 8.80249C16.7504 8.80006 16.6433 8.74531 16.5781 8.66745Z" fill="#8370DC" stroke="#8370DC" stroke-width="0.2"/>
</svg>
