<svg width="24" height="24" viewBox="0 0 24 24" fill="none" xmlns="http://www.w3.org/2000/svg">
<path fill-rule="evenodd" clip-rule="evenodd" d="M7.02507 0H16.7217C20.5805 0 23.7467 3.2 23.7467 7.1V16.9C23.7467 20.8 20.5805 24 16.7217 24H7.02507C3.16623 24 0 20.8 0 16.9V7.1C0 3.2 3.16623 0 7.02507 0ZM5.73879 12C5.73879 15.4 8.50924 18.2 11.8734 18.2C15.2375 18.2 18.0079 15.4 18.0079 12C18.0079 8.6 15.2375 5.8 11.8734 5.8C8.50924 5.8 5.73879 8.6 5.73879 12ZM16.5238 5.8C16.5238 6.6 17.2164 7.3 18.0079 7.3C18.7995 7.3 19.4921 6.6 19.4921 5.8C19.4921 5 18.7995 4.3 18.0079 4.3C17.2164 4.3 16.5238 5 16.5238 5.8ZM8.21237 11.9999C8.21237 9.9999 9.79549 8.2999 11.8733 8.2999C13.9512 8.2999 15.5343 9.8999 15.5343 11.9999C15.5343 13.9999 13.9512 15.6999 11.8733 15.6999C9.89443 15.6999 8.21237 14.0999 8.21237 11.9999Z" fill="#8370DC"/>
</svg>
